G04*
G04 #@! TF.GenerationSoftware,Altium Limited,Altium Designer,23.0.1 (38)*
G04*
G04 Layer_Physical_Order=1*
G04 Layer_Color=255*
%FSLAX42Y42*%
%MOMM*%
G71*
G04*
G04 #@! TF.SameCoordinates,11CD51D0-70BF-4863-A242-58D7B7C6D63D*
G04*
G04*
G04 #@! TF.FilePolarity,Positive*
G04*
G01*
G75*
%ADD14C,0.25*%
%ADD15R,0.80X1.00*%
%ADD16R,0.60X0.95*%
%ADD17R,4.90X1.60*%
%ADD18R,3.81X1.50*%
G04:AMPARAMS|DCode=19|XSize=1.6mm|YSize=1.6mm|CornerRadius=0.14mm|HoleSize=0mm|Usage=FLASHONLY|Rotation=0.000|XOffset=0mm|YOffset=0mm|HoleType=Round|Shape=RoundedRectangle|*
%AMROUNDEDRECTD19*
21,1,1.60,1.31,0,0,0.0*
21,1,1.31,1.60,0,0,0.0*
1,1,0.29,0.66,-0.66*
1,1,0.29,-0.66,-0.66*
1,1,0.29,-0.66,0.66*
1,1,0.29,0.66,0.66*
%
%ADD19ROUNDEDRECTD19*%
%ADD20R,1.00X0.80*%
G04:AMPARAMS|DCode=21|XSize=2.26mm|YSize=2.42mm|CornerRadius=0.25mm|HoleSize=0mm|Usage=FLASHONLY|Rotation=0.000|XOffset=0mm|YOffset=0mm|HoleType=Round|Shape=RoundedRectangle|*
%AMROUNDEDRECTD21*
21,1,2.26,1.92,0,0,0.0*
21,1,1.76,2.42,0,0,0.0*
1,1,0.50,0.88,-0.96*
1,1,0.50,-0.88,-0.96*
1,1,0.50,-0.88,0.96*
1,1,0.50,0.88,0.96*
%
%ADD21ROUNDEDRECTD21*%
%ADD22R,6.90X6.80*%
%ADD23R,1.90X0.95*%
%ADD24R,2.72X1.67*%
%ADD25R,0.60X1.00*%
%ADD39C,0.50*%
%ADD40C,0.80*%
%ADD41C,3.00*%
%ADD42C,0.60*%
G36*
X5767Y33D02*
X33D01*
Y850D01*
X81D01*
X86Y850D01*
X86Y850D01*
X97Y855D01*
X99Y855D01*
X512D01*
Y889D01*
X1169D01*
Y844D01*
X1481D01*
Y887D01*
X1723D01*
Y880D01*
X1842D01*
Y880D01*
X1858D01*
Y880D01*
X1977D01*
Y889D01*
X2024D01*
Y884D01*
X2027Y871D01*
X2035Y860D01*
X2046Y852D01*
X2059Y849D01*
X2191D01*
X2204Y852D01*
X2215Y860D01*
X2223Y871D01*
X2226Y884D01*
Y1016D01*
X2223Y1029D01*
X2215Y1040D01*
X2204Y1048D01*
X2191Y1051D01*
X2059D01*
X2046Y1048D01*
X2035Y1040D01*
X2027Y1029D01*
X2024Y1016D01*
Y1011D01*
X1977D01*
Y1055D01*
Y1195D01*
X1858D01*
Y1195D01*
X1816Y1195D01*
Y1210D01*
X1820D01*
Y1350D01*
X1793D01*
X1788Y1363D01*
X1798Y1373D01*
X1805Y1391D01*
Y1408D01*
X1914Y1517D01*
X2024D01*
Y1484D01*
X2027Y1471D01*
X2035Y1460D01*
X2038Y1458D01*
Y1442D01*
X2035Y1440D01*
X2027Y1429D01*
X2024Y1416D01*
Y1284D01*
X2027Y1271D01*
X2035Y1260D01*
X2046Y1252D01*
X2059Y1249D01*
X2191D01*
X2204Y1252D01*
X2215Y1260D01*
X2223Y1271D01*
X2226Y1284D01*
Y1305D01*
X2238Y1310D01*
X2245Y1305D01*
Y1241D01*
X2233Y1228D01*
X2225Y1210D01*
Y1190D01*
X2233Y1172D01*
X2247Y1158D01*
X2265Y1150D01*
X2285D01*
X2303Y1158D01*
X2317Y1172D01*
X2325Y1190D01*
Y1210D01*
X2317Y1228D01*
X2312Y1234D01*
Y1322D01*
X2309Y1335D01*
X2302Y1345D01*
X2274Y1374D01*
X2263Y1381D01*
X2250Y1383D01*
X2226D01*
Y1416D01*
X2223Y1429D01*
X2215Y1440D01*
X2212Y1442D01*
Y1458D01*
X2215Y1460D01*
X2223Y1471D01*
X2226Y1484D01*
Y1616D01*
X2223Y1629D01*
X2215Y1640D01*
X2204Y1648D01*
X2191Y1651D01*
X2059D01*
X2046Y1648D01*
X2035Y1640D01*
X2027Y1629D01*
X2024Y1616D01*
Y1583D01*
X1900D01*
X1887Y1581D01*
X1876Y1574D01*
X1754Y1451D01*
X1745D01*
X1738Y1448D01*
X1728Y1454D01*
X1728Y1454D01*
X1728Y1454D01*
D01*
X1725Y1456D01*
X1725Y1458D01*
Y1590D01*
X1625D01*
Y1558D01*
X1534D01*
X1527Y1566D01*
X1508Y1573D01*
X1488D01*
X1488Y1573D01*
X1477Y1580D01*
Y1595D01*
X1475D01*
X1475Y1608D01*
X1475D01*
Y1742D01*
X1375D01*
Y1608D01*
X1375D01*
X1375Y1595D01*
X1358Y1595D01*
X1348Y1600D01*
X1347Y1600D01*
X1342D01*
X1330Y1602D01*
X1330Y1613D01*
Y1662D01*
X1275D01*
X1220D01*
Y1612D01*
X1217Y1600D01*
X1217Y1590D01*
Y1538D01*
X1282D01*
Y1525D01*
X1295D01*
Y1450D01*
X1347D01*
X1348Y1450D01*
X1358Y1455D01*
X1361Y1455D01*
X1477D01*
Y1466D01*
X1488Y1473D01*
X1488Y1473D01*
X1508D01*
X1527Y1481D01*
X1537Y1492D01*
X1625D01*
Y1450D01*
X1715Y1450D01*
X1715D01*
X1715D01*
X1716Y1450D01*
X1717Y1446D01*
X1717D01*
X1717Y1446D01*
X1717D01*
X1718Y1434D01*
X1713Y1429D01*
X1705Y1411D01*
Y1391D01*
X1713Y1373D01*
X1723Y1363D01*
X1720Y1350D01*
X1720Y1349D01*
Y1210D01*
X1724D01*
Y1195D01*
X1723D01*
Y1055D01*
Y1009D01*
X1497D01*
X1489Y1013D01*
X1486Y1015D01*
Y1154D01*
X1486Y1164D01*
X1484Y1166D01*
X1481Y1177D01*
Y1306D01*
X1169D01*
Y1263D01*
X1104D01*
Y1383D01*
X1136D01*
X1153Y1387D01*
X1168Y1397D01*
X1178Y1411D01*
X1181Y1429D01*
Y1621D01*
X1178Y1639D01*
X1168Y1653D01*
X1153Y1663D01*
X1136Y1667D01*
X1109D01*
Y1783D01*
X1290D01*
Y1917D01*
X1060D01*
Y1908D01*
X1052Y1907D01*
X1032Y1893D01*
X1004Y1866D01*
X991Y1846D01*
X986Y1823D01*
Y1667D01*
X959D01*
X942Y1663D01*
X927Y1653D01*
X917Y1639D01*
X914Y1621D01*
Y1429D01*
X917Y1411D01*
X927Y1397D01*
X942Y1387D01*
X959Y1383D01*
X981D01*
Y1285D01*
X973Y1275D01*
X969Y1275D01*
X920D01*
Y1200D01*
Y1125D01*
X972D01*
X973Y1125D01*
X983Y1130D01*
X986Y1130D01*
X1102D01*
Y1141D01*
X1164D01*
Y1016D01*
X1153Y1011D01*
X512D01*
Y1045D01*
X97Y1045D01*
X86Y1050D01*
X81Y1050D01*
X50D01*
X50Y1050D01*
X33D01*
X33Y2967D01*
X5767D01*
Y33D01*
D02*
G37*
%LPC*%
G36*
X5517Y2875D02*
X5513D01*
Y2713D01*
X5675D01*
Y2717D01*
X5669Y2751D01*
X5655Y2783D01*
X5636Y2812D01*
X5612Y2836D01*
X5583Y2855D01*
X5551Y2869D01*
X5517Y2875D01*
D02*
G37*
G36*
X5487D02*
X5483D01*
X5449Y2869D01*
X5417Y2855D01*
X5388Y2836D01*
X5364Y2812D01*
X5345Y2783D01*
X5331Y2751D01*
X5325Y2717D01*
Y2713D01*
X5487D01*
Y2875D01*
D02*
G37*
G36*
X317D02*
X313D01*
Y2713D01*
X475D01*
Y2717D01*
X469Y2751D01*
X455Y2783D01*
X436Y2812D01*
X412Y2836D01*
X383Y2855D01*
X351Y2869D01*
X317Y2875D01*
D02*
G37*
G36*
X287D02*
X283D01*
X249Y2869D01*
X217Y2855D01*
X188Y2836D01*
X164Y2812D01*
X145Y2783D01*
X131Y2751D01*
X125Y2717D01*
Y2713D01*
X287D01*
Y2875D01*
D02*
G37*
G36*
X5675Y2687D02*
X5513D01*
Y2525D01*
X5517D01*
X5551Y2531D01*
X5583Y2545D01*
X5612Y2564D01*
X5636Y2588D01*
X5655Y2617D01*
X5669Y2649D01*
X5675Y2683D01*
Y2687D01*
D02*
G37*
G36*
X5487D02*
X5325D01*
Y2683D01*
X5331Y2649D01*
X5345Y2617D01*
X5364Y2588D01*
X5388Y2564D01*
X5417Y2545D01*
X5449Y2531D01*
X5483Y2525D01*
X5487D01*
Y2687D01*
D02*
G37*
G36*
X475D02*
X313D01*
Y2525D01*
X317D01*
X351Y2531D01*
X383Y2545D01*
X412Y2564D01*
X436Y2588D01*
X455Y2617D01*
X469Y2649D01*
X475Y2683D01*
Y2687D01*
D02*
G37*
G36*
X287D02*
X125D01*
Y2683D01*
X131Y2649D01*
X145Y2617D01*
X164Y2588D01*
X188Y2564D01*
X217Y2545D01*
X249Y2531D01*
X283Y2525D01*
X287D01*
Y2687D01*
D02*
G37*
G36*
X1986Y2347D02*
X1910D01*
Y2213D01*
X2037D01*
Y2296D01*
X2033Y2316D01*
X2022Y2332D01*
X2005Y2343D01*
X1986Y2347D01*
D02*
G37*
G36*
X1885D02*
X1809D01*
X1790Y2343D01*
X1773Y2332D01*
X1762Y2316D01*
X1758Y2296D01*
Y2213D01*
X1885D01*
Y2347D01*
D02*
G37*
G36*
X2037Y2187D02*
X1910D01*
Y2053D01*
X1986D01*
X2005Y2057D01*
X2022Y2068D01*
X2033Y2084D01*
X2037Y2104D01*
Y2187D01*
D02*
G37*
G36*
X1885D02*
X1758D01*
Y2104D01*
X1762Y2084D01*
X1773Y2068D01*
X1790Y2057D01*
X1809Y2053D01*
X1885D01*
Y2187D01*
D02*
G37*
G36*
X1290Y2374D02*
X1060D01*
Y2239D01*
X1154D01*
Y2215D01*
X1158Y2197D01*
X1168Y2182D01*
X1182Y2168D01*
X1197Y2158D01*
X1215Y2154D01*
X1269D01*
Y2104D01*
X1272Y2086D01*
X1282Y2072D01*
X1297Y2062D01*
X1314Y2058D01*
X1491D01*
X1508Y2062D01*
X1523Y2072D01*
X1533Y2086D01*
X1534Y2093D01*
X1567D01*
X1703Y1957D01*
X1708Y1947D01*
X1722Y1933D01*
X1740Y1925D01*
X1750D01*
X1755Y1924D01*
X1830D01*
X1830Y1883D01*
X1825Y1873D01*
X1825Y1872D01*
Y1820D01*
X1975D01*
Y1872D01*
X1975Y1873D01*
X1970Y1883D01*
X1970Y1886D01*
Y1904D01*
X2024D01*
Y1884D01*
X2027Y1871D01*
X2035Y1860D01*
X2046Y1852D01*
X2059Y1849D01*
X2191D01*
X2204Y1852D01*
X2215Y1860D01*
X2223Y1871D01*
X2226Y1884D01*
Y2016D01*
X2223Y2029D01*
X2215Y2040D01*
X2204Y2048D01*
X2191Y2051D01*
X2059D01*
X2046Y2048D01*
X2035Y2040D01*
X2027Y2029D01*
X2024Y2016D01*
Y1996D01*
X1970D01*
Y2002D01*
X1905D01*
X1890Y2012D01*
X1873Y2016D01*
X1780D01*
X1778Y2017D01*
X1768Y2022D01*
X1619Y2171D01*
X1604Y2181D01*
X1586Y2185D01*
X1536D01*
Y2296D01*
X1533Y2314D01*
X1523Y2328D01*
X1508Y2338D01*
X1491Y2342D01*
X1314D01*
X1303Y2340D01*
X1290Y2348D01*
Y2374D01*
D02*
G37*
G36*
X1975Y1795D02*
X1913D01*
Y1742D01*
X1975D01*
Y1795D01*
D02*
G37*
G36*
X1887D02*
X1825D01*
Y1742D01*
X1887D01*
Y1795D01*
D02*
G37*
G36*
X1330Y1748D02*
X1288D01*
Y1688D01*
X1330D01*
Y1748D01*
D02*
G37*
G36*
X1262D02*
X1220D01*
Y1688D01*
X1262D01*
Y1748D01*
D02*
G37*
G36*
X641Y1672D02*
X565D01*
Y1538D01*
X692D01*
Y1621D01*
X688Y1641D01*
X677Y1657D01*
X660Y1668D01*
X641Y1672D01*
D02*
G37*
G36*
X540D02*
X464D01*
X445Y1668D01*
X428Y1657D01*
X417Y1641D01*
X413Y1621D01*
Y1538D01*
X540D01*
Y1672D01*
D02*
G37*
G36*
X1270Y1512D02*
X1217D01*
Y1450D01*
X1270D01*
Y1512D01*
D02*
G37*
G36*
X692Y1512D02*
X565D01*
Y1378D01*
X641D01*
X660Y1382D01*
X677Y1393D01*
X688Y1409D01*
X692Y1429D01*
Y1512D01*
D02*
G37*
G36*
X540D02*
X413D01*
Y1429D01*
X417Y1409D01*
X428Y1393D01*
X445Y1382D01*
X464Y1378D01*
X540D01*
Y1512D01*
D02*
G37*
G36*
X1635Y1355D02*
X1593D01*
Y1293D01*
X1635D01*
Y1355D01*
D02*
G37*
G36*
X1567D02*
X1525D01*
Y1293D01*
X1567D01*
Y1355D01*
D02*
G37*
G36*
X895Y1275D02*
X842D01*
Y1213D01*
X895D01*
Y1275D01*
D02*
G37*
G36*
X1635Y1267D02*
X1593D01*
Y1205D01*
X1635D01*
Y1267D01*
D02*
G37*
G36*
X1567D02*
X1525D01*
Y1205D01*
X1567D01*
Y1267D01*
D02*
G37*
G36*
X895Y1187D02*
X842D01*
Y1125D01*
X895D01*
Y1187D01*
D02*
G37*
G36*
X4941Y1001D02*
X4809D01*
X4796Y998D01*
X4785Y990D01*
X4777Y979D01*
X4774Y966D01*
Y834D01*
X4777Y821D01*
X4785Y810D01*
X4796Y802D01*
X4809Y799D01*
X4941D01*
X4954Y802D01*
X4965Y810D01*
X4973Y821D01*
X4973Y822D01*
X4975Y825D01*
X5300D01*
Y793D01*
X5721D01*
Y982D01*
X5300D01*
Y975D01*
X4975D01*
X4973Y978D01*
X4973Y979D01*
X4965Y990D01*
X4954Y998D01*
X4941Y1001D01*
D02*
G37*
G36*
X5517Y475D02*
X5513D01*
Y313D01*
X5675D01*
Y317D01*
X5669Y351D01*
X5655Y383D01*
X5636Y412D01*
X5612Y436D01*
X5583Y455D01*
X5551Y469D01*
X5517Y475D01*
D02*
G37*
G36*
X5487D02*
X5483D01*
X5449Y469D01*
X5417Y455D01*
X5388Y436D01*
X5364Y412D01*
X5345Y383D01*
X5331Y351D01*
X5325Y317D01*
Y313D01*
X5487D01*
Y475D01*
D02*
G37*
G36*
X317D02*
X313D01*
Y313D01*
X475D01*
Y317D01*
X469Y351D01*
X455Y383D01*
X436Y412D01*
X412Y436D01*
X383Y455D01*
X351Y469D01*
X317Y475D01*
D02*
G37*
G36*
X287D02*
X283D01*
X249Y469D01*
X217Y455D01*
X188Y436D01*
X164Y412D01*
X145Y383D01*
X131Y351D01*
X125Y317D01*
Y313D01*
X287D01*
Y475D01*
D02*
G37*
G36*
X5675Y287D02*
X5513D01*
Y125D01*
X5517D01*
X5551Y131D01*
X5583Y145D01*
X5612Y164D01*
X5636Y188D01*
X5655Y217D01*
X5669Y249D01*
X5675Y283D01*
Y287D01*
D02*
G37*
G36*
X5487D02*
X5325D01*
Y283D01*
X5331Y249D01*
X5345Y217D01*
X5364Y188D01*
X5388Y164D01*
X5417Y145D01*
X5449Y131D01*
X5483Y125D01*
X5487D01*
Y287D01*
D02*
G37*
G36*
X475D02*
X313D01*
Y125D01*
X317D01*
X351Y131D01*
X383Y145D01*
X412Y164D01*
X436Y188D01*
X455Y217D01*
X469Y249D01*
X475Y283D01*
Y287D01*
D02*
G37*
G36*
X287D02*
X125D01*
Y283D01*
X131Y249D01*
X145Y217D01*
X164Y188D01*
X188Y164D01*
X217Y145D01*
X249Y131D01*
X283Y125D01*
X287D01*
Y287D01*
D02*
G37*
%LPD*%
D14*
X1498Y1525D02*
X1670D01*
X1418D02*
X1419Y1523D01*
X1498D01*
X1755Y1405D02*
X1900Y1550D01*
X1755Y1401D02*
Y1405D01*
X1900Y1550D02*
X2125D01*
X1910Y1118D02*
X1917Y1125D01*
X1910Y950D02*
X1910Y950D01*
X2275Y1200D02*
X2278Y1203D01*
Y1322D01*
X2250Y1350D02*
X2278Y1322D01*
X5498Y900D02*
X5523Y875D01*
X2125Y1350D02*
X2250D01*
X1670Y1525D02*
X1675Y1520D01*
X1043Y1200D02*
X1044Y1202D01*
X1425Y1532D02*
Y1675D01*
X1418Y1525D02*
X1425Y1532D01*
X1323Y950D02*
X1325Y948D01*
X1770Y1138D02*
X1783Y1125D01*
X1773Y948D02*
X1775Y950D01*
D15*
X5192Y900D02*
D03*
X5058D02*
D03*
X1282Y1525D02*
D03*
X1418D02*
D03*
X1043Y1200D02*
D03*
X907D02*
D03*
X1783Y1125D02*
D03*
X1917D02*
D03*
Y950D02*
D03*
X1783D02*
D03*
D16*
X1275Y1675D02*
D03*
X1425D02*
D03*
D17*
X333Y696D02*
D03*
Y1204D02*
D03*
X5480Y1141D02*
D03*
Y634D02*
D03*
D18*
X302Y950D02*
D03*
X5510Y888D02*
D03*
D19*
X4875Y1100D02*
D03*
Y900D02*
D03*
Y700D02*
D03*
X2125Y750D02*
D03*
Y950D02*
D03*
Y1150D02*
D03*
Y1350D02*
D03*
Y1550D02*
D03*
Y1750D02*
D03*
Y1950D02*
D03*
D20*
X1900Y1808D02*
D03*
Y1942D02*
D03*
D21*
X1898Y2200D02*
D03*
X1402D02*
D03*
X553Y1525D02*
D03*
X1048D02*
D03*
D22*
X545Y2078D02*
D03*
D23*
X1175Y2306D02*
D03*
Y1850D02*
D03*
D24*
X1325Y948D02*
D03*
Y1202D02*
D03*
D25*
X1675Y1520D02*
D03*
X1770Y1280D02*
D03*
X1580D02*
D03*
D39*
X1377Y2175D02*
X1414Y2139D01*
X1586D01*
X1750Y1975D01*
X1377Y2175D02*
Y2200D01*
X1215D02*
X1377D01*
X1750Y1975D02*
X1755Y1970D01*
X1873D02*
X1900Y1942D01*
X1755Y1970D02*
X1873D01*
X1900Y1950D02*
X2125D01*
X1200Y2215D02*
Y2281D01*
X1175Y2306D02*
X1200Y2281D01*
Y2215D02*
X1215Y2200D01*
X1770Y1138D02*
Y1280D01*
D40*
X1910Y950D02*
Y1118D01*
X1043Y1200D02*
Y1525D01*
X1075Y1850D02*
X1175D01*
X1048Y1525D02*
Y1823D01*
X1075Y1850D01*
X5192Y900D02*
X5498D01*
X4875D02*
X5058D01*
X1044Y1202D02*
X1325D01*
X302Y950D02*
X1323D01*
X1910Y950D02*
X2125D01*
X1325Y948D02*
X1773D01*
D41*
X300Y2700D02*
D03*
X5500D02*
D03*
Y300D02*
D03*
X300D02*
D03*
D42*
X1655Y1126D02*
D03*
X1343Y1770D02*
D03*
X800Y1200D02*
D03*
X805Y1776D02*
D03*
X550Y1775D02*
D03*
X675D02*
D03*
X430Y1776D02*
D03*
X305D02*
D03*
X805Y1926D02*
D03*
X680D02*
D03*
X555D02*
D03*
X430D02*
D03*
X305D02*
D03*
X805Y2076D02*
D03*
X680D02*
D03*
X555D02*
D03*
X430D02*
D03*
X305D02*
D03*
X430Y2226D02*
D03*
X305D02*
D03*
Y2376D02*
D03*
X425Y2375D02*
D03*
X805Y2226D02*
D03*
X680D02*
D03*
X550Y2225D02*
D03*
X805Y2376D02*
D03*
X680D02*
D03*
X550Y2375D02*
D03*
X1498Y1523D02*
D03*
X1755Y1401D02*
D03*
X1750Y1975D02*
D03*
X2275Y1200D02*
D03*
M02*
