G04*
G04 #@! TF.GenerationSoftware,Altium Limited,Altium Designer,23.0.1 (38)*
G04*
G04 Layer_Color=65535*
%FSLAX42Y42*%
%MOMM*%
G71*
G04*
G04 #@! TF.SameCoordinates,11CD51D0-70BF-4863-A242-58D7B7C6D63D*
G04*
G04*
G04 #@! TF.FilePolarity,Positive*
G04*
G01*
G75*
%ADD10C,0.25*%
%ADD11C,0.20*%
%ADD12C,0.15*%
%ADD13C,0.12*%
%ADD14C,0.25*%
G36*
X2206Y307D02*
X2205Y294D01*
X1605Y54D01*
X1595Y61D01*
Y237D01*
X655D01*
Y400D01*
X1595D01*
Y588D01*
X1606Y595D01*
X2206Y307D01*
D02*
G37*
D10*
X2077Y2176D02*
G03*
X2077Y2176I-12J0D01*
G01*
X1188Y1748D02*
G03*
X1188Y1748I-12J0D01*
G01*
D11*
X1345Y1712D02*
X1355D01*
X1345Y1638D02*
X1355D01*
X-117Y600D02*
Y1300D01*
X47Y1064D02*
Y1300D01*
X-442Y1216D02*
X-405Y1195D01*
X-463Y1259D02*
X-442Y1221D01*
X-477Y1259D02*
X-463D01*
X-498Y1222D02*
X-477Y1259D01*
X-519D02*
X-498Y1222D01*
X-533Y1259D02*
X-519D01*
X-554Y1222D02*
X-533Y1259D01*
X-575D02*
X-554Y1222D01*
X-589Y1259D02*
X-575D01*
X-610Y1222D02*
X-589Y1259D01*
X-631D02*
X-610Y1222D01*
X-645Y1259D02*
X-631D01*
X-666Y1222D02*
X-645Y1259D01*
X-687D02*
X-666Y1222D01*
X-701Y1259D02*
X-687D01*
X-722Y1222D02*
X-701Y1259D01*
X-743D02*
X-722Y1222D01*
X-757Y1259D02*
X-743D01*
X-778Y1222D02*
X-757Y1259D01*
X-799D02*
X-778Y1222D01*
X-813Y1259D02*
X-799D01*
X-834Y1222D02*
X-813Y1259D01*
X-834Y684D02*
Y1222D01*
Y684D02*
X-813Y641D01*
X-799D01*
X-778Y678D01*
X-757Y641D01*
X-743D01*
X-722Y678D01*
X-701Y641D01*
X-687D01*
X-666Y678D01*
X-645Y641D01*
X-631D01*
X-610Y678D01*
X-589Y641D01*
X-575D01*
X-554Y678D01*
X-533Y641D01*
X-519D01*
X-498Y678D01*
X-477Y641D01*
X-463D01*
X-442Y678D01*
Y1221D01*
Y684D02*
X-405Y705D01*
Y705D02*
Y1195D01*
X-117D01*
X-906Y1216D02*
X-834D01*
X-906Y684D02*
Y1216D01*
Y684D02*
X-834D01*
X-405Y705D02*
X-117D01*
X-519Y641D02*
X-463Y1259D01*
X-533Y641D02*
X-477Y1259D01*
X-554Y678D02*
X-498Y1222D01*
Y678D02*
X-442Y1221D01*
X-463Y641D02*
X-442Y1216D01*
X-477Y641D02*
X-442Y1221D01*
X-575Y641D02*
X-519Y1259D01*
X-589Y641D02*
X-533Y1259D01*
X-610Y678D02*
X-554Y1222D01*
X-631Y641D02*
X-575Y1259D01*
X-645Y641D02*
X-589Y1259D01*
X-666Y678D02*
X-610Y1222D01*
X-687Y641D02*
X-631Y1259D01*
X-701Y641D02*
X-645Y1259D01*
X-722Y678D02*
X-666Y1222D01*
X-743Y641D02*
X-687Y1259D01*
X-757Y641D02*
X-701Y1259D01*
X-778Y678D02*
X-722Y1222D01*
X-799Y641D02*
X-743Y1259D01*
X-813Y641D02*
X-757Y1259D01*
X-834Y684D02*
X-778Y1222D01*
X-834Y684D02*
X-799Y1259D01*
X-834Y684D02*
X-813Y1259D01*
X-117Y1300D02*
X47D01*
X-117Y600D02*
X47D01*
Y836D01*
X5930Y538D02*
Y1238D01*
X5765Y538D02*
Y774D01*
X6217Y643D02*
X6254Y621D01*
Y616D02*
X6276Y578D01*
X6289D01*
X6310Y616D01*
X6332Y578D01*
X6345D01*
X6367Y616D01*
X6388Y578D01*
X6401D01*
X6422Y616D01*
X6444Y578D01*
X6457D01*
X6479Y616D01*
X6500Y578D01*
X6513D01*
X6535Y616D01*
X6556Y578D01*
X6569D01*
X6591Y616D01*
X6612Y578D01*
X6625D01*
X6647Y616D01*
Y1154D01*
X6625Y1197D02*
X6647Y1154D01*
X6612Y1197D02*
X6625D01*
X6591Y1159D02*
X6612Y1197D01*
X6569D02*
X6591Y1159D01*
X6556Y1197D02*
X6569D01*
X6535Y1159D02*
X6556Y1197D01*
X6513D02*
X6535Y1159D01*
X6500Y1197D02*
X6513D01*
X6479Y1159D02*
X6500Y1197D01*
X6457D02*
X6479Y1159D01*
X6444Y1197D02*
X6457D01*
X6422Y1159D02*
X6444Y1197D01*
X6401D02*
X6422Y1159D01*
X6388Y1197D02*
X6401D01*
X6367Y1159D02*
X6388Y1197D01*
X6345D02*
X6367Y1159D01*
X6332Y1197D02*
X6345D01*
X6310Y1159D02*
X6332Y1197D01*
X6289D02*
X6310Y1159D01*
X6276Y1197D02*
X6289D01*
X6254Y1159D02*
X6276Y1197D01*
X6254Y616D02*
Y1159D01*
X6217Y1133D02*
X6254Y1154D01*
X6217Y643D02*
Y1133D01*
X5930Y643D02*
X6217D01*
X6647Y621D02*
X6718D01*
Y1154D01*
X6647D02*
X6718D01*
X5930Y1133D02*
X6217D01*
X6276Y578D02*
X6332Y1197D01*
X6289Y578D02*
X6345Y1197D01*
X6310Y616D02*
X6367Y1159D01*
X6254Y616D02*
X6310Y1159D01*
X6254Y621D02*
X6276Y1197D01*
X6254Y616D02*
X6289Y1197D01*
X6332Y578D02*
X6388Y1197D01*
X6345Y578D02*
X6401Y1197D01*
X6367Y616D02*
X6422Y1159D01*
X6388Y578D02*
X6444Y1197D01*
X6401Y578D02*
X6457Y1197D01*
X6422Y616D02*
X6479Y1159D01*
X6444Y578D02*
X6500Y1197D01*
X6457Y578D02*
X6513Y1197D01*
X6479Y616D02*
X6535Y1159D01*
X6500Y578D02*
X6556Y1197D01*
X6513Y578D02*
X6569Y1197D01*
X6535Y616D02*
X6591Y1159D01*
X6556Y578D02*
X6612Y1197D01*
X6569Y578D02*
X6625Y1197D01*
X6591Y616D02*
X6647Y1154D01*
X6612Y578D02*
X6647Y1154D01*
X6625Y578D02*
X6647Y1154D01*
X5765Y538D02*
X5930D01*
X5765Y1238D02*
X5930D01*
X5765Y1001D02*
Y1238D01*
X930Y2413D02*
X980D01*
Y1743D02*
Y2413D01*
X930Y1743D02*
X980D01*
X1199Y1070D02*
Y1080D01*
X1451Y1070D02*
Y1080D01*
X1745Y1470D02*
X1825D01*
Y1370D02*
Y1470D01*
X1525D02*
X1605D01*
X1525Y1370D02*
Y1470D01*
X145Y1630D02*
X245D01*
Y1580D01*
X228Y1563D01*
X195D01*
X178Y1580D01*
Y1630D01*
Y1597D02*
X145Y1563D01*
X245Y1463D02*
Y1530D01*
X195D01*
Y1497D01*
Y1530D01*
X145D01*
X5495Y1705D02*
X5562D01*
X5595Y1672D01*
X5562Y1638D01*
X5495D01*
X5545D01*
Y1705D01*
X5495Y1605D02*
X5595D01*
X5495Y1538D01*
X5595D01*
Y1505D02*
Y1438D01*
Y1472D01*
X5495D01*
X2295Y212D02*
X2328Y145D01*
X2362Y212D01*
X2445Y145D02*
X2412D01*
X2395Y162D01*
Y195D01*
X2412Y212D01*
X2445D01*
X2462Y195D01*
Y178D01*
X2395D01*
X2495Y212D02*
Y145D01*
Y178D01*
X2512Y195D01*
X2528Y212D01*
X2545D01*
X2595Y145D02*
Y162D01*
X2612D01*
Y145D01*
X2595D01*
X2845D02*
X2778D01*
X2845Y212D01*
Y228D01*
X2828Y245D01*
X2795D01*
X2778Y228D01*
X2945Y245D02*
X2911Y228D01*
X2878Y195D01*
Y162D01*
X2895Y145D01*
X2928D01*
X2945Y162D01*
Y178D01*
X2928Y195D01*
X2878D01*
X2978Y145D02*
Y162D01*
X2995D01*
Y145D01*
X2978D01*
X3061Y228D02*
X3078Y245D01*
X3111D01*
X3128Y228D01*
Y162D01*
X3111Y145D01*
X3078D01*
X3061Y162D01*
Y228D01*
X3161Y145D02*
X3195D01*
X3178D01*
Y245D01*
X3161Y228D01*
X3378Y145D02*
X3345Y178D01*
Y212D01*
X3378Y245D01*
X3495Y212D02*
X3445D01*
X3428Y195D01*
Y162D01*
X3445Y145D01*
X3495D01*
X3528D02*
X3561Y178D01*
Y212D01*
X3528Y245D01*
X3778Y228D02*
X3761Y245D01*
X3728D01*
X3711Y228D01*
Y162D01*
X3728Y145D01*
X3761D01*
X3778Y162D01*
Y195D01*
X3745D01*
X3811Y245D02*
Y145D01*
X3861D01*
X3878Y162D01*
Y178D01*
X3861Y195D01*
X3811D01*
X3861D01*
X3878Y212D01*
Y228D01*
X3861Y245D01*
X3811D01*
X3911D02*
Y145D01*
X3978D01*
X4178D02*
X4111D01*
X4178Y212D01*
Y228D01*
X4161Y245D01*
X4128D01*
X4111Y228D01*
X4211D02*
X4228Y245D01*
X4261D01*
X4278Y228D01*
Y162D01*
X4261Y145D01*
X4228D01*
X4211Y162D01*
Y228D01*
X4378Y145D02*
X4311D01*
X4378Y212D01*
Y228D01*
X4361Y245D01*
X4328D01*
X4311Y228D01*
X4478Y245D02*
X4444Y228D01*
X4411Y195D01*
Y162D01*
X4428Y145D01*
X4461D01*
X4478Y162D01*
Y178D01*
X4461Y195D01*
X4411D01*
X2120Y2445D02*
Y2345D01*
X2170D01*
X2187Y2362D01*
Y2378D01*
X2170Y2395D01*
X2120D01*
X2170D01*
X2187Y2412D01*
Y2428D01*
X2170Y2445D01*
X2120D01*
X2220D02*
X2253D01*
X2237D01*
Y2345D01*
X2220D01*
X2253D01*
X2303Y2445D02*
Y2345D01*
X2353D01*
X2370Y2362D01*
Y2428D01*
X2353Y2445D01*
X2303D01*
X2403D02*
X2437D01*
X2420D01*
Y2345D01*
X2403D01*
X2437D01*
X2487D02*
Y2445D01*
X2537D01*
X2553Y2428D01*
Y2395D01*
X2537Y2378D01*
X2487D01*
X2520D02*
X2553Y2345D01*
X2653Y2445D02*
X2587D01*
Y2345D01*
X2653D01*
X2587Y2395D02*
X2620D01*
X2753Y2428D02*
X2736Y2445D01*
X2703D01*
X2686Y2428D01*
Y2362D01*
X2703Y2345D01*
X2736D01*
X2753Y2362D01*
X2786Y2445D02*
X2853D01*
X2820D01*
Y2345D01*
X2886Y2445D02*
X2920D01*
X2903D01*
Y2345D01*
X2886D01*
X2920D01*
X3020Y2445D02*
X2986D01*
X2970Y2428D01*
Y2362D01*
X2986Y2345D01*
X3020D01*
X3036Y2362D01*
Y2428D01*
X3020Y2445D01*
X3070Y2345D02*
Y2445D01*
X3136Y2345D01*
Y2445D01*
X3170Y2345D02*
Y2412D01*
X3203Y2445D01*
X3236Y2412D01*
Y2345D01*
Y2395D01*
X3170D01*
X3270Y2445D02*
Y2345D01*
X3336D01*
X3470D02*
Y2412D01*
X3503Y2445D01*
X3536Y2412D01*
Y2345D01*
Y2395D01*
X3470D01*
X3570Y2345D02*
Y2445D01*
X3636Y2345D01*
Y2445D01*
X3670D02*
X3736D01*
X3703D01*
Y2345D01*
X3836Y2445D02*
X3769D01*
Y2345D01*
X3836D01*
X3769Y2395D02*
X3803D01*
X3869Y2345D02*
Y2445D01*
X3936Y2345D01*
Y2445D01*
X3969Y2345D02*
Y2445D01*
X4036Y2345D01*
Y2445D01*
X4069Y2345D02*
Y2412D01*
X4103Y2445D01*
X4136Y2412D01*
Y2345D01*
Y2395D01*
X4069D01*
X4269Y2345D02*
Y2412D01*
X4303Y2445D01*
X4336Y2412D01*
Y2345D01*
Y2395D01*
X4269D01*
X4369Y2345D02*
Y2445D01*
X4403Y2412D01*
X4436Y2445D01*
Y2345D01*
X4469D02*
Y2445D01*
X4519D01*
X4536Y2428D01*
Y2395D01*
X4519Y2378D01*
X4469D01*
X4569Y2445D02*
Y2345D01*
X4636D01*
X4669Y2445D02*
X4703D01*
X4686D01*
Y2345D01*
X4669D01*
X4703D01*
X4819Y2445D02*
X4752D01*
Y2395D01*
X4786D01*
X4752D01*
Y2345D01*
X4852Y2445D02*
X4886D01*
X4869D01*
Y2345D01*
X4852D01*
X4886D01*
X5002Y2445D02*
X4936D01*
Y2345D01*
X5002D01*
X4936Y2395D02*
X4969D01*
X5036Y2345D02*
Y2445D01*
X5086D01*
X5102Y2428D01*
Y2395D01*
X5086Y2378D01*
X5036D01*
X5069D02*
X5102Y2345D01*
D12*
X4888Y2002D02*
Y2212D01*
X2112D02*
X4888D01*
X2112Y2062D02*
Y2212D01*
X4888Y388D02*
Y597D01*
X2112Y388D02*
X4888D01*
X2112D02*
Y640D01*
D13*
X1960Y2339D02*
Y2370D01*
X1340D02*
X1960D01*
X1340Y2030D02*
Y2061D01*
Y2030D02*
X1960D01*
Y2061D01*
X1340Y2339D02*
Y2370D01*
X490Y1355D02*
Y1386D01*
Y1355D02*
X1110D01*
Y1664D02*
Y1695D01*
X490D02*
X1110D01*
X490Y1664D02*
Y1695D01*
X1110Y1355D02*
Y1386D01*
X4008Y758D02*
X3992Y775D01*
X3958D01*
X3942Y758D01*
Y692D01*
X3958Y675D01*
X3992D01*
X4008Y692D01*
X4108Y675D02*
X4042D01*
X4108Y742D01*
Y758D01*
X4092Y775D01*
X4058D01*
X4042Y758D01*
X5108Y783D02*
X5092Y800D01*
X5058D01*
X5042Y783D01*
Y717D01*
X5058Y700D01*
X5092D01*
X5108Y717D01*
X5142D02*
X5158Y700D01*
X5192D01*
X5208Y717D01*
Y783D01*
X5192Y800D01*
X5158D01*
X5142Y783D01*
Y767D01*
X5158Y750D01*
X5208D01*
X1333Y1433D02*
X1317Y1450D01*
X1283D01*
X1267Y1433D01*
Y1367D01*
X1283Y1350D01*
X1317D01*
X1333Y1367D01*
X1433Y1450D02*
X1367D01*
Y1400D01*
X1400Y1417D01*
X1417D01*
X1433Y1400D01*
Y1367D01*
X1417Y1350D01*
X1383D01*
X1367Y1367D01*
X1283Y1775D02*
Y1875D01*
X1333D01*
X1350Y1858D01*
Y1825D01*
X1333Y1808D01*
X1283D01*
X1317D02*
X1350Y1775D01*
X1383D02*
X1417D01*
X1400D01*
Y1875D01*
X1383Y1858D01*
X675Y750D02*
X642D01*
X658D01*
Y667D01*
X642Y650D01*
X625D01*
X608Y667D01*
X708Y650D02*
Y750D01*
X758D01*
X775Y733D01*
Y700D01*
X758Y683D01*
X708D01*
X808Y650D02*
X842D01*
X825D01*
Y750D01*
X808Y733D01*
X5083Y1400D02*
X5050D01*
X5067D01*
Y1317D01*
X5050Y1300D01*
X5033D01*
X5017Y1317D01*
X5117Y1300D02*
Y1400D01*
X5167D01*
X5183Y1383D01*
Y1350D01*
X5167Y1333D01*
X5117D01*
X5283Y1300D02*
X5217D01*
X5283Y1367D01*
Y1383D01*
X5267Y1400D01*
X5233D01*
X5217Y1383D01*
X4958Y2100D02*
Y2200D01*
X4992Y2167D01*
X5025Y2200D01*
Y2100D01*
X5058D02*
X5092D01*
X5075D01*
Y2200D01*
X5058Y2183D01*
X1883Y1708D02*
X1867Y1725D01*
X1833D01*
X1817Y1708D01*
Y1642D01*
X1833Y1625D01*
X1867D01*
X1883Y1642D01*
X1983Y1725D02*
X1950Y1708D01*
X1917Y1675D01*
Y1642D01*
X1933Y1625D01*
X1967D01*
X1983Y1642D01*
Y1658D01*
X1967Y1675D01*
X1917D01*
X1458Y1983D02*
X1442Y2000D01*
X1408D01*
X1392Y1983D01*
Y1917D01*
X1408Y1900D01*
X1442D01*
X1458Y1917D01*
X1492Y1983D02*
X1508Y2000D01*
X1542D01*
X1558Y1983D01*
Y1967D01*
X1542Y1950D01*
X1558Y1933D01*
Y1917D01*
X1542Y1900D01*
X1508D01*
X1492Y1917D01*
Y1933D01*
X1508Y1950D01*
X1492Y1967D01*
Y1983D01*
X1508Y1950D02*
X1542D01*
X1008Y2125D02*
Y2042D01*
X1025Y2025D01*
X1058D01*
X1075Y2042D01*
Y2125D01*
X1108Y2025D02*
X1142D01*
X1125D01*
Y2125D01*
X1108Y2108D01*
X683Y1308D02*
X667Y1325D01*
X633D01*
X617Y1308D01*
Y1242D01*
X633Y1225D01*
X667D01*
X683Y1242D01*
X717Y1308D02*
X733Y1325D01*
X767D01*
X783Y1308D01*
Y1292D01*
X767Y1275D01*
X750D01*
X767D01*
X783Y1258D01*
Y1242D01*
X767Y1225D01*
X733D01*
X717Y1242D01*
X975Y1108D02*
X958Y1125D01*
X925D01*
X908Y1108D01*
Y1042D01*
X925Y1025D01*
X958D01*
X975Y1042D01*
X1008Y1025D02*
X1042D01*
X1025D01*
Y1125D01*
X1008Y1108D01*
X1258Y800D02*
Y700D01*
X1325D01*
X1358D02*
X1392D01*
X1375D01*
Y800D01*
X1358Y783D01*
X1833Y858D02*
X1817Y875D01*
X1783D01*
X1767Y858D01*
Y792D01*
X1783Y775D01*
X1817D01*
X1833Y792D01*
X1917Y775D02*
Y875D01*
X1867Y825D01*
X1933D01*
X1608Y1700D02*
Y1600D01*
X1658D01*
X1675Y1617D01*
Y1683D01*
X1658Y1700D01*
X1608D01*
X1708Y1600D02*
X1742D01*
X1725D01*
Y1700D01*
X1708Y1683D01*
D14*
X2675Y2575D02*
Y2709D01*
X2742Y2775D01*
X2809Y2709D01*
Y2575D01*
Y2675D01*
X2675D01*
X2875Y2575D02*
Y2775D01*
X2942Y2709D01*
X3009Y2775D01*
Y2575D01*
X3075D02*
Y2775D01*
X3175D01*
X3209Y2742D01*
Y2675D01*
X3175Y2642D01*
X3075D01*
X3275Y2675D02*
X3408D01*
X3475Y2742D02*
X3508Y2775D01*
X3575D01*
X3608Y2742D01*
Y2709D01*
X3575Y2675D01*
X3542D01*
X3575D01*
X3608Y2642D01*
Y2609D01*
X3575Y2575D01*
X3508D01*
X3475Y2609D01*
X3675Y2742D02*
X3708Y2775D01*
X3775D01*
X3808Y2742D01*
Y2609D01*
X3775Y2575D01*
X3708D01*
X3675Y2609D01*
Y2742D01*
X3875Y2675D02*
X4008D01*
X4075Y2575D02*
X4142D01*
X4108D01*
Y2775D01*
X4075Y2742D01*
X4375Y2775D02*
X4242D01*
Y2675D01*
X4308Y2709D01*
X4342D01*
X4375Y2675D01*
Y2609D01*
X4342Y2575D01*
X4275D01*
X4242Y2609D01*
M02*
