M48
;Layer_Color=9474304
;FILE_FORMAT=4:2
METRIC,LZ
;TYPE=PLATED
T1F00S00C0.30
T2F00S00C2.60
%
T01
X001755Y001401
X00175Y001975
X002275Y0012
X001655Y001126
X001498Y001523
X001343Y00177
X000805Y001776
X000675Y001775
X00055
X00043Y001776
X000305
Y001926
X00043
X000555
X00068
X000805
Y002076
X00068
X000555
X00043
X000305
Y002226
X00043
X00055Y002225
X00068Y002226
X000805
Y002376
X00068
X00055Y002375
X000425
X000305Y002376
X0008Y0012
T02
X0003Y0003
X0055
Y0027
X0003
M30
