G04*
G04 #@! TF.GenerationSoftware,Altium Limited,Altium Designer,23.0.1 (38)*
G04*
G04 Layer_Color=32896*
%FSLAX42Y42*%
%MOMM*%
G71*
G04*
G04 #@! TF.SameCoordinates,11CD51D0-70BF-4863-A242-58D7B7C6D63D*
G04*
G04*
G04 #@! TF.FilePolarity,Positive*
G04*
G01*
G75*
%ADD10C,0.25*%
%ADD11C,0.20*%
%ADD13C,0.12*%
%ADD47C,0.60*%
G36*
X3565Y2736D02*
X3572D01*
Y2734D01*
X3582D01*
Y2733D01*
X3586D01*
Y2731D01*
X3610D01*
Y2729D01*
X3619D01*
Y2727D01*
X3621D01*
Y2725D01*
X3627D01*
Y2723D01*
X3631D01*
Y2721D01*
X3634D01*
Y2719D01*
X3636D01*
Y2717D01*
X3642D01*
Y2716D01*
X3644D01*
Y2714D01*
X3649D01*
Y2712D01*
X3655D01*
Y2710D01*
X3662D01*
Y2708D01*
X3679D01*
Y2706D01*
X3683D01*
Y2704D01*
X3689D01*
Y2702D01*
X3694D01*
Y2699D01*
X3702D01*
Y2697D01*
X3704D01*
Y2691D01*
X3708D01*
Y2689D01*
X3709D01*
Y2688D01*
X3713D01*
Y2686D01*
X3717D01*
Y2684D01*
X3721D01*
Y2682D01*
X3732D01*
Y2680D01*
X3738D01*
Y2678D01*
X3743D01*
Y2676D01*
X3745D01*
Y2674D01*
X3747D01*
Y2673D01*
X3753D01*
Y2671D01*
X3754D01*
Y2667D01*
X3762D01*
Y2665D01*
X3764D01*
Y2661D01*
X3766D01*
Y2659D01*
X3767D01*
Y2658D01*
X3769D01*
Y2656D01*
X3771D01*
Y2654D01*
X3773D01*
Y2652D01*
X3775D01*
Y2650D01*
X3777D01*
Y2648D01*
X3781D01*
Y2646D01*
X3783D01*
Y2644D01*
X3784D01*
Y2642D01*
X3788D01*
Y2639D01*
X3790D01*
Y2637D01*
X3792D01*
Y2635D01*
X3794D01*
Y2633D01*
X3796D01*
Y2631D01*
X3797D01*
Y2627D01*
X3799D01*
Y2626D01*
X3801D01*
Y2622D01*
X3803D01*
Y2620D01*
X3805D01*
Y2616D01*
X3807D01*
Y2614D01*
X3809D01*
Y2612D01*
X3811D01*
Y2609D01*
X3812D01*
Y2607D01*
X3814D01*
Y2601D01*
X3816D01*
Y2598D01*
X3818D01*
Y2590D01*
X3820D01*
Y2583D01*
X3822D01*
Y2581D01*
X3824D01*
Y2569D01*
X3826D01*
Y2564D01*
X3828D01*
Y2558D01*
X3829D01*
Y2551D01*
X3831D01*
Y2547D01*
X3833D01*
Y2545D01*
X3835D01*
Y2539D01*
X3837D01*
Y2534D01*
X3839D01*
Y2530D01*
X3841D01*
Y2519D01*
X3842D01*
Y2511D01*
X3844D01*
Y2436D01*
X3846D01*
Y2423D01*
X3848D01*
Y2389D01*
X3850D01*
Y2373D01*
X3852D01*
Y2371D01*
X3854D01*
Y2352D01*
X3858D01*
Y2337D01*
X3865D01*
Y2326D01*
X3861D01*
Y2311D01*
X3863D01*
Y2307D01*
X3865D01*
Y2290D01*
X3869D01*
Y2288D01*
X3865D01*
Y2286D01*
X3863D01*
Y2288D01*
X3861D01*
Y2292D01*
X3859D01*
Y2296D01*
X3858D01*
Y2301D01*
X3856D01*
Y2305D01*
X3846D01*
Y2303D01*
X3844D01*
Y2301D01*
X3846D01*
Y2298D01*
X3848D01*
Y2294D01*
X3850D01*
Y2288D01*
X3852D01*
Y2286D01*
X3856D01*
Y2284D01*
X3861D01*
Y2273D01*
X3863D01*
Y2271D01*
X3865D01*
Y2269D01*
X3869D01*
Y2267D01*
X3871D01*
Y2262D01*
X3872D01*
Y2260D01*
X3874D01*
Y2252D01*
X3876D01*
Y2251D01*
X3880D01*
Y2249D01*
X3882D01*
Y2247D01*
X3884D01*
Y2243D01*
X3886D01*
Y2238D01*
X3888D01*
Y2234D01*
X3889D01*
Y2232D01*
X3891D01*
Y2230D01*
X3893D01*
Y2228D01*
X3895D01*
Y2224D01*
X3897D01*
Y2219D01*
X3899D01*
Y2208D01*
X3901D01*
Y2198D01*
X3903D01*
Y2196D01*
X3904D01*
Y2191D01*
X3908D01*
Y2189D01*
X3912D01*
Y2187D01*
X3914D01*
Y2183D01*
X3916D01*
Y2181D01*
X3917D01*
Y2177D01*
X3919D01*
Y2176D01*
X3921D01*
Y2168D01*
X3923D01*
Y2162D01*
X3925D01*
Y2159D01*
X3927D01*
Y2157D01*
X3929D01*
Y2149D01*
X3933D01*
Y2142D01*
X3934D01*
Y2134D01*
X3936D01*
Y2133D01*
X3938D01*
Y2129D01*
X3940D01*
Y2121D01*
X3942D01*
Y2119D01*
X3944D01*
Y2114D01*
X3946D01*
Y2108D01*
X3947D01*
Y2101D01*
X3951D01*
Y2091D01*
X3953D01*
Y2088D01*
X3955D01*
Y2086D01*
X3957D01*
Y2076D01*
X3959D01*
Y2073D01*
X3961D01*
Y2071D01*
X3962D01*
Y2067D01*
X3964D01*
Y2058D01*
X3968D01*
Y2048D01*
X3970D01*
Y2041D01*
X3972D01*
Y2035D01*
X3974D01*
Y2033D01*
X3976D01*
Y2027D01*
X3978D01*
Y2022D01*
X3979D01*
Y2018D01*
X3981D01*
Y2011D01*
X3983D01*
Y2009D01*
X3985D01*
Y2007D01*
X3987D01*
Y1996D01*
X3989D01*
Y1992D01*
X3991D01*
Y1986D01*
X3992D01*
Y1983D01*
X3994D01*
Y1973D01*
X3996D01*
Y1969D01*
X3998D01*
Y1966D01*
X4000D01*
Y1962D01*
X4002D01*
Y1939D01*
X4006D01*
Y1938D01*
X4008D01*
Y1936D01*
X4009D01*
Y1930D01*
X4011D01*
Y1926D01*
X4013D01*
Y1923D01*
X4015D01*
Y1917D01*
X4017D01*
Y1913D01*
X4019D01*
Y1906D01*
X4021D01*
Y1902D01*
X4022D01*
Y1900D01*
X4024D01*
Y1898D01*
X4026D01*
Y1889D01*
X4030D01*
Y1883D01*
X4032D01*
Y1859D01*
X4034D01*
Y1855D01*
X4038D01*
Y1853D01*
X4039D01*
Y1851D01*
X4041D01*
Y1848D01*
X4043D01*
Y1846D01*
X4045D01*
Y1842D01*
X4047D01*
Y1840D01*
X4049D01*
Y1836D01*
X4051D01*
Y1833D01*
X4053D01*
Y1825D01*
X4054D01*
Y1817D01*
X4056D01*
Y1816D01*
X4058D01*
Y1810D01*
X4060D01*
Y1801D01*
X4064D01*
Y1789D01*
X4066D01*
Y1786D01*
X4069D01*
Y1782D01*
X4071D01*
Y1778D01*
X4073D01*
Y1774D01*
X4075D01*
Y1771D01*
X4073D01*
Y1767D01*
X4071D01*
Y1765D01*
X4060D01*
Y1763D01*
X4056D01*
Y1761D01*
X4049D01*
Y1759D01*
X4041D01*
Y1758D01*
X4019D01*
Y1756D01*
X4006D01*
Y1754D01*
X3998D01*
Y1752D01*
X3996D01*
Y1750D01*
X3976D01*
Y1748D01*
X3933D01*
Y1746D01*
X3925D01*
Y1744D01*
X3921D01*
Y1741D01*
X3917D01*
Y1739D01*
X3916D01*
Y1735D01*
X3912D01*
Y1720D01*
X3910D01*
Y1712D01*
X3908D01*
Y1709D01*
X3906D01*
Y1694D01*
X3908D01*
Y1667D01*
X3910D01*
Y1664D01*
X3912D01*
Y1660D01*
X3914D01*
Y1656D01*
X3916D01*
Y1651D01*
X3917D01*
Y1645D01*
X3919D01*
Y1638D01*
X3921D01*
Y1636D01*
X3923D01*
Y1630D01*
X3925D01*
Y1626D01*
X3927D01*
Y1623D01*
X3929D01*
Y1617D01*
X3931D01*
Y1608D01*
X3933D01*
Y1606D01*
X3934D01*
Y1598D01*
X3936D01*
Y1591D01*
X3938D01*
Y1589D01*
X3940D01*
Y1583D01*
X3942D01*
Y1579D01*
X3944D01*
Y1577D01*
X3946D01*
Y1574D01*
X3947D01*
Y1572D01*
X3014D01*
Y1587D01*
X3016D01*
Y1626D01*
X3014D01*
Y1667D01*
X3008D01*
Y1686D01*
X3006D01*
Y1696D01*
X3004D01*
Y1699D01*
X3002D01*
Y1701D01*
X3001D01*
Y1703D01*
X2999D01*
Y1705D01*
X2995D01*
Y1707D01*
X2986D01*
Y1709D01*
X2984D01*
Y1711D01*
X2978D01*
Y1712D01*
X2976D01*
Y1716D01*
X2974D01*
Y1718D01*
X2971D01*
Y1720D01*
X2969D01*
Y1722D01*
X2967D01*
Y1726D01*
X2965D01*
Y1735D01*
X2963D01*
Y1759D01*
X2965D01*
Y1782D01*
X2967D01*
Y1786D01*
X2969D01*
Y1789D01*
X2971D01*
Y1797D01*
X2973D01*
Y1804D01*
X2974D01*
Y1814D01*
X2976D01*
Y1825D01*
X2978D01*
Y1840D01*
X2980D01*
Y1848D01*
X2982D01*
Y1851D01*
X2984D01*
Y1859D01*
X2986D01*
Y1868D01*
X2988D01*
Y1877D01*
X2989D01*
Y1889D01*
X2991D01*
Y1894D01*
X2993D01*
Y1900D01*
X2995D01*
Y1904D01*
X2997D01*
Y1909D01*
X2999D01*
Y1917D01*
X3001D01*
Y1926D01*
X3002D01*
Y1932D01*
X3004D01*
Y1938D01*
X3006D01*
Y1941D01*
X3008D01*
Y1947D01*
X3010D01*
Y1952D01*
X3012D01*
Y1960D01*
X3014D01*
Y1967D01*
X3016D01*
Y1973D01*
X3017D01*
Y1979D01*
X3019D01*
Y1984D01*
X3021D01*
Y1988D01*
X3023D01*
Y1998D01*
X3025D01*
Y2003D01*
X3027D01*
Y2007D01*
X3029D01*
Y2011D01*
X3031D01*
Y2012D01*
X3033D01*
Y2020D01*
X3034D01*
Y2024D01*
X3036D01*
Y2026D01*
X3038D01*
Y2035D01*
X3040D01*
Y2044D01*
X3042D01*
Y2048D01*
X3044D01*
Y2056D01*
X3046D01*
Y2061D01*
X3048D01*
Y2067D01*
X3049D01*
Y2073D01*
X3051D01*
Y2078D01*
X3053D01*
Y2084D01*
X3055D01*
Y2088D01*
X3057D01*
Y2091D01*
X3059D01*
Y2097D01*
X3061D01*
Y2102D01*
X3062D01*
Y2106D01*
X3064D01*
Y2114D01*
X3066D01*
Y2116D01*
X3068D01*
Y2119D01*
X3070D01*
Y2127D01*
X3072D01*
Y2131D01*
X3074D01*
Y2134D01*
X3076D01*
Y2142D01*
X3077D01*
Y2146D01*
X3081D01*
Y2149D01*
X3083D01*
Y2155D01*
X3085D01*
Y2157D01*
X3087D01*
Y2161D01*
X3089D01*
Y2164D01*
X3092D01*
Y2170D01*
X3094D01*
Y2174D01*
X3096D01*
Y2176D01*
X3098D01*
Y2177D01*
X3100D01*
Y2187D01*
X3104D01*
Y2192D01*
X3106D01*
Y2198D01*
X3108D01*
Y2209D01*
X3109D01*
Y2211D01*
X3111D01*
Y2217D01*
X3113D01*
Y2223D01*
X3117D01*
Y2228D01*
X3119D01*
Y2232D01*
X3121D01*
Y2238D01*
X3123D01*
Y2239D01*
X3124D01*
Y2243D01*
X3126D01*
Y2245D01*
X3128D01*
Y2247D01*
X3130D01*
Y2249D01*
X3132D01*
Y2251D01*
X3134D01*
Y2256D01*
X3136D01*
Y2258D01*
X3138D01*
Y2260D01*
X3139D01*
Y2262D01*
X3143D01*
Y2266D01*
X3145D01*
Y2269D01*
X3147D01*
Y2271D01*
X3149D01*
Y2273D01*
X3151D01*
Y2277D01*
X3154D01*
Y2281D01*
X3156D01*
Y2283D01*
X3158D01*
Y2286D01*
X3160D01*
Y2288D01*
X3162D01*
Y2290D01*
X3164D01*
Y2292D01*
X3166D01*
Y2294D01*
X3167D01*
Y2296D01*
X3169D01*
Y2298D01*
X3171D01*
Y2299D01*
X3173D01*
Y2301D01*
X3175D01*
Y2305D01*
X3177D01*
Y2307D01*
X3181D01*
Y2311D01*
X3183D01*
Y2312D01*
X3184D01*
Y2314D01*
X3186D01*
Y2318D01*
X3188D01*
Y2320D01*
X3190D01*
Y2322D01*
X3192D01*
Y2326D01*
X3194D01*
Y2329D01*
X3196D01*
Y2333D01*
X3198D01*
Y2335D01*
X3199D01*
Y2339D01*
X3201D01*
Y2341D01*
X3203D01*
Y2342D01*
X3205D01*
Y2344D01*
X3207D01*
Y2346D01*
X3209D01*
Y2350D01*
X3211D01*
Y2354D01*
X3212D01*
Y2356D01*
X3214D01*
Y2358D01*
X3218D01*
Y2363D01*
X3220D01*
Y2371D01*
X3222D01*
Y2374D01*
X3224D01*
Y2378D01*
X3226D01*
Y2382D01*
X3229D01*
Y2393D01*
X3226D01*
Y2391D01*
X3224D01*
Y2389D01*
X3222D01*
Y2388D01*
X3220D01*
Y2386D01*
X3216D01*
Y2384D01*
X3214D01*
Y2382D01*
X3211D01*
Y2380D01*
X3209D01*
Y2378D01*
X3205D01*
Y2376D01*
X3203D01*
Y2374D01*
X3201D01*
Y2371D01*
X3199D01*
Y2369D01*
X3198D01*
Y2367D01*
X3196D01*
Y2365D01*
X3192D01*
Y2363D01*
X3190D01*
Y2361D01*
X3188D01*
Y2358D01*
X3186D01*
Y2356D01*
X3184D01*
Y2354D01*
X3183D01*
Y2352D01*
X3179D01*
Y2350D01*
X3177D01*
Y2348D01*
X3175D01*
Y2346D01*
X3173D01*
Y2342D01*
X3169D01*
Y2339D01*
X3167D01*
Y2337D01*
X3166D01*
Y2335D01*
X3164D01*
Y2333D01*
X3162D01*
Y2331D01*
X3160D01*
Y2329D01*
X3158D01*
Y2326D01*
X3156D01*
Y2324D01*
X3154D01*
Y2320D01*
X3152D01*
Y2318D01*
X3151D01*
Y2316D01*
X3149D01*
Y2312D01*
X3147D01*
Y2311D01*
X3145D01*
Y2309D01*
X3143D01*
Y2303D01*
X3141D01*
Y2299D01*
X3139D01*
Y2298D01*
X3138D01*
Y2296D01*
X3132D01*
Y2294D01*
X3134D01*
Y2292D01*
X3132D01*
Y2290D01*
X3130D01*
Y2305D01*
X3132D01*
Y2309D01*
X3134D01*
Y2322D01*
X3136D01*
Y2339D01*
X3132D01*
Y2358D01*
X3134D01*
Y2412D01*
X3136D01*
Y2417D01*
X3134D01*
Y2419D01*
X3136D01*
Y2423D01*
X3138D01*
Y2425D01*
X3136D01*
Y2429D01*
X3138D01*
Y2431D01*
X3136D01*
Y2433D01*
X3138D01*
Y2434D01*
X3139D01*
Y2436D01*
X3138D01*
Y2438D01*
X3139D01*
Y2440D01*
X3138D01*
Y2442D01*
X3139D01*
Y2444D01*
X3138D01*
Y2448D01*
X3139D01*
Y2455D01*
X3141D01*
Y2459D01*
X3143D01*
Y2466D01*
X3145D01*
Y2472D01*
X3147D01*
Y2476D01*
X3149D01*
Y2477D01*
X3147D01*
Y2479D01*
X3151D01*
Y2481D01*
X3152D01*
Y2485D01*
X3154D01*
Y2487D01*
X3156D01*
Y2491D01*
X3158D01*
Y2492D01*
X3160D01*
Y2494D01*
X3164D01*
Y2496D01*
X3166D01*
Y2498D01*
X3167D01*
Y2502D01*
X3169D01*
Y2511D01*
X3171D01*
Y2521D01*
X3173D01*
Y2538D01*
X3175D01*
Y2541D01*
X3177D01*
Y2545D01*
X3179D01*
Y2549D01*
X3177D01*
Y2547D01*
X3175D01*
Y2551D01*
X3179D01*
Y2552D01*
X3177D01*
Y2556D01*
X3179D01*
Y2554D01*
X3181D01*
Y2556D01*
X3179D01*
Y2560D01*
X3177D01*
Y2564D01*
X3179D01*
Y2562D01*
X3181D01*
Y2564D01*
X3179D01*
Y2566D01*
X3181D01*
Y2569D01*
X3183D01*
Y2571D01*
X3181D01*
Y2573D01*
X3183D01*
Y2575D01*
X3184D01*
Y2579D01*
X3183D01*
Y2581D01*
X3184D01*
Y2583D01*
X3183D01*
Y2584D01*
X3186D01*
Y2586D01*
X3188D01*
Y2588D01*
X3190D01*
Y2592D01*
X3192D01*
Y2596D01*
X3190D01*
Y2598D01*
X3188D01*
Y2601D01*
X3190D01*
Y2603D01*
X3192D01*
Y2605D01*
X3194D01*
Y2607D01*
X3196D01*
Y2609D01*
X3198D01*
Y2612D01*
X3199D01*
Y2616D01*
X3201D01*
Y2620D01*
X3203D01*
Y2626D01*
X3207D01*
Y2629D01*
X3209D01*
Y2633D01*
X3211D01*
Y2639D01*
X3212D01*
Y2642D01*
X3214D01*
Y2644D01*
X3216D01*
Y2648D01*
X3218D01*
Y2652D01*
X3220D01*
Y2656D01*
X3222D01*
Y2658D01*
X3224D01*
Y2659D01*
X3226D01*
Y2665D01*
X3228D01*
Y2667D01*
X3229D01*
Y2669D01*
X3233D01*
Y2671D01*
X3237D01*
Y2673D01*
X3241D01*
Y2674D01*
X3244D01*
Y2676D01*
X3248D01*
Y2678D01*
X3250D01*
Y2680D01*
X3252D01*
Y2682D01*
X3254D01*
Y2684D01*
X3258D01*
Y2686D01*
X3259D01*
Y2688D01*
X3267D01*
Y2689D01*
X3269D01*
Y2691D01*
X3272D01*
Y2693D01*
X3276D01*
Y2695D01*
X3286D01*
Y2697D01*
X3289D01*
Y2699D01*
X3291D01*
Y2701D01*
X3293D01*
Y2702D01*
X3295D01*
Y2704D01*
X3299D01*
Y2706D01*
X3303D01*
Y2710D01*
X3308D01*
Y2712D01*
X3312D01*
Y2714D01*
X3316D01*
Y2716D01*
X3321D01*
Y2717D01*
X3325D01*
Y2719D01*
X3329D01*
Y2721D01*
X3333D01*
Y2723D01*
X3344D01*
Y2725D01*
X3355D01*
Y2727D01*
X3357D01*
Y2729D01*
X3364D01*
Y2731D01*
X3368D01*
Y2733D01*
X3389D01*
Y2734D01*
X3413D01*
Y2736D01*
X3422D01*
Y2738D01*
X3471D01*
Y2740D01*
X3565D01*
Y2736D01*
D02*
G37*
G36*
X4886Y1057D02*
X4885Y1044D01*
X4286Y804D01*
X4275Y811D01*
Y987D01*
X2650D01*
Y1150D01*
X4275D01*
Y1338D01*
X4286Y1345D01*
X4886Y1057D01*
D02*
G37*
%LPC*%
G36*
X3451Y2642D02*
X3445D01*
Y2641D01*
X3443D01*
Y2639D01*
X3441D01*
Y2637D01*
X3439D01*
Y2633D01*
X3438D01*
Y2626D01*
X3439D01*
Y2622D01*
X3441D01*
Y2618D01*
X3443D01*
Y2609D01*
X3445D01*
Y2605D01*
X3449D01*
Y2607D01*
X3451D01*
Y2616D01*
X3453D01*
Y2622D01*
X3454D01*
Y2627D01*
X3456D01*
Y2633D01*
X3454D01*
Y2637D01*
X3453D01*
Y2639D01*
X3451D01*
Y2642D01*
D02*
G37*
G36*
X3486D02*
X3484D01*
Y2641D01*
X3481D01*
Y2639D01*
X3479D01*
Y2637D01*
X3477D01*
Y2635D01*
X3475D01*
Y2633D01*
X3473D01*
Y2620D01*
X3475D01*
Y2616D01*
X3477D01*
Y2612D01*
X3479D01*
Y2605D01*
X3481D01*
Y2584D01*
X3479D01*
Y2569D01*
X3477D01*
Y2554D01*
X3479D01*
Y2538D01*
X3481D01*
Y2523D01*
X3483D01*
Y2517D01*
X3490D01*
Y2519D01*
X3497D01*
Y2521D01*
X3499D01*
Y2524D01*
X3501D01*
Y2526D01*
X3503D01*
Y2532D01*
X3505D01*
Y2538D01*
X3507D01*
Y2562D01*
X3505D01*
Y2571D01*
X3503D01*
Y2579D01*
X3501D01*
Y2598D01*
X3499D01*
Y2622D01*
X3497D01*
Y2627D01*
X3496D01*
Y2631D01*
X3494D01*
Y2633D01*
X3492D01*
Y2635D01*
X3490D01*
Y2639D01*
X3488D01*
Y2641D01*
X3486D01*
Y2642D01*
D02*
G37*
G36*
X3548Y2384D02*
X3544D01*
Y2382D01*
X3539D01*
Y2380D01*
X3537D01*
Y2378D01*
X3529D01*
Y2376D01*
X3526D01*
Y2378D01*
X3522D01*
Y2374D01*
X3524D01*
Y2373D01*
X3526D01*
Y2371D01*
X3528D01*
Y2367D01*
X3529D01*
Y2359D01*
X3531D01*
Y2358D01*
X3533D01*
Y2356D01*
X3535D01*
Y2354D01*
X3541D01*
Y2352D01*
X3550D01*
Y2354D01*
X3552D01*
Y2356D01*
X3554D01*
Y2358D01*
X3556D01*
Y2361D01*
X3558D01*
Y2363D01*
X3559D01*
Y2365D01*
X3563D01*
Y2369D01*
X3565D01*
Y2373D01*
X3567D01*
Y2374D01*
X3565D01*
Y2376D01*
X3563D01*
Y2378D01*
X3561D01*
Y2380D01*
X3559D01*
Y2382D01*
X3548D01*
Y2384D01*
D02*
G37*
G36*
X3589Y2363D02*
X3580D01*
Y2359D01*
X3591D01*
Y2361D01*
X3589D01*
Y2363D01*
D02*
G37*
G36*
X3438Y2425D02*
X3422D01*
Y2423D01*
X3421D01*
Y2421D01*
X3419D01*
Y2419D01*
X3417D01*
Y2416D01*
X3415D01*
Y2414D01*
X3413D01*
Y2412D01*
X3411D01*
Y2408D01*
X3409D01*
Y2404D01*
X3408D01*
Y2402D01*
X3406D01*
Y2399D01*
X3404D01*
Y2393D01*
X3400D01*
Y2391D01*
X3398D01*
Y2389D01*
X3396D01*
Y2386D01*
X3394D01*
Y2382D01*
X3392D01*
Y2376D01*
X3391D01*
Y2371D01*
X3389D01*
Y2365D01*
X3387D01*
Y2358D01*
X3389D01*
Y2352D01*
X3391D01*
Y2350D01*
X3392D01*
Y2348D01*
X3398D01*
Y2346D01*
X3402D01*
Y2348D01*
X3406D01*
Y2350D01*
X3409D01*
Y2352D01*
X3411D01*
Y2354D01*
X3413D01*
Y2356D01*
X3415D01*
Y2358D01*
X3417D01*
Y2376D01*
X3415D01*
Y2378D01*
X3413D01*
Y2382D01*
X3411D01*
Y2384D01*
X3408D01*
Y2386D01*
X3406D01*
Y2389D01*
X3411D01*
Y2391D01*
X3413D01*
Y2393D01*
X3415D01*
Y2397D01*
X3417D01*
Y2402D01*
X3421D01*
Y2404D01*
X3424D01*
Y2406D01*
X3428D01*
Y2408D01*
X3432D01*
Y2410D01*
X3434D01*
Y2414D01*
X3436D01*
Y2417D01*
X3438D01*
Y2421D01*
X3439D01*
Y2423D01*
X3438D01*
Y2425D01*
D02*
G37*
G36*
X3841Y2318D02*
X3839D01*
Y2316D01*
X3837D01*
Y2311D01*
X3839D01*
Y2307D01*
X3842D01*
Y2311D01*
X3844D01*
Y2314D01*
X3842D01*
Y2316D01*
X3841D01*
Y2318D01*
D02*
G37*
G36*
X3681Y2331D02*
X3679D01*
Y2329D01*
X3664D01*
Y2327D01*
X3659D01*
Y2326D01*
X3657D01*
Y2322D01*
X3659D01*
Y2316D01*
X3661D01*
Y2311D01*
X3659D01*
Y2307D01*
X3655D01*
Y2305D01*
X3653D01*
Y2303D01*
X3649D01*
Y2301D01*
X3646D01*
Y2299D01*
X3642D01*
Y2301D01*
X3640D01*
Y2303D01*
X3638D01*
Y2305D01*
X3634D01*
Y2314D01*
X3633D01*
Y2316D01*
X3631D01*
Y2314D01*
X3629D01*
Y2312D01*
X3627D01*
Y2311D01*
X3625D01*
Y2309D01*
X3623D01*
Y2307D01*
X3621D01*
Y2305D01*
X3619D01*
Y2303D01*
X3617D01*
Y2301D01*
X3616D01*
Y2299D01*
X3614D01*
Y2286D01*
X3616D01*
Y2284D01*
X3617D01*
Y2283D01*
X3619D01*
Y2281D01*
X3623D01*
Y2279D01*
X3625D01*
Y2275D01*
X3629D01*
Y2273D01*
X3640D01*
Y2271D01*
X3644D01*
Y2273D01*
X3653D01*
Y2275D01*
X3659D01*
Y2277D01*
X3661D01*
Y2281D01*
X3664D01*
Y2283D01*
X3668D01*
Y2284D01*
X3670D01*
Y2286D01*
X3674D01*
Y2288D01*
X3676D01*
Y2292D01*
X3678D01*
Y2294D01*
X3679D01*
Y2296D01*
X3681D01*
Y2298D01*
X3683D01*
Y2305D01*
X3685D01*
Y2322D01*
X3687D01*
Y2324D01*
X3685D01*
Y2327D01*
X3683D01*
Y2329D01*
X3681D01*
Y2331D01*
D02*
G37*
G36*
X3136Y2299D02*
X3134D01*
Y2298D01*
X3136D01*
Y2299D01*
D02*
G37*
G36*
X3329Y2326D02*
X3323D01*
Y2322D01*
X3325D01*
Y2314D01*
X3323D01*
Y2311D01*
X3321D01*
Y2303D01*
X3317D01*
Y2301D01*
X3319D01*
Y2299D01*
X3321D01*
Y2296D01*
X3323D01*
Y2286D01*
X3327D01*
Y2284D01*
X3333D01*
Y2283D01*
X3336D01*
Y2281D01*
X3342D01*
Y2279D01*
X3346D01*
Y2277D01*
X3349D01*
Y2275D01*
X3361D01*
Y2277D01*
X3359D01*
Y2283D01*
X3357D01*
Y2284D01*
X3359D01*
Y2288D01*
X3353D01*
Y2290D01*
X3349D01*
Y2292D01*
X3346D01*
Y2296D01*
X3344D01*
Y2298D01*
X3342D01*
Y2301D01*
X3340D01*
Y2307D01*
X3338D01*
Y2309D01*
Y2312D01*
X3336D01*
Y2316D01*
X3334D01*
Y2314D01*
X3329D01*
Y2326D01*
D02*
G37*
G36*
X3475Y1911D02*
X3471D01*
Y1909D01*
X3469D01*
Y1908D01*
X3471D01*
Y1906D01*
X3475D01*
Y1908D01*
X3477D01*
Y1909D01*
X3475D01*
Y1911D01*
D02*
G37*
%LPD*%
D10*
X1362Y1190D02*
G03*
X1362Y1190I-12J0D01*
G01*
D11*
X1820Y1762D02*
X1830D01*
X1820Y1838D02*
X1830D01*
X1570Y1762D02*
X1580D01*
X1570Y1838D02*
X1580D01*
X1112Y1345D02*
Y1355D01*
X1188Y1345D02*
Y1355D01*
X1112Y1595D02*
Y1605D01*
X1188Y1595D02*
Y1605D01*
X2120Y1088D02*
X2130D01*
X2120Y1162D02*
X2130D01*
X2038Y1345D02*
Y1355D01*
X2112Y1345D02*
Y1355D01*
Y1695D02*
Y1705D01*
X2038Y1695D02*
Y1705D01*
X2420Y1230D02*
X2500D01*
Y1330D01*
X2200Y1230D02*
X2280D01*
X2200D02*
Y1330D01*
X1462Y1716D02*
X1783D01*
X1462Y1215D02*
X1783D01*
Y1716D01*
X1462Y1215D02*
Y1716D01*
X3997Y1345D02*
X4030Y1378D01*
Y1412D01*
X3997Y1445D01*
X3880Y1412D02*
X3930D01*
X3947Y1395D01*
Y1362D01*
X3930Y1345D01*
X3880D01*
X3847D02*
X3813Y1378D01*
Y1412D01*
X3847Y1445D01*
X3597Y1428D02*
X3613Y1445D01*
X3647D01*
X3663Y1428D01*
Y1362D01*
X3647Y1345D01*
X3613D01*
X3597Y1362D01*
Y1395D01*
X3630D01*
X3563Y1445D02*
Y1345D01*
X3513D01*
X3497Y1362D01*
Y1378D01*
X3513Y1395D01*
X3563D01*
X3513D01*
X3497Y1412D01*
Y1428D01*
X3513Y1445D01*
X3563D01*
X3464D02*
Y1345D01*
X3397D01*
X3197D02*
X3264D01*
X3197Y1412D01*
Y1428D01*
X3214Y1445D01*
X3247D01*
X3264Y1428D01*
X3164D02*
X3147Y1445D01*
X3114D01*
X3097Y1428D01*
Y1362D01*
X3114Y1345D01*
X3147D01*
X3164Y1362D01*
Y1428D01*
X2997Y1345D02*
X3064D01*
X2997Y1412D01*
Y1428D01*
X3014Y1445D01*
X3047D01*
X3064Y1428D01*
X2897Y1445D02*
X2930Y1428D01*
X2964Y1395D01*
Y1362D01*
X2947Y1345D01*
X2914D01*
X2897Y1362D01*
Y1378D01*
X2914Y1395D01*
X2964D01*
X2730Y403D02*
Y503D01*
X2680D01*
X2663Y487D01*
Y453D01*
X2680Y437D01*
X2730D01*
X2613Y403D02*
X2580D01*
X2563Y420D01*
Y453D01*
X2580Y470D01*
X2613D01*
X2630Y453D01*
Y420D01*
X2613Y403D01*
X2530Y470D02*
Y420D01*
X2513Y403D01*
X2497Y420D01*
X2480Y403D01*
X2463Y420D01*
Y470D01*
X2380Y403D02*
X2413D01*
X2430Y420D01*
Y453D01*
X2413Y470D01*
X2380D01*
X2363Y453D01*
Y437D01*
X2430D01*
X2330Y470D02*
Y403D01*
Y437D01*
X2313Y453D01*
X2297Y470D01*
X2280D01*
X2230D02*
X2214D01*
Y453D01*
X2230D01*
Y470D01*
Y420D02*
X2214D01*
Y403D01*
X2230D01*
Y420D01*
X2047Y503D02*
X1980D01*
Y487D01*
X2047Y420D01*
Y403D01*
X1947D02*
Y420D01*
X1930D01*
Y403D01*
X1947D01*
X1864D02*
Y420D01*
X1847D01*
Y403D01*
X1864D01*
X1780D02*
Y420D01*
X1764D01*
Y403D01*
X1780D01*
X1697D02*
X1664D01*
X1680D01*
Y503D01*
X1697Y487D01*
X1547Y403D02*
X1614D01*
X1547Y470D01*
Y487D01*
X1564Y503D01*
X1597D01*
X1614Y487D01*
X1514Y503D02*
Y437D01*
X1480Y403D01*
X1447Y437D01*
Y503D01*
X1397Y387D02*
X1380Y403D01*
Y420D01*
X1397D01*
Y403D01*
X1380D01*
X1397Y387D01*
X1414Y370D01*
X1214Y487D02*
X1197Y503D01*
X1164D01*
X1147Y487D01*
Y470D01*
X1164Y453D01*
X1147Y437D01*
Y420D01*
X1164Y403D01*
X1197D01*
X1214Y420D01*
Y437D01*
X1197Y453D01*
X1214Y470D01*
Y487D01*
X1197Y453D02*
X1164D01*
X1114Y487D02*
X1097Y503D01*
X1064D01*
X1047Y487D01*
Y420D01*
X1064Y403D01*
X1097D01*
X1114Y420D01*
Y487D01*
X1014D02*
X997Y503D01*
X964D01*
X947Y487D01*
Y420D01*
X964Y403D01*
X997D01*
X1014Y420D01*
Y487D01*
X914Y403D02*
Y470D01*
X897D01*
X881Y453D01*
Y403D01*
Y453D01*
X864Y470D01*
X847Y453D01*
Y403D01*
X814D02*
Y470D01*
X781Y503D01*
X747Y470D01*
Y403D01*
Y453D01*
X814D01*
X5030Y403D02*
Y503D01*
X4980D01*
X4963Y487D01*
Y453D01*
X4980Y437D01*
X5030D01*
X4997D02*
X4963Y403D01*
X4930Y503D02*
X4863Y403D01*
Y503D02*
X4930Y403D01*
X4697Y370D02*
X4680D01*
X4663Y387D01*
Y470D01*
X4713D01*
X4730Y453D01*
Y420D01*
X4713Y403D01*
X4663D01*
X4613Y470D02*
X4580D01*
X4563Y453D01*
Y403D01*
X4613D01*
X4630Y420D01*
X4613Y437D01*
X4563D01*
X4530Y403D02*
X4497D01*
X4513D01*
Y470D01*
X4530D01*
X4447Y403D02*
Y470D01*
X4397D01*
X4380Y453D01*
Y403D01*
X4347Y470D02*
X4330D01*
Y453D01*
X4347D01*
Y470D01*
Y420D02*
X4330D01*
Y403D01*
X4347D01*
Y420D01*
X4164Y403D02*
X4130D01*
X4147D01*
Y503D01*
X4164Y487D01*
X4014Y503D02*
X4080D01*
Y453D01*
X4047Y470D01*
X4030D01*
X4014Y453D01*
Y420D01*
X4030Y403D01*
X4064D01*
X4080Y420D01*
X3814Y503D02*
Y403D01*
X3864D01*
X3880Y420D01*
Y453D01*
X3864Y470D01*
X3814D01*
X3780Y503D02*
Y403D01*
X3730D01*
X3714Y420D01*
Y437D01*
X3730Y453D01*
X3780D01*
X3730D01*
X3714Y470D01*
Y487D01*
X3730Y503D01*
X3780D01*
X5030Y703D02*
X4963D01*
X4997D01*
Y603D01*
X4930Y703D02*
X4863Y603D01*
Y703D02*
X4930Y603D01*
X4730Y570D02*
Y670D01*
X4680D01*
X4663Y653D01*
Y620D01*
X4680Y603D01*
X4730D01*
X4613D02*
X4580D01*
X4563Y620D01*
Y653D01*
X4580Y670D01*
X4613D01*
X4630Y653D01*
Y620D01*
X4613Y603D01*
X4530Y670D02*
Y620D01*
X4513Y603D01*
X4497Y620D01*
X4480Y603D01*
X4464Y620D01*
Y670D01*
X4380Y603D02*
X4414D01*
X4430Y620D01*
Y653D01*
X4414Y670D01*
X4380D01*
X4364Y653D01*
Y637D01*
X4430D01*
X4330Y670D02*
Y603D01*
Y637D01*
X4314Y653D01*
X4297Y670D01*
X4280D01*
X4230D02*
X4214D01*
Y653D01*
X4230D01*
Y670D01*
Y620D02*
X4214D01*
Y603D01*
X4230D01*
Y620D01*
X4047Y687D02*
X4030Y703D01*
X3997D01*
X3980Y687D01*
Y670D01*
X3997Y653D01*
X4014D01*
X3997D01*
X3980Y637D01*
Y620D01*
X3997Y603D01*
X4030D01*
X4047Y620D01*
X3947Y687D02*
X3930Y703D01*
X3897D01*
X3880Y687D01*
Y620D01*
X3897Y603D01*
X3930D01*
X3947Y620D01*
Y687D01*
X3680Y703D02*
Y603D01*
X3730D01*
X3747Y620D01*
Y653D01*
X3730Y670D01*
X3680D01*
X3647Y703D02*
Y603D01*
X3597D01*
X3580Y620D01*
Y637D01*
X3597Y653D01*
X3647D01*
X3597D01*
X3580Y670D01*
Y687D01*
X3597Y703D01*
X3647D01*
X3547Y603D02*
Y670D01*
X3530D01*
X3514Y653D01*
Y603D01*
Y653D01*
X3497Y670D01*
X3481Y653D01*
Y603D01*
X2730Y703D02*
X2697D01*
X2713D01*
Y603D01*
X2730D01*
X2697D01*
X2647D02*
Y670D01*
X2597D01*
X2580Y653D01*
Y603D01*
X2547Y570D02*
Y670D01*
X2497D01*
X2480Y653D01*
Y620D01*
X2497Y603D01*
X2547D01*
X2447Y670D02*
Y620D01*
X2430Y603D01*
X2380D01*
Y670D01*
X2330Y687D02*
Y670D01*
X2347D01*
X2313D01*
X2330D01*
Y620D01*
X2313Y603D01*
X2263Y670D02*
X2247D01*
Y653D01*
X2263D01*
Y670D01*
Y620D02*
X2247D01*
Y603D01*
X2263D01*
Y620D01*
X2080Y603D02*
X2047D01*
X2064D01*
Y703D01*
X2080Y687D01*
X1930Y703D02*
X1964Y687D01*
X1997Y653D01*
Y620D01*
X1980Y603D01*
X1947D01*
X1930Y620D01*
Y637D01*
X1947Y653D01*
X1997D01*
X1897Y603D02*
Y620D01*
X1880D01*
Y603D01*
X1897D01*
X1814D02*
Y620D01*
X1797D01*
Y603D01*
X1814D01*
X1730D02*
Y620D01*
X1714D01*
Y603D01*
X1730D01*
X1580D02*
X1647D01*
X1580Y670D01*
Y687D01*
X1597Y703D01*
X1630D01*
X1647Y687D01*
X1480Y603D02*
X1547D01*
X1480Y670D01*
Y687D01*
X1497Y703D01*
X1530D01*
X1547Y687D01*
X1280Y703D02*
Y603D01*
X1330D01*
X1347Y620D01*
Y653D01*
X1330Y670D01*
X1280D01*
X1247Y703D02*
Y603D01*
X1197D01*
X1181Y620D01*
Y637D01*
X1197Y653D01*
X1247D01*
X1197D01*
X1181Y670D01*
Y687D01*
X1197Y703D01*
X1247D01*
X1147Y603D02*
Y670D01*
X1131D01*
X1114Y653D01*
Y603D01*
Y653D01*
X1097Y670D01*
X1081Y653D01*
Y603D01*
D13*
X1883Y1875D02*
Y1975D01*
X1833D01*
X1817Y1958D01*
Y1925D01*
X1833Y1908D01*
X1883D01*
X1850D02*
X1817Y1875D01*
X1783Y1975D02*
X1717D01*
Y1958D01*
X1783Y1892D01*
Y1875D01*
X1658D02*
Y1975D01*
X1608D01*
X1592Y1958D01*
Y1925D01*
X1608Y1908D01*
X1658D01*
X1625D02*
X1592Y1875D01*
X1508D02*
Y1975D01*
X1558Y1925D01*
X1492D01*
X1058Y1300D02*
Y1400D01*
X1008D01*
X992Y1383D01*
Y1350D01*
X1008Y1333D01*
X1058D01*
X1025D02*
X992Y1300D01*
X958Y1383D02*
X942Y1400D01*
X908D01*
X892Y1383D01*
Y1367D01*
X908Y1350D01*
X925D01*
X908D01*
X892Y1333D01*
Y1317D01*
X908Y1300D01*
X942D01*
X958Y1317D01*
X1058Y1550D02*
Y1650D01*
X1008D01*
X992Y1633D01*
Y1600D01*
X1008Y1583D01*
X1058D01*
X1025D02*
X992Y1550D01*
X892D02*
X958D01*
X892Y1617D01*
Y1633D01*
X908Y1650D01*
X942D01*
X958Y1633D01*
X1742Y1033D02*
X1758Y1050D01*
X1792D01*
X1808Y1033D01*
Y967D01*
X1792Y950D01*
X1758D01*
X1742Y967D01*
X1708Y1050D02*
X1642D01*
Y1033D01*
X1708Y967D01*
Y950D01*
X2433Y1000D02*
Y1100D01*
X2383D01*
X2367Y1083D01*
Y1050D01*
X2383Y1033D01*
X2433D01*
X2400D02*
X2367Y1000D01*
X2333Y1083D02*
X2317Y1100D01*
X2283D01*
X2267Y1083D01*
Y1067D01*
X2283Y1050D01*
X2267Y1033D01*
Y1017D01*
X2283Y1000D01*
X2317D01*
X2333Y1017D01*
Y1033D01*
X2317Y1050D01*
X2333Y1067D01*
Y1083D01*
X2317Y1050D02*
X2283D01*
X2000Y867D02*
X2100D01*
Y917D01*
X2083Y933D01*
X2050D01*
X2033Y917D01*
Y867D01*
Y900D02*
X2000Y933D01*
X2100Y1033D02*
Y967D01*
X2050D01*
X2067Y1000D01*
Y1017D01*
X2050Y1033D01*
X2017D01*
X2000Y1017D01*
Y983D01*
X2017Y967D01*
X2158Y1875D02*
Y1975D01*
X2108D01*
X2092Y1958D01*
Y1925D01*
X2108Y1908D01*
X2158D01*
X2125D02*
X2092Y1875D01*
X1992Y1975D02*
X2025Y1958D01*
X2058Y1925D01*
Y1892D01*
X2042Y1875D01*
X2008D01*
X1992Y1892D01*
Y1908D01*
X2008Y1925D01*
X2058D01*
X2350Y1542D02*
Y1608D01*
X2367Y1625D01*
X2400D01*
X2417Y1608D01*
Y1542D01*
X2400Y1525D01*
X2367D01*
X2383Y1558D02*
X2350Y1525D01*
X2367D02*
X2350Y1542D01*
X2317Y1525D02*
X2283D01*
X2300D01*
Y1625D01*
X2317Y1608D01*
X1683Y1175D02*
Y1092D01*
X1667Y1075D01*
X1633D01*
X1617Y1092D01*
Y1175D01*
X1517Y1075D02*
X1583D01*
X1517Y1142D01*
Y1158D01*
X1533Y1175D01*
X1567D01*
X1583Y1158D01*
D47*
X1593Y1315D02*
G03*
X1593Y1315I-30J0D01*
G01*
M02*
