G04*
G04 #@! TF.GenerationSoftware,Altium Limited,Altium Designer,23.0.1 (38)*
G04*
G04 Layer_Color=16711935*
%FSLAX42Y42*%
%MOMM*%
G71*
G04*
G04 #@! TF.SameCoordinates,11CD51D0-70BF-4863-A242-58D7B7C6D63D*
G04*
G04*
G04 #@! TF.FilePolarity,Negative*
G04*
G01*
G75*
%ADD26R,1.00X1.20*%
%ADD27R,0.80X1.15*%
%ADD28R,5.10X1.80*%
%ADD36R,0.80X1.20*%
%ADD37C,3.20*%
%ADD38C,0.80*%
%ADD45R,1.15X0.80*%
%ADD46O,1.65X0.80*%
D26*
X1892Y1125D02*
D03*
X1758D02*
D03*
D27*
X1750Y1800D02*
D03*
X1900D02*
D03*
X1500D02*
D03*
X1650D02*
D03*
X2050Y1125D02*
D03*
X2200D02*
D03*
D28*
X333Y696D02*
D03*
Y1204D02*
D03*
X5480Y1141D02*
D03*
Y634D02*
D03*
D36*
X2350Y1180D02*
D03*
X2445Y1420D02*
D03*
X2255D02*
D03*
D37*
X300Y2700D02*
D03*
X5500D02*
D03*
Y300D02*
D03*
X300D02*
D03*
D38*
X805Y1776D02*
D03*
X550Y1775D02*
D03*
X675D02*
D03*
X430Y1776D02*
D03*
X305D02*
D03*
X805Y1926D02*
D03*
X680D02*
D03*
X555D02*
D03*
X430D02*
D03*
X305D02*
D03*
X805Y2076D02*
D03*
X680D02*
D03*
X555D02*
D03*
X430D02*
D03*
X305D02*
D03*
X430Y2226D02*
D03*
X305D02*
D03*
Y2376D02*
D03*
X425Y2375D02*
D03*
X805Y2226D02*
D03*
X680D02*
D03*
X550Y2225D02*
D03*
X805Y2376D02*
D03*
X680D02*
D03*
X550Y2375D02*
D03*
X1755Y1401D02*
D03*
X2275Y1200D02*
D03*
D45*
X1150Y1425D02*
D03*
Y1275D02*
D03*
Y1675D02*
D03*
Y1525D02*
D03*
X2075Y1425D02*
D03*
Y1275D02*
D03*
Y1625D02*
D03*
Y1775D02*
D03*
D46*
X1895Y1656D02*
D03*
Y1529D02*
D03*
Y1402D02*
D03*
Y1275D02*
D03*
X1350Y1656D02*
D03*
Y1529D02*
D03*
Y1402D02*
D03*
Y1275D02*
D03*
M02*
