G04*
G04 #@! TF.GenerationSoftware,Altium Limited,Altium Designer,23.0.1 (38)*
G04*
G04 Layer_Physical_Order=2*
G04 Layer_Color=16711680*
%FSLAX42Y42*%
%MOMM*%
G71*
G04*
G04 #@! TF.SameCoordinates,4D2BC661-42C3-4710-8500-5BABABA19088*
G04*
G04*
G04 #@! TF.FilePolarity,Positive*
G04*
G01*
G75*
%ADD10C,0.25*%
%ADD18R,4.90X1.60*%
%ADD51C,0.40*%
%ADD54C,0.75*%
%ADD55O,1.80X1.00*%
%ADD56C,1.71*%
%ADD57R,1.71X1.71*%
%ADD58C,2.50*%
%ADD59C,0.60*%
G36*
X4290Y28D02*
X3149D01*
Y228D01*
X3076D01*
Y1511D01*
X3320Y1755D01*
X3334D01*
X3350Y1762D01*
X3363Y1775D01*
X3370Y1791D01*
Y1809D01*
X3363Y1825D01*
X3350Y1838D01*
X3334Y1845D01*
X3316D01*
X3300Y1838D01*
X3287Y1825D01*
X3280Y1809D01*
Y1795D01*
X3028Y1543D01*
X3022Y1534D01*
X3020Y1523D01*
Y228D01*
X2948D01*
Y28D01*
X2849D01*
X2846Y41D01*
X2856Y47D01*
X2874Y65D01*
X2888Y88D01*
X2894Y114D01*
Y140D01*
X2888Y166D01*
X2874Y189D01*
X2856Y207D01*
X2833Y221D01*
X2822Y224D01*
Y1632D01*
X2945Y1755D01*
X2959D01*
X2975Y1762D01*
X2988Y1775D01*
X2995Y1791D01*
Y1809D01*
X2988Y1825D01*
X2975Y1838D01*
X2959Y1845D01*
X2941D01*
X2925Y1838D01*
X2912Y1825D01*
X2905Y1809D01*
Y1795D01*
X2774Y1664D01*
X2768Y1655D01*
X2766Y1644D01*
Y224D01*
X2755Y221D01*
X2732Y207D01*
X2714Y189D01*
X2700Y166D01*
X2693Y140D01*
Y114D01*
X2700Y88D01*
X2714Y65D01*
X2732Y47D01*
X2742Y41D01*
X2739Y28D01*
X2595D01*
X2592Y41D01*
X2602Y47D01*
X2620Y65D01*
X2634Y88D01*
X2641Y114D01*
Y140D01*
X2634Y166D01*
X2620Y189D01*
X2602Y207D01*
X2579Y221D01*
X2568Y224D01*
Y1503D01*
X2820Y1755D01*
X2834D01*
X2850Y1762D01*
X2863Y1775D01*
X2870Y1791D01*
Y1809D01*
X2863Y1825D01*
X2850Y1838D01*
X2834Y1845D01*
X2816D01*
X2800Y1838D01*
X2787Y1825D01*
X2780Y1809D01*
Y1795D01*
X2520Y1535D01*
X2514Y1526D01*
X2512Y1515D01*
Y224D01*
X2501Y221D01*
X2478Y207D01*
X2460Y189D01*
X2446Y166D01*
X2440Y140D01*
Y114D01*
X2446Y88D01*
X2460Y65D01*
X2478Y47D01*
X2488Y41D01*
X2485Y28D01*
X2341D01*
X2338Y41D01*
X2348Y47D01*
X2366Y65D01*
X2380Y88D01*
X2386Y114D01*
Y140D01*
X2380Y166D01*
X2366Y189D01*
X2348Y207D01*
X2325Y221D01*
X2299Y228D01*
X2273D01*
X2247Y221D01*
X2224Y207D01*
X2206Y189D01*
X2192Y166D01*
X2185Y140D01*
Y114D01*
X2192Y88D01*
X2206Y65D01*
X2224Y47D01*
X2234Y41D01*
X2231Y28D01*
X2087D01*
X2084Y41D01*
X2094Y47D01*
X2112Y65D01*
X2126Y88D01*
X2133Y114D01*
Y140D01*
X2126Y166D01*
X2112Y189D01*
X2094Y207D01*
X2071Y221D01*
X2045Y228D01*
X2019D01*
X1993Y221D01*
X1970Y207D01*
X1952Y189D01*
X1938Y166D01*
X1932Y140D01*
Y114D01*
X1938Y88D01*
X1952Y65D01*
X1970Y47D01*
X1980Y41D01*
X1977Y28D01*
X1833D01*
X1830Y41D01*
X1840Y47D01*
X1858Y65D01*
X1872Y88D01*
X1878Y114D01*
Y140D01*
X1872Y166D01*
X1858Y189D01*
X1840Y207D01*
X1817Y221D01*
X1791Y228D01*
X1765D01*
X1739Y221D01*
X1716Y207D01*
X1698Y189D01*
X1684Y166D01*
X1677Y140D01*
Y114D01*
X1684Y88D01*
X1698Y65D01*
X1716Y47D01*
X1726Y41D01*
X1723Y28D01*
X1579D01*
X1576Y41D01*
X1586Y47D01*
X1604Y65D01*
X1618Y88D01*
X1625Y114D01*
Y140D01*
X1618Y166D01*
X1604Y189D01*
X1586Y207D01*
X1563Y221D01*
X1537Y228D01*
X1511D01*
X1485Y221D01*
X1462Y207D01*
X1444Y189D01*
X1430Y166D01*
X1423Y140D01*
Y114D01*
X1430Y88D01*
X1444Y65D01*
X1462Y47D01*
X1472Y41D01*
X1469Y28D01*
X1325D01*
X1322Y41D01*
X1332Y47D01*
X1350Y65D01*
X1364Y88D01*
X1370Y114D01*
Y140D01*
X1364Y166D01*
X1350Y189D01*
X1332Y207D01*
X1309Y221D01*
X1283Y228D01*
X1257D01*
X1231Y221D01*
X1208Y207D01*
X1190Y189D01*
X1176Y166D01*
X1169Y140D01*
Y114D01*
X1176Y88D01*
X1190Y65D01*
X1208Y47D01*
X1218Y41D01*
X1215Y28D01*
X1071D01*
X1068Y41D01*
X1078Y47D01*
X1096Y65D01*
X1110Y88D01*
X1116Y114D01*
Y140D01*
X1110Y166D01*
X1096Y189D01*
X1078Y207D01*
X1055Y221D01*
X1029Y228D01*
X1003D01*
X977Y221D01*
X954Y207D01*
X936Y189D01*
X922Y166D01*
X915Y140D01*
Y114D01*
X922Y88D01*
X936Y65D01*
X954Y47D01*
X964Y41D01*
X961Y28D01*
X817D01*
X814Y41D01*
X824Y47D01*
X842Y65D01*
X856Y88D01*
X862Y114D01*
Y140D01*
X856Y166D01*
X842Y189D01*
X824Y207D01*
X801Y221D01*
X775Y228D01*
X749D01*
X723Y221D01*
X700Y207D01*
X682Y189D01*
X668Y166D01*
X661Y140D01*
Y114D01*
X668Y88D01*
X682Y65D01*
X700Y47D01*
X710Y41D01*
X707Y28D01*
X563D01*
X560Y41D01*
X570Y47D01*
X588Y65D01*
X602Y88D01*
X609Y114D01*
Y140D01*
X602Y166D01*
X588Y189D01*
X570Y207D01*
X547Y221D01*
X521Y228D01*
X495D01*
X469Y221D01*
X446Y207D01*
X428Y189D01*
X414Y166D01*
X407Y140D01*
Y114D01*
X414Y88D01*
X428Y65D01*
X446Y47D01*
X456Y41D01*
X453Y28D01*
X309D01*
X306Y41D01*
X316Y47D01*
X334Y65D01*
X348Y88D01*
X355Y114D01*
Y140D01*
X348Y166D01*
X334Y189D01*
X316Y207D01*
X293Y221D01*
X267Y228D01*
X241D01*
X215Y221D01*
X192Y207D01*
X174Y189D01*
X160Y166D01*
X153Y140D01*
Y114D01*
X160Y88D01*
X174Y65D01*
X192Y47D01*
X202Y41D01*
X199Y28D01*
X28D01*
Y698D01*
X41Y704D01*
X47Y699D01*
X65Y692D01*
X85Y689D01*
X112D01*
Y765D01*
Y841D01*
X85D01*
X65Y838D01*
X47Y831D01*
X41Y826D01*
X28Y832D01*
Y1578D01*
X41Y1584D01*
X47Y1579D01*
X65Y1572D01*
X85Y1569D01*
X112D01*
Y1645D01*
Y1721D01*
X85D01*
X65Y1718D01*
X47Y1711D01*
X41Y1706D01*
X28Y1712D01*
Y1817D01*
X41Y1818D01*
X42Y1811D01*
X50Y1800D01*
X100Y1750D01*
X111Y1742D01*
X125Y1739D01*
X610D01*
X627Y1722D01*
X620Y1712D01*
X605Y1718D01*
X585Y1721D01*
X557D01*
Y1658D01*
X659D01*
X658Y1665D01*
X652Y1680D01*
X662Y1687D01*
X814Y1535D01*
Y1403D01*
X812Y1400D01*
X805Y1384D01*
Y1366D01*
X812Y1350D01*
X814Y1347D01*
Y1319D01*
X803Y1314D01*
X802Y1315D01*
X785Y1322D01*
X767D01*
X751Y1315D01*
X738Y1303D01*
X731Y1286D01*
Y1268D01*
X738Y1252D01*
X747Y1243D01*
Y1061D01*
X737Y1050D01*
X730Y1034D01*
Y1016D01*
X737Y1000D01*
X750Y987D01*
X766Y980D01*
X784D01*
X800Y987D01*
X802Y988D01*
X814Y983D01*
Y903D01*
X812Y900D01*
X805Y884D01*
Y866D01*
X812Y850D01*
X825Y837D01*
X841Y830D01*
X859D01*
X875Y837D01*
X888Y850D01*
X895Y866D01*
Y884D01*
X888Y900D01*
X886Y903D01*
Y1347D01*
X888Y1350D01*
X895Y1366D01*
Y1384D01*
X888Y1400D01*
X886Y1403D01*
Y1550D01*
X883Y1564D01*
X875Y1575D01*
X650Y1800D01*
X639Y1808D01*
X625Y1811D01*
X140D01*
X111Y1840D01*
Y2160D01*
X173Y2222D01*
X175D01*
X192Y2206D01*
X215Y2192D01*
X241Y2185D01*
X267D01*
X293Y2192D01*
X316Y2206D01*
X334Y2224D01*
X348Y2247D01*
X355Y2273D01*
Y2299D01*
X348Y2325D01*
X334Y2348D01*
X316Y2366D01*
X306Y2372D01*
X309Y2385D01*
X435D01*
X438Y2372D01*
X420Y2354D01*
X405Y2329D01*
X397Y2301D01*
Y2299D01*
X508D01*
X618D01*
Y2301D01*
X611Y2329D01*
X596Y2354D01*
X578Y2372D01*
X581Y2385D01*
X707D01*
X710Y2372D01*
X700Y2366D01*
X682Y2348D01*
X668Y2325D01*
X661Y2299D01*
Y2273D01*
X668Y2247D01*
X682Y2224D01*
X700Y2206D01*
X723Y2192D01*
X726Y2192D01*
Y2088D01*
X729Y2074D01*
X737Y2063D01*
X1130Y1670D01*
Y1666D01*
X1137Y1650D01*
X1150Y1637D01*
X1166Y1630D01*
X1170D01*
X1239Y1561D01*
Y1264D01*
X1236Y1262D01*
X1229Y1245D01*
Y1227D01*
X1236Y1211D01*
X1249Y1198D01*
X1265Y1191D01*
X1283D01*
X1300Y1198D01*
X1312Y1211D01*
X1319Y1227D01*
Y1245D01*
X1312Y1262D01*
X1310Y1264D01*
Y1540D01*
X1320Y1550D01*
X1327Y1567D01*
Y1584D01*
X1320Y1601D01*
X1308Y1614D01*
X1291Y1620D01*
X1280D01*
X1220Y1680D01*
Y1684D01*
X1213Y1700D01*
X1200Y1713D01*
X1184Y1720D01*
X1180D01*
X798Y2103D01*
Y2192D01*
X801Y2192D01*
X824Y2206D01*
X842Y2224D01*
X856Y2247D01*
X862Y2273D01*
Y2299D01*
X856Y2325D01*
X842Y2348D01*
X824Y2366D01*
X814Y2372D01*
X817Y2385D01*
X961D01*
X964Y2372D01*
X954Y2366D01*
X936Y2348D01*
X922Y2325D01*
X915Y2299D01*
Y2273D01*
X922Y2247D01*
X936Y2224D01*
X954Y2206D01*
X977Y2192D01*
X1003Y2185D01*
X1028D01*
X1033Y2179D01*
X1070Y2142D01*
X1079Y2135D01*
X1090Y2133D01*
X3189D01*
X3199Y2123D01*
X3215Y2116D01*
X3233D01*
X3250Y2123D01*
X3262Y2136D01*
X3269Y2152D01*
Y2170D01*
X3262Y2187D01*
X3250Y2200D01*
X3233Y2206D01*
X3215D01*
X3199Y2200D01*
X3189Y2189D01*
X3149D01*
Y2385D01*
X4290D01*
Y28D01*
D02*
G37*
%LPC*%
G36*
X618Y2274D02*
X520D01*
Y2175D01*
X523D01*
X551Y2183D01*
X576Y2198D01*
X596Y2218D01*
X611Y2243D01*
X618Y2271D01*
Y2274D01*
D02*
G37*
G36*
X495D02*
X397D01*
Y2271D01*
X405Y2243D01*
X420Y2218D01*
X440Y2198D01*
X465Y2183D01*
X493Y2175D01*
X495D01*
Y2274D01*
D02*
G37*
G36*
X4115Y2150D02*
X4112D01*
Y2012D01*
X4250D01*
Y2015D01*
X4244Y2044D01*
X4233Y2071D01*
X4217Y2096D01*
X4196Y2117D01*
X4171Y2133D01*
X4144Y2144D01*
X4115Y2150D01*
D02*
G37*
G36*
X4088D02*
X4085D01*
X4056Y2144D01*
X4029Y2133D01*
X4004Y2117D01*
X3983Y2096D01*
X3967Y2071D01*
X3956Y2044D01*
X3950Y2015D01*
Y2012D01*
X4088D01*
Y2150D01*
D02*
G37*
G36*
X315D02*
X312D01*
Y2012D01*
X450D01*
Y2015D01*
X444Y2044D01*
X433Y2071D01*
X417Y2096D01*
X396Y2117D01*
X371Y2133D01*
X344Y2144D01*
X315Y2150D01*
D02*
G37*
G36*
X288D02*
X285D01*
X256Y2144D01*
X229Y2133D01*
X204Y2117D01*
X183Y2096D01*
X167Y2071D01*
X156Y2044D01*
X150Y2015D01*
Y2012D01*
X288D01*
Y2150D01*
D02*
G37*
G36*
X4250Y1988D02*
X4112D01*
Y1850D01*
X4115D01*
X4144Y1856D01*
X4171Y1867D01*
X4196Y1883D01*
X4217Y1904D01*
X4233Y1929D01*
X4244Y1956D01*
X4250Y1985D01*
Y1988D01*
D02*
G37*
G36*
X4088D02*
X3950D01*
Y1985D01*
X3956Y1956D01*
X3967Y1929D01*
X3983Y1904D01*
X4004Y1883D01*
X4029Y1867D01*
X4056Y1856D01*
X4085Y1850D01*
X4088D01*
Y1988D01*
D02*
G37*
G36*
X450D02*
X312D01*
Y1850D01*
X315D01*
X344Y1856D01*
X371Y1867D01*
X396Y1883D01*
X417Y1904D01*
X433Y1929D01*
X444Y1956D01*
X450Y1985D01*
Y1988D01*
D02*
G37*
G36*
X288D02*
X150D01*
Y1985D01*
X156Y1956D01*
X167Y1929D01*
X183Y1904D01*
X204Y1883D01*
X229Y1867D01*
X256Y1856D01*
X285Y1850D01*
X288D01*
Y1988D01*
D02*
G37*
G36*
X165Y1721D02*
X138D01*
Y1658D01*
X239D01*
X238Y1665D01*
X231Y1683D01*
X218Y1698D01*
X203Y1711D01*
X185Y1718D01*
X165Y1721D01*
D02*
G37*
G36*
X532D02*
X505D01*
X485Y1718D01*
X467Y1711D01*
X452Y1698D01*
X439Y1683D01*
X432Y1665D01*
X431Y1658D01*
X532D01*
Y1721D01*
D02*
G37*
G36*
X659Y1633D02*
X557D01*
Y1569D01*
X585D01*
X605Y1572D01*
X623Y1579D01*
X638Y1592D01*
X651Y1607D01*
X658Y1625D01*
X659Y1633D01*
D02*
G37*
G36*
X532D02*
X431D01*
X432Y1625D01*
X439Y1607D01*
X452Y1592D01*
X467Y1579D01*
X485Y1572D01*
X505Y1569D01*
X532D01*
Y1633D01*
D02*
G37*
G36*
X239D02*
X138D01*
Y1569D01*
X165D01*
X185Y1572D01*
X203Y1579D01*
X218Y1592D01*
X231Y1607D01*
X238Y1625D01*
X239Y1633D01*
D02*
G37*
G36*
X3400Y1928D02*
X2400D01*
X2389Y1926D01*
X2380Y1920D01*
X1655Y1195D01*
X1649Y1186D01*
X1647Y1175D01*
Y761D01*
X1637Y750D01*
X1630Y734D01*
Y716D01*
X1637Y700D01*
X1650Y687D01*
X1666Y680D01*
X1684D01*
X1700Y687D01*
X1713Y700D01*
X1720Y716D01*
Y734D01*
X1713Y750D01*
X1703Y761D01*
Y1163D01*
X2412Y1872D01*
X3388D01*
X3561Y1700D01*
Y1560D01*
X3550Y1550D01*
X3544Y1533D01*
Y1515D01*
X3550Y1499D01*
X3563Y1486D01*
X3580Y1479D01*
X3598D01*
X3614Y1486D01*
X3627Y1499D01*
X3634Y1515D01*
Y1533D01*
X3627Y1550D01*
X3617Y1560D01*
Y1711D01*
X3615Y1722D01*
X3608Y1731D01*
X3420Y1920D01*
X3411Y1926D01*
X3400Y1928D01*
D02*
G37*
G36*
X501Y1546D02*
X481D01*
X461Y1538D01*
X446Y1523D01*
X439Y1504D01*
Y1483D01*
X446Y1464D01*
X461Y1449D01*
X481Y1441D01*
X501D01*
X521Y1449D01*
X536Y1464D01*
X543Y1483D01*
Y1504D01*
X536Y1523D01*
X521Y1538D01*
X501Y1546D01*
D02*
G37*
G36*
Y969D02*
X481D01*
X461Y961D01*
X446Y946D01*
X439Y927D01*
Y906D01*
X446Y887D01*
X461Y872D01*
X481Y864D01*
X501D01*
X521Y872D01*
X536Y887D01*
X543Y906D01*
Y927D01*
X536Y946D01*
X521Y961D01*
X501Y969D01*
D02*
G37*
G36*
X585Y841D02*
X557D01*
Y778D01*
X659D01*
X658Y785D01*
X651Y803D01*
X638Y818D01*
X623Y831D01*
X605Y838D01*
X585Y841D01*
D02*
G37*
G36*
X165D02*
X138D01*
Y778D01*
X239D01*
X238Y785D01*
X231Y803D01*
X218Y818D01*
X203Y831D01*
X185Y838D01*
X165Y841D01*
D02*
G37*
G36*
X532D02*
X505D01*
X485Y838D01*
X467Y831D01*
X452Y818D01*
X439Y803D01*
X432Y785D01*
X431Y778D01*
X532D01*
Y841D01*
D02*
G37*
G36*
X659Y753D02*
X557D01*
Y689D01*
X585D01*
X605Y692D01*
X623Y699D01*
X638Y712D01*
X651Y727D01*
X658Y745D01*
X659Y753D01*
D02*
G37*
G36*
X532D02*
X431D01*
X432Y745D01*
X439Y727D01*
X452Y712D01*
X467Y699D01*
X485Y692D01*
X505Y689D01*
X532D01*
Y753D01*
D02*
G37*
G36*
X239D02*
X138D01*
Y689D01*
X165D01*
X185Y692D01*
X203Y699D01*
X218Y712D01*
X231Y727D01*
X238Y745D01*
X239Y753D01*
D02*
G37*
G36*
X4115Y550D02*
X4112D01*
Y412D01*
X4250D01*
Y415D01*
X4244Y444D01*
X4233Y471D01*
X4217Y496D01*
X4196Y517D01*
X4171Y533D01*
X4144Y544D01*
X4115Y550D01*
D02*
G37*
G36*
X4088D02*
X4085D01*
X4056Y544D01*
X4029Y533D01*
X4004Y517D01*
X3983Y496D01*
X3967Y471D01*
X3956Y444D01*
X3950Y415D01*
Y412D01*
X4088D01*
Y550D01*
D02*
G37*
G36*
X315D02*
X312D01*
Y412D01*
X450D01*
Y415D01*
X444Y444D01*
X433Y471D01*
X417Y496D01*
X396Y517D01*
X371Y533D01*
X344Y544D01*
X315Y550D01*
D02*
G37*
G36*
X288D02*
X285D01*
X256Y544D01*
X229Y533D01*
X204Y517D01*
X183Y496D01*
X167Y471D01*
X156Y444D01*
X150Y415D01*
Y412D01*
X288D01*
Y550D01*
D02*
G37*
G36*
X4250Y388D02*
X4112D01*
Y250D01*
X4115D01*
X4144Y256D01*
X4171Y267D01*
X4196Y283D01*
X4217Y304D01*
X4233Y329D01*
X4244Y356D01*
X4250Y385D01*
Y388D01*
D02*
G37*
G36*
X4088D02*
X3950D01*
Y385D01*
X3956Y356D01*
X3967Y329D01*
X3983Y304D01*
X4004Y283D01*
X4029Y267D01*
X4056Y256D01*
X4085Y250D01*
X4088D01*
Y388D01*
D02*
G37*
G36*
X450D02*
X312D01*
Y250D01*
X315D01*
X344Y256D01*
X371Y267D01*
X396Y283D01*
X417Y304D01*
X433Y329D01*
X444Y356D01*
X450Y385D01*
Y388D01*
D02*
G37*
G36*
X288D02*
X150D01*
Y385D01*
X156Y356D01*
X167Y329D01*
X183Y304D01*
X204Y283D01*
X229Y267D01*
X256Y256D01*
X285Y250D01*
X288D01*
Y388D01*
D02*
G37*
%LPD*%
D10*
X775Y1276D02*
X776Y1277D01*
X775Y1025D02*
Y1276D01*
X1675Y725D02*
Y1175D01*
X2400Y1900D01*
X3400D01*
X3589Y1711D01*
Y1524D02*
Y1711D01*
X2794Y1644D02*
X2950Y1800D01*
X2540Y1515D02*
X2825Y1800D01*
X3048Y1523D02*
X3325Y1800D01*
X1016Y2246D02*
X1052Y2210D01*
Y2199D02*
Y2210D01*
Y2199D02*
X1090Y2161D01*
X1016Y2246D02*
Y2286D01*
X1090Y2161D02*
X3224D01*
X3048Y127D02*
Y1523D01*
X2794Y127D02*
Y1644D01*
X2540Y127D02*
Y1515D01*
D18*
X4025Y1397D02*
D03*
Y889D02*
D03*
D51*
X125Y1775D02*
X625D01*
X850Y1550D01*
Y1375D02*
Y1550D01*
X75Y1825D02*
X125Y1775D01*
X850Y875D02*
Y1375D01*
X1175Y1675D02*
X1274Y1576D01*
Y1236D02*
Y1576D01*
X226Y2258D02*
X254Y2286D01*
X75Y1825D02*
Y2175D01*
X158Y2258D01*
X226D01*
X762Y2088D02*
Y2286D01*
Y2088D02*
X1175Y1675D01*
D54*
X491Y1494D02*
D03*
Y916D02*
D03*
D55*
X545Y1645D02*
D03*
X125D02*
D03*
X545Y765D02*
D03*
X125D02*
D03*
D56*
X254Y2286D02*
D03*
X508D02*
D03*
X2794D02*
D03*
X2540D02*
D03*
X2286D02*
D03*
X2032D02*
D03*
X1778D02*
D03*
X1524D02*
D03*
X1270D02*
D03*
X1016D02*
D03*
X762D02*
D03*
X254Y127D02*
D03*
X508D02*
D03*
X2794D02*
D03*
X2540D02*
D03*
X2286D02*
D03*
X2032D02*
D03*
X1778D02*
D03*
X1524D02*
D03*
X1270D02*
D03*
X1016D02*
D03*
X762D02*
D03*
D57*
X3048Y2286D02*
D03*
Y127D02*
D03*
D58*
X4100Y2000D02*
D03*
Y400D02*
D03*
X300D02*
D03*
Y2000D02*
D03*
D59*
X776Y1277D02*
D03*
X507Y1257D02*
D03*
X1157Y1850D02*
D03*
X1282Y1576D02*
D03*
X1182D02*
D03*
X1082D02*
D03*
X982Y1476D02*
D03*
Y1576D02*
D03*
Y1675D02*
D03*
X1675Y725D02*
D03*
X1617Y1000D02*
D03*
X4200Y1625D02*
D03*
Y625D02*
D03*
X4138Y2250D02*
D03*
Y1750D02*
D03*
X4075Y1625D02*
D03*
X4138Y750D02*
D03*
X4075Y625D02*
D03*
X4012Y2250D02*
D03*
X3950Y2125D02*
D03*
Y1875D02*
D03*
X4012Y1750D02*
D03*
X3950Y1625D02*
D03*
X4012Y750D02*
D03*
X3950Y625D02*
D03*
X3888Y2250D02*
D03*
X3825Y2125D02*
D03*
X3888Y2000D02*
D03*
X3825Y1875D02*
D03*
X3888Y1750D02*
D03*
X3825Y1625D02*
D03*
X3888Y750D02*
D03*
X3825Y625D02*
D03*
X3888Y500D02*
D03*
X3825Y375D02*
D03*
X3762Y2250D02*
D03*
Y2000D02*
D03*
Y1750D02*
D03*
X3700Y1625D02*
D03*
Y1375D02*
D03*
X3638Y2250D02*
D03*
X3512D02*
D03*
X3450Y2125D02*
D03*
X3512Y2000D02*
D03*
X3450Y1625D02*
D03*
X3512Y1500D02*
D03*
X3450Y1375D02*
D03*
Y625D02*
D03*
X3388Y2250D02*
D03*
Y1750D02*
D03*
X3325Y1625D02*
D03*
X3388Y1500D02*
D03*
X3325Y1375D02*
D03*
X3388Y1250D02*
D03*
X3325Y1125D02*
D03*
X3388Y1000D02*
D03*
X3325Y875D02*
D03*
X3388Y750D02*
D03*
X3262Y2250D02*
D03*
Y1500D02*
D03*
X3200Y1375D02*
D03*
X3262Y1250D02*
D03*
X3200Y1125D02*
D03*
X3262Y1000D02*
D03*
X3200Y875D02*
D03*
X3138Y1750D02*
D03*
Y1500D02*
D03*
Y1250D02*
D03*
Y1000D02*
D03*
X3012Y1750D02*
D03*
X2950Y1625D02*
D03*
Y1375D02*
D03*
Y1125D02*
D03*
Y875D02*
D03*
Y375D02*
D03*
X2888Y1500D02*
D03*
Y1250D02*
D03*
Y1000D02*
D03*
Y750D02*
D03*
X2700Y1375D02*
D03*
Y1125D02*
D03*
Y875D02*
D03*
X2638Y1750D02*
D03*
Y1500D02*
D03*
Y1250D02*
D03*
Y1000D02*
D03*
X2512Y1750D02*
D03*
X2450Y1625D02*
D03*
Y1375D02*
D03*
Y1125D02*
D03*
Y875D02*
D03*
X2388Y1750D02*
D03*
X2325Y1625D02*
D03*
X2388Y1500D02*
D03*
X2325Y1375D02*
D03*
X2388Y1250D02*
D03*
X2325Y1125D02*
D03*
X2388Y1000D02*
D03*
X2325Y875D02*
D03*
X2262Y1500D02*
D03*
X2200Y1375D02*
D03*
X2262Y1250D02*
D03*
X2200Y1125D02*
D03*
X2262Y1000D02*
D03*
X2200Y875D02*
D03*
X2138Y1750D02*
D03*
Y1500D02*
D03*
X2075Y1375D02*
D03*
X2138Y1250D02*
D03*
X2075Y1125D02*
D03*
X2138Y1000D02*
D03*
X2075Y875D02*
D03*
X2012Y1750D02*
D03*
X1950Y1625D02*
D03*
X2012Y1250D02*
D03*
X1950Y1125D02*
D03*
X2012Y1000D02*
D03*
X1950Y875D02*
D03*
X1888Y1750D02*
D03*
X1825Y1625D02*
D03*
X1888Y1500D02*
D03*
Y1250D02*
D03*
X1825Y1125D02*
D03*
X1888Y1000D02*
D03*
X1700Y1625D02*
D03*
X1762Y1500D02*
D03*
X1700Y1375D02*
D03*
X1762Y1000D02*
D03*
X1575Y1625D02*
D03*
X1638Y1500D02*
D03*
X1575Y1375D02*
D03*
X1638Y1250D02*
D03*
X1575Y1125D02*
D03*
X1450Y1875D02*
D03*
Y1625D02*
D03*
X1512Y1500D02*
D03*
X1450Y1375D02*
D03*
X1512Y1250D02*
D03*
Y1000D02*
D03*
X1388Y2000D02*
D03*
Y1250D02*
D03*
X1200Y1375D02*
D03*
X1075Y875D02*
D03*
X1138Y750D02*
D03*
X1012Y1000D02*
D03*
X950Y875D02*
D03*
X1012Y750D02*
D03*
X888D02*
D03*
X700Y1875D02*
D03*
X762Y1750D02*
D03*
Y750D02*
D03*
X700Y625D02*
D03*
X575Y2125D02*
D03*
X638Y2000D02*
D03*
X575Y1875D02*
D03*
X450Y2125D02*
D03*
X512Y2000D02*
D03*
X450Y1875D02*
D03*
X512Y1000D02*
D03*
X325Y1625D02*
D03*
X388Y1500D02*
D03*
X325Y1375D02*
D03*
X388Y1250D02*
D03*
X325Y1125D02*
D03*
X388Y1000D02*
D03*
X325Y875D02*
D03*
X388Y750D02*
D03*
X325Y625D02*
D03*
X3708Y1264D02*
D03*
X3492Y1254D02*
D03*
X3469Y1146D02*
D03*
Y1036D02*
D03*
Y895D02*
D03*
X3479Y786D02*
D03*
X3477Y456D02*
D03*
X3368Y443D02*
D03*
X3280Y755D02*
D03*
X3170Y760D02*
D03*
X3121Y356D02*
D03*
X3187Y268D02*
D03*
X3283Y214D02*
D03*
X3392Y202D02*
D03*
X3502Y203D02*
D03*
X3603Y245D02*
D03*
X3681Y323D02*
D03*
X3721Y643D02*
D03*
Y753D02*
D03*
X3731Y862D02*
D03*
X3714Y971D02*
D03*
X850Y1375D02*
D03*
X1175Y1675D02*
D03*
X775Y1025D02*
D03*
X850Y875D02*
D03*
X2825Y1800D02*
D03*
X2950D02*
D03*
X3325D02*
D03*
X1274Y1236D02*
D03*
X3224Y2161D02*
D03*
X3589Y1524D02*
D03*
M02*
