M48
;Layer_Color=9474304
;FILE_FORMAT=4:2
METRIC,LZ
;TYPE=PLATED
T1F00S00C0.30
T2F00S00C1.14
T3F00S00C2.10
;TYPE=NON_PLATED
T4F00S00C0.75
%
T01
X000325Y000625
X000388Y00075
X000762
X000888
X001012
X001138
X0007Y000625
X001675Y000725
X002888Y00075
X00317Y00076
X00328Y000755
X003388Y00075
X003479Y000786
X00345Y000625
X003477Y000456
X003368Y000443
X003392Y000202
X003502Y000203
X003603Y000245
X003681Y000323
X003825Y000375
X003888Y0005
X00395Y000625
X004075
X0042
X004138Y00075
X004012
X003888
X003721Y000753
Y000643
X003825Y000625
X003283Y000214
X003187Y000268
X003121Y000356
X00295Y000375
Y000875
X002888Y001
X00295Y001125
X002888Y00125
X00295Y001375
X002888Y0015
X00295Y001625
X00295Y0018
X003012Y00175
X003138
X003325Y0018
X003388Y00175
X00345Y001625
X003325
X003388Y0015
X003512
X003589Y001524
X0037Y001625
X003825
X00395
X004075
X0042
X004138Y00175
X004012
X003888
X003762
X003825Y001875
X00395
X003888Y002
X003762
X003825Y002125
X00395
X004012Y00225
X004138
X003888
X003762
X003638
X003512
X003388
X003262
X003224Y002161
X00345Y002125
X003512Y002
X00345Y001375
X003325
X0032
X003262Y0015
X003138
Y00125
X003262
X003388
X003492Y001254
X003469Y001146
Y001036
X003388Y001
X003262
X003138
X0032Y001125
X003325
Y000875
X0032
X003469Y000895
X003731Y000862
X003714Y000971
X003708Y001264
X0037Y001375
X0027
X002638Y0015
Y00175
X002512
X002388
X00245Y001625
X002325
X002388Y0015
X002262
X002138
X0022Y001375
X002325
X00245
X002388Y00125
X002262
X002138
X002012
X001888
X00195Y001125
X002075
X0022
X002325
X00245
X002388Y001
X002262
X002138
X002012
X001888
X001762
X001617
X001512
X001575Y001125
X001638Y00125
X001512
X001575Y001375
X0017
X001762Y0015
X001888
X00195Y001625
X001825
X0017
X001575
X00145
X001512Y0015
X001638
X00145Y001375
Y001875
X001888Y00175
X002012
X002138
X002075Y001375
Y000875
X0022
X002325
X00245
X0027
X002638Y001
X0027Y001125
X002638Y00125
X002825Y0018
X001825Y001125
X00195Y000875
X001075
X00095
X00085
X000775Y001025
Y00125
X00085Y001375
X000982Y001476
Y001576
X001082
X001182
X001282
X001175Y001675
X000982Y001675
X000762Y00175
X0007Y001875
X000575
X00045
X000512Y002
X000638
X000575Y002125
X00045
X000325Y001625
X000388Y0015
X000325Y001375
X000388Y00125
X000512
Y001
X000388
X000325Y001125
Y000875
X001012Y001
X001274Y001236
X001388Y00125
X0012Y001375
X001157Y00185
X001388Y002
T02
X000254Y000127
X000508
X000762
X001016
X00127
X001524
X001778
X002032
X002286
X00254
X002794
X003048
Y002286
X002794
X00254
X002286
X002032
X001778
X001524
X00127
X001016
X000762
X000508
X000254
T03
X0003Y0004
X0041
Y002
X0003
T04
X000491Y000855
Y001431
M30
