G04*
G04 #@! TF.GenerationSoftware,Altium Limited,Altium Designer,23.0.1 (38)*
G04*
G04 Layer_Color=8421504*
%FSLAX42Y42*%
%MOMM*%
G71*
G04*
G04 #@! TF.SameCoordinates,4B5A5796-3E78-4C8B-B500-2B098A217CAC*
G04*
G04*
G04 #@! TF.FilePolarity,Positive*
G04*
G01*
G75*
G04:AMPARAMS|DCode=15|XSize=1.8mm|YSize=1.5mm|CornerRadius=0.15mm|HoleSize=0mm|Usage=FLASHONLY|Rotation=270.000|XOffset=0mm|YOffset=0mm|HoleType=Round|Shape=RoundedRectangle|*
%AMROUNDEDRECTD15*
21,1,1.80,1.20,0,0,270.0*
21,1,1.50,1.50,0,0,270.0*
1,1,0.30,-0.60,-0.75*
1,1,0.30,-0.60,0.75*
1,1,0.30,0.60,0.75*
1,1,0.30,0.60,-0.75*
%
%ADD15ROUNDEDRECTD15*%
G04:AMPARAMS|DCode=16|XSize=1.8mm|YSize=1.2mm|CornerRadius=0.12mm|HoleSize=0mm|Usage=FLASHONLY|Rotation=90.000|XOffset=0mm|YOffset=0mm|HoleType=Round|Shape=RoundedRectangle|*
%AMROUNDEDRECTD16*
21,1,1.80,0.96,0,0,90.0*
21,1,1.56,1.20,0,0,90.0*
1,1,0.24,0.48,0.78*
1,1,0.24,0.48,-0.78*
1,1,0.24,-0.48,-0.78*
1,1,0.24,-0.48,0.78*
%
%ADD16ROUNDEDRECTD16*%
G04:AMPARAMS|DCode=17|XSize=0.3mm|YSize=1.45mm|CornerRadius=0.05mm|HoleSize=0mm|Usage=FLASHONLY|Rotation=90.000|XOffset=0mm|YOffset=0mm|HoleType=Round|Shape=RoundedRectangle|*
%AMROUNDEDRECTD17*
21,1,0.30,1.36,0,0,90.0*
21,1,0.21,1.45,0,0,90.0*
1,1,0.09,0.68,0.11*
1,1,0.09,0.68,-0.11*
1,1,0.09,-0.68,-0.11*
1,1,0.09,-0.68,0.11*
%
%ADD17ROUNDEDRECTD17*%
%ADD18R,4.90X1.60*%
%ADD19R,3.81X1.50*%
%ADD20R,1.00X0.80*%
%ADD21R,1.00X0.60*%
%ADD22R,0.80X1.00*%
%ADD23R,0.60X0.95*%
%ADD24R,1.00X1.45*%
%ADD25R,1.45X1.00*%
G04:AMPARAMS|DCode=26|XSize=1.27mm|YSize=0.31mm|CornerRadius=0.08mm|HoleSize=0mm|Usage=FLASHONLY|Rotation=0.000|XOffset=0mm|YOffset=0mm|HoleType=Round|Shape=RoundedRectangle|*
%AMROUNDEDRECTD26*
21,1,1.27,0.15,0,0,0.0*
21,1,1.11,0.31,0,0,0.0*
1,1,0.16,0.55,-0.07*
1,1,0.16,-0.55,-0.07*
1,1,0.16,-0.55,0.07*
1,1,0.16,0.55,0.07*
%
%ADD26ROUNDEDRECTD26*%
G04:AMPARAMS|DCode=27|XSize=0.86mm|YSize=1.35mm|CornerRadius=0.22mm|HoleSize=0mm|Usage=FLASHONLY|Rotation=270.000|XOffset=0mm|YOffset=0mm|HoleType=Round|Shape=RoundedRectangle|*
%AMROUNDEDRECTD27*
21,1,0.86,0.91,0,0,270.0*
21,1,0.42,1.35,0,0,270.0*
1,1,0.44,-0.46,-0.21*
1,1,0.44,-0.46,0.21*
1,1,0.44,0.46,0.21*
1,1,0.44,0.46,-0.21*
%
%ADD27ROUNDEDRECTD27*%
%ADD28R,0.95X0.60*%
%ADD29R,0.80X1.60*%
G36*
X707Y905D02*
X708Y855D01*
X708Y854D01*
X707Y852D01*
X705Y851D01*
X703Y850D01*
X703Y850D01*
X703Y850D01*
X568Y850D01*
X567Y850D01*
X565Y851D01*
X563Y852D01*
X563Y854D01*
X563Y855D01*
Y855D01*
X563Y905D01*
X563Y906D01*
X563Y908D01*
X565Y909D01*
X567Y910D01*
X568Y910D01*
X568D01*
X703Y910D01*
X703D01*
X705Y909D01*
X707Y908D01*
X707Y906D01*
X707Y905D01*
X707Y905D01*
D02*
G37*
G36*
Y985D02*
X708Y935D01*
X708Y934D01*
X707Y932D01*
X705Y931D01*
X703Y930D01*
X703Y930D01*
X703Y930D01*
X568Y930D01*
X567Y930D01*
X565Y931D01*
X563Y932D01*
X563Y934D01*
X563Y935D01*
Y935D01*
X563Y985D01*
X563Y986D01*
X563Y988D01*
X565Y989D01*
X567Y990D01*
X568Y990D01*
X568D01*
X703Y990D01*
X703D01*
X705Y989D01*
X707Y988D01*
X707Y986D01*
X707Y985D01*
X707Y985D01*
D02*
G37*
G36*
X707Y1555D02*
X707Y1505D01*
X707Y1504D01*
X707Y1502D01*
X705Y1501D01*
X703Y1500D01*
X703Y1500D01*
X703Y1500D01*
X568Y1500D01*
X567Y1500D01*
X565Y1501D01*
X563Y1502D01*
X562Y1504D01*
X562Y1505D01*
Y1505D01*
X563Y1555D01*
X563Y1556D01*
X563Y1558D01*
X565Y1559D01*
X567Y1560D01*
X567Y1560D01*
X568D01*
X703Y1560D01*
X703D01*
X705Y1559D01*
X707Y1558D01*
X707Y1556D01*
X707Y1555D01*
X707Y1555D01*
D02*
G37*
G36*
X707Y1475D02*
X708Y1425D01*
X708Y1424D01*
X707Y1422D01*
X705Y1421D01*
X703Y1420D01*
X703Y1420D01*
X703Y1420D01*
X568Y1420D01*
X567Y1420D01*
X565Y1421D01*
X563Y1422D01*
X563Y1424D01*
X563Y1425D01*
Y1425D01*
X563Y1475D01*
X563Y1476D01*
X563Y1478D01*
X565Y1479D01*
X567Y1480D01*
X568Y1480D01*
X568D01*
X703Y1480D01*
X703D01*
X705Y1479D01*
X707Y1478D01*
X707Y1476D01*
X707Y1475D01*
X707Y1475D01*
D02*
G37*
D15*
X545Y697D02*
D03*
Y1713D02*
D03*
D16*
X127D02*
D03*
Y697D02*
D03*
D17*
X635Y1330D02*
D03*
Y1230D02*
D03*
Y1180D02*
D03*
Y1080D02*
D03*
Y1030D02*
D03*
Y1130D02*
D03*
Y1280D02*
D03*
Y1380D02*
D03*
D18*
X4025Y1397D02*
D03*
Y889D02*
D03*
D19*
X4056Y1143D02*
D03*
D20*
X3600Y1157D02*
D03*
Y1293D02*
D03*
X1300Y1332D02*
D03*
Y1468D02*
D03*
X3600Y1018D02*
D03*
Y882D02*
D03*
D21*
X855Y1670D02*
D03*
Y1575D02*
D03*
Y1480D02*
D03*
X1095D02*
D03*
Y1670D02*
D03*
D22*
X1107Y2050D02*
D03*
X1243D02*
D03*
X957Y1325D02*
D03*
X1093D02*
D03*
X3608Y475D02*
D03*
X3742D02*
D03*
D23*
X950Y2050D02*
D03*
X800D02*
D03*
D24*
X870Y1850D02*
D03*
X1030D02*
D03*
D25*
X1300Y1695D02*
D03*
Y1855D02*
D03*
D26*
X1302Y1175D02*
D03*
Y1125D02*
D03*
Y1075D02*
D03*
Y1025D02*
D03*
Y975D02*
D03*
X898D02*
D03*
Y1025D02*
D03*
Y1075D02*
D03*
Y1125D02*
D03*
Y1175D02*
D03*
D27*
X3600Y1907D02*
D03*
Y2093D02*
D03*
D28*
Y1750D02*
D03*
Y1600D02*
D03*
D29*
X3085Y600D02*
D03*
X3212D02*
D03*
X3339Y2000D02*
D03*
X3212D02*
D03*
X3339Y600D02*
D03*
X1688D02*
D03*
X1815D02*
D03*
X1942D02*
D03*
X2069D02*
D03*
X2196D02*
D03*
X2323D02*
D03*
X2577D02*
D03*
X2704D02*
D03*
X2831D02*
D03*
X2958D02*
D03*
X1561D02*
D03*
X3085Y2000D02*
D03*
X2958D02*
D03*
X2831D02*
D03*
X2704D02*
D03*
X2577D02*
D03*
X2450D02*
D03*
X2196D02*
D03*
X2069D02*
D03*
X1942D02*
D03*
X1815D02*
D03*
X1688D02*
D03*
X1561D02*
D03*
X2450Y600D02*
D03*
X2323Y2000D02*
D03*
M02*
