G04*
G04 #@! TF.GenerationSoftware,Altium Limited,Altium Designer,23.0.1 (38)*
G04*
G04 Layer_Color=32896*
%FSLAX42Y42*%
%MOMM*%
G71*
G04*
G04 #@! TF.SameCoordinates,4B5A5796-3E78-4C8B-B500-2B098A217CAC*
G04*
G04*
G04 #@! TF.FilePolarity,Positive*
G04*
G01*
G75*
%ADD11C,0.20*%
%ADD12C,0.15*%
%ADD13C,0.12*%
D11*
X812Y1495D02*
Y1505D01*
X888Y1495D02*
Y1505D01*
X595Y1838D02*
X605D01*
X595Y1762D02*
X605D01*
D12*
X3215Y598D02*
X3248Y565D01*
X3282D01*
X3315Y598D01*
X3282Y715D02*
Y665D01*
X3265Y648D01*
X3232D01*
X3215Y665D01*
Y715D01*
Y748D02*
X3248Y782D01*
X3282D01*
X3315Y748D01*
X3298Y998D02*
X3315Y982D01*
Y948D01*
X3298Y932D01*
X3232D01*
X3215Y948D01*
Y982D01*
X3232Y998D01*
X3265D01*
Y965D01*
X3315Y1032D02*
X3215D01*
Y1081D01*
X3232Y1098D01*
X3248D01*
X3265Y1081D01*
Y1032D01*
Y1081D01*
X3282Y1098D01*
X3298D01*
X3315Y1081D01*
Y1032D01*
Y1131D02*
X3215D01*
Y1198D01*
Y1398D02*
Y1331D01*
X3282Y1398D01*
X3298D01*
X3315Y1381D01*
Y1348D01*
X3298Y1331D01*
Y1431D02*
X3315Y1448D01*
Y1481D01*
X3298Y1498D01*
X3232D01*
X3215Y1481D01*
Y1448D01*
X3232Y1431D01*
X3298D01*
X3215Y1598D02*
Y1531D01*
X3282Y1598D01*
X3298D01*
X3315Y1581D01*
Y1548D01*
X3298Y1531D01*
X3315Y1698D02*
Y1631D01*
X3265D01*
X3282Y1665D01*
Y1681D01*
X3265Y1698D01*
X3232D01*
X3215Y1681D01*
Y1648D01*
X3232Y1631D01*
X3490Y415D02*
X3390D01*
X3423Y448D01*
X3390Y482D01*
X3490D01*
Y515D02*
X3390D01*
Y582D01*
X3490Y682D02*
Y615D01*
X3390D01*
Y682D01*
X3440Y615D02*
Y648D01*
X3490Y782D02*
Y715D01*
X3440D01*
X3457Y748D01*
Y765D01*
X3440Y782D01*
X3407D01*
X3390Y765D01*
Y732D01*
X3407Y715D01*
X3490Y915D02*
X3390D01*
Y965D01*
X3407Y981D01*
X3473D01*
X3490Y965D01*
Y915D01*
Y1065D02*
Y1031D01*
X3473Y1015D01*
X3407D01*
X3390Y1031D01*
Y1065D01*
X3407Y1081D01*
X3473D01*
X3490Y1065D01*
X3390Y1115D02*
X3490D01*
X3390Y1181D01*
X3490D01*
X3473Y1281D02*
X3490Y1265D01*
Y1231D01*
X3473Y1215D01*
X3407D01*
X3390Y1231D01*
Y1265D01*
X3407Y1281D01*
X3440D01*
Y1248D01*
X3490Y1315D02*
X3390D01*
Y1381D01*
X3490Y1481D02*
Y1415D01*
X3390D01*
Y1481D01*
X3440Y1415D02*
Y1448D01*
X3457Y1615D02*
X3390Y1648D01*
X3457Y1681D01*
X3390Y1715D02*
Y1748D01*
Y1731D01*
X3490D01*
X3473Y1715D01*
X3390Y1798D02*
X3407D01*
Y1815D01*
X3390D01*
Y1798D01*
X3473Y1881D02*
X3490Y1898D01*
Y1931D01*
X3473Y1948D01*
X3407D01*
X3390Y1931D01*
Y1898D01*
X3407Y1881D01*
X3473D01*
X3615Y1040D02*
X3715D01*
Y1090D01*
X3698Y1107D01*
X3665D01*
X3648Y1090D01*
Y1040D01*
Y1073D02*
X3615Y1107D01*
X3715Y1207D02*
Y1140D01*
X3665D01*
Y1173D01*
Y1140D01*
X3615D01*
X265Y640D02*
X365D01*
Y690D01*
X348Y707D01*
X315D01*
X298Y690D01*
Y640D01*
X365Y740D02*
X265D01*
Y790D01*
X282Y807D01*
X298D01*
X315Y790D01*
Y740D01*
Y790D01*
X332Y807D01*
X348D01*
X365Y790D01*
Y740D01*
X348Y840D02*
X365Y857D01*
Y890D01*
X348Y907D01*
X332D01*
X315Y890D01*
Y873D01*
Y890D01*
X298Y907D01*
X282D01*
X265Y890D01*
Y857D01*
X282Y840D01*
X515Y340D02*
X615D01*
Y390D01*
X598Y407D01*
X565D01*
X548Y390D01*
Y340D01*
X615Y440D02*
X515D01*
Y490D01*
X532Y507D01*
X548D01*
X565Y490D01*
Y440D01*
Y490D01*
X582Y507D01*
X598D01*
X615Y490D01*
Y440D01*
Y607D02*
Y540D01*
X565D01*
X582Y573D01*
Y590D01*
X565Y607D01*
X532D01*
X515Y590D01*
Y557D01*
X532Y540D01*
X690Y340D02*
X790D01*
Y390D01*
X773Y407D01*
X740D01*
X723Y390D01*
Y340D01*
X790Y440D02*
X690D01*
Y490D01*
X707Y507D01*
X723D01*
X740Y490D01*
Y440D01*
Y490D01*
X757Y507D01*
X773D01*
X790Y490D01*
Y440D01*
Y607D02*
X773Y573D01*
X740Y540D01*
X707D01*
X690Y557D01*
Y590D01*
X707Y607D01*
X723D01*
X740Y590D01*
Y540D01*
X965Y340D02*
X1065D01*
Y390D01*
X1048Y407D01*
X1015D01*
X998Y390D01*
Y340D01*
X1065Y440D02*
X965D01*
Y490D01*
X982Y507D01*
X998D01*
X1015Y490D01*
Y440D01*
Y490D01*
X1032Y507D01*
X1048D01*
X1065Y490D01*
Y440D01*
Y540D02*
Y607D01*
X1048D01*
X982Y540D01*
X965D01*
X1215Y340D02*
X1315D01*
Y390D01*
X1298Y407D01*
X1265D01*
X1248Y390D01*
Y340D01*
X1315Y440D02*
X1215D01*
Y490D01*
X1232Y507D01*
X1248D01*
X1265Y490D01*
Y440D01*
Y490D01*
X1282Y507D01*
X1298D01*
X1315Y490D01*
Y440D01*
X1298Y540D02*
X1315Y557D01*
Y590D01*
X1298Y607D01*
X1282D01*
X1265Y590D01*
X1248Y607D01*
X1232D01*
X1215Y590D01*
Y557D01*
X1232Y540D01*
X1248D01*
X1265Y557D01*
X1282Y540D01*
X1298D01*
X1265Y557D02*
Y590D01*
X1465Y340D02*
X1565D01*
Y390D01*
X1548Y407D01*
X1515D01*
X1498Y390D01*
Y340D01*
X1465Y440D02*
X1532D01*
X1565Y473D01*
X1532Y507D01*
X1465D01*
X1515D01*
Y440D01*
X1548Y540D02*
X1565Y557D01*
Y590D01*
X1548Y607D01*
X1482D01*
X1465Y590D01*
Y557D01*
X1482Y540D01*
X1548D01*
X1715Y340D02*
X1815D01*
Y390D01*
X1798Y407D01*
X1765D01*
X1748Y390D01*
Y340D01*
X1715Y440D02*
X1782D01*
X1815Y473D01*
X1782Y507D01*
X1715D01*
X1765D01*
Y440D01*
X1715Y540D02*
Y573D01*
Y557D01*
X1815D01*
X1798Y540D01*
X1965Y340D02*
X2065D01*
Y390D01*
X2048Y407D01*
X2015D01*
X1998Y390D01*
Y340D01*
X1965Y440D02*
X2032D01*
X2065Y473D01*
X2032Y507D01*
X1965D01*
X2015D01*
Y440D01*
X1965Y590D02*
X2065D01*
X2015Y540D01*
Y607D01*
X2215Y340D02*
X2315D01*
Y390D01*
X2298Y407D01*
X2265D01*
X2248Y390D01*
Y340D01*
X2215Y440D02*
X2282D01*
X2315Y473D01*
X2282Y507D01*
X2215D01*
X2265D01*
Y440D01*
X2315Y607D02*
Y540D01*
X2265D01*
X2282Y573D01*
Y590D01*
X2265Y607D01*
X2232D01*
X2215Y590D01*
Y557D01*
X2232Y540D01*
X2490Y340D02*
X2590D01*
Y390D01*
X2573Y407D01*
X2540D01*
X2523Y390D01*
Y340D01*
X2490Y440D02*
X2557D01*
X2590Y473D01*
X2557Y507D01*
X2490D01*
X2540D01*
Y440D01*
X2490Y540D02*
Y573D01*
Y557D01*
X2590D01*
X2573Y540D01*
X2490Y623D02*
Y657D01*
Y640D01*
X2590D01*
X2573Y623D01*
X2740Y340D02*
X2840D01*
Y390D01*
X2823Y407D01*
X2790D01*
X2773Y390D01*
Y340D01*
X2740Y440D02*
X2807D01*
X2840Y473D01*
X2807Y507D01*
X2740D01*
X2790D01*
Y440D01*
X2740Y540D02*
Y573D01*
Y557D01*
X2840D01*
X2823Y540D01*
X2740Y690D02*
Y623D01*
X2807Y690D01*
X2823D01*
X2840Y673D01*
Y640D01*
X2823Y623D01*
X2990Y340D02*
X3090D01*
Y390D01*
X3073Y407D01*
X3040D01*
X3023Y390D01*
Y340D01*
X2990Y440D02*
X3057D01*
X3090Y473D01*
X3057Y507D01*
X2990D01*
X3040D01*
Y440D01*
X3073Y540D02*
X3090Y557D01*
Y590D01*
X3073Y607D01*
X3057D01*
X3040Y590D01*
X3023Y607D01*
X3007D01*
X2990Y590D01*
Y557D01*
X3007Y540D01*
X3023D01*
X3040Y557D01*
X3057Y540D01*
X3073D01*
X3040Y557D02*
Y590D01*
X315Y1540D02*
Y1607D01*
X348Y1573D02*
X282D01*
X365Y1707D02*
Y1640D01*
X315D01*
X332Y1673D01*
Y1690D01*
X315Y1707D01*
X282D01*
X265Y1690D01*
Y1657D01*
X282Y1640D01*
X365Y1740D02*
X298D01*
X265Y1773D01*
X298Y1807D01*
X365D01*
X578Y1944D02*
X595Y1927D01*
Y1894D01*
X578Y1877D01*
X512D01*
X495Y1894D01*
Y1927D01*
X512Y1944D01*
X545D01*
Y1911D01*
X495Y1977D02*
X595D01*
X495Y2044D01*
X595D01*
Y2077D02*
X495D01*
Y2127D01*
X512Y2144D01*
X578D01*
X595Y2127D01*
Y2077D01*
X815Y1890D02*
X748D01*
X715Y1923D01*
X748Y1957D01*
X815D01*
X798Y2057D02*
X815Y2040D01*
Y2007D01*
X798Y1990D01*
X732D01*
X715Y2007D01*
Y2040D01*
X732Y2057D01*
X798Y2157D02*
X815Y2140D01*
Y2107D01*
X798Y2090D01*
X732D01*
X715Y2107D01*
Y2140D01*
X732Y2157D01*
X965Y1690D02*
X1065D01*
X965Y1757D01*
X1065D01*
X965Y1790D02*
X1065D01*
Y1840D01*
X1048Y1857D01*
X1015D01*
X998Y1840D01*
Y1790D01*
Y1823D02*
X965Y1857D01*
X1048Y1957D02*
X1065Y1940D01*
Y1907D01*
X1048Y1890D01*
X1032D01*
X1015Y1907D01*
Y1940D01*
X998Y1957D01*
X982D01*
X965Y1940D01*
Y1907D01*
X982Y1890D01*
X1065Y1990D02*
Y2057D01*
Y2023D01*
X965D01*
X1298Y1657D02*
X1315Y1640D01*
Y1607D01*
X1298Y1590D01*
X1282D01*
X1265Y1607D01*
Y1640D01*
X1248Y1657D01*
X1232D01*
X1215Y1640D01*
Y1607D01*
X1232Y1590D01*
X1315Y1690D02*
X1215D01*
X1248Y1723D01*
X1215Y1757D01*
X1315D01*
X1298Y1857D02*
X1315Y1840D01*
Y1807D01*
X1298Y1790D01*
X1232D01*
X1215Y1807D01*
Y1840D01*
X1232Y1857D01*
X1315Y1890D02*
X1215D01*
Y1957D01*
X1315Y1990D02*
X1215D01*
X1248D01*
X1315Y2057D01*
X1265Y2007D01*
X1215Y2057D01*
X1548Y1682D02*
X1565Y1665D01*
Y1632D01*
X1548Y1615D01*
X1532D01*
X1515Y1632D01*
Y1665D01*
X1498Y1682D01*
X1482D01*
X1465Y1665D01*
Y1632D01*
X1482Y1615D01*
X1565Y1715D02*
X1465D01*
X1498Y1748D01*
X1465Y1782D01*
X1565D01*
Y1815D02*
X1465D01*
Y1865D01*
X1482Y1882D01*
X1548D01*
X1565Y1865D01*
Y1815D01*
Y1915D02*
Y1948D01*
Y1932D01*
X1465D01*
Y1915D01*
Y1948D01*
X1565Y2048D02*
Y2015D01*
X1548Y1998D01*
X1482D01*
X1465Y2015D01*
Y2048D01*
X1482Y2065D01*
X1548D01*
X1565Y2048D01*
X1740Y1715D02*
X1840D01*
Y1765D01*
X1823Y1782D01*
X1790D01*
X1773Y1765D01*
Y1715D01*
X1823Y1882D02*
X1840Y1865D01*
Y1832D01*
X1823Y1815D01*
X1757D01*
X1740Y1832D01*
Y1865D01*
X1757Y1882D01*
X1740Y1915D02*
Y1948D01*
Y1932D01*
X1840D01*
X1823Y1915D01*
Y1998D02*
X1840Y2015D01*
Y2048D01*
X1823Y2065D01*
X1807D01*
X1790Y2048D01*
Y2032D01*
Y2048D01*
X1773Y2065D01*
X1757D01*
X1740Y2048D01*
Y2015D01*
X1757Y1998D01*
X1990Y1715D02*
X2090D01*
Y1765D01*
X2073Y1782D01*
X2040D01*
X2023Y1765D01*
Y1715D01*
X1990Y1815D02*
X2057D01*
X2090Y1848D01*
X2057Y1882D01*
X1990D01*
X2040D01*
Y1815D01*
X1990Y1915D02*
Y1948D01*
Y1932D01*
X2090D01*
X2073Y1915D01*
X2090Y2065D02*
Y1998D01*
X2040D01*
X2057Y2032D01*
Y2048D01*
X2040Y2065D01*
X2007D01*
X1990Y2048D01*
Y2015D01*
X2007Y1998D01*
X2241Y1785D02*
X2341D01*
Y1835D01*
X2324Y1852D01*
X2291D01*
X2274Y1835D01*
Y1785D01*
X2341Y1885D02*
X2241D01*
Y1935D01*
X2258Y1952D01*
X2274D01*
X2291Y1935D01*
Y1885D01*
Y1935D01*
X2308Y1952D01*
X2324D01*
X2341Y1935D01*
Y1885D01*
X2241Y2052D02*
Y1985D01*
X2308Y2052D01*
X2324D01*
X2341Y2035D01*
Y2002D01*
X2324Y1985D01*
X2490Y1690D02*
X2590D01*
Y1740D01*
X2573Y1757D01*
X2540D01*
X2523Y1740D01*
Y1690D01*
X2590Y1790D02*
X2490D01*
Y1840D01*
X2507Y1857D01*
X2523D01*
X2540Y1840D01*
Y1790D01*
Y1840D01*
X2557Y1857D01*
X2573D01*
X2590Y1840D01*
Y1790D01*
X2490Y1890D02*
Y1923D01*
Y1907D01*
X2590D01*
X2573Y1890D01*
X2490Y2040D02*
Y1973D01*
X2557Y2040D01*
X2573D01*
X2590Y2023D01*
Y1990D01*
X2573Y1973D01*
X2740Y1690D02*
X2840D01*
Y1740D01*
X2823Y1757D01*
X2790D01*
X2773Y1740D01*
Y1690D01*
X2740Y1790D02*
X2807D01*
X2840Y1823D01*
X2807Y1857D01*
X2740D01*
X2790D01*
Y1790D01*
X2740Y1890D02*
Y1923D01*
Y1907D01*
X2840D01*
X2823Y1890D01*
Y1973D02*
X2840Y1990D01*
Y2023D01*
X2823Y2040D01*
X2757D01*
X2740Y2023D01*
Y1990D01*
X2757Y1973D01*
X2823D01*
X2990Y1790D02*
X3090D01*
Y1840D01*
X3073Y1857D01*
X3040D01*
X3023Y1840D01*
Y1790D01*
X2990Y1890D02*
X3057D01*
X3090Y1923D01*
X3057Y1957D01*
X2990D01*
X3040D01*
Y1890D01*
X3007Y1990D02*
X2990Y2007D01*
Y2040D01*
X3007Y2057D01*
X3073D01*
X3090Y2040D01*
Y2007D01*
X3073Y1990D01*
X3057D01*
X3040Y2007D01*
Y2057D01*
D13*
X685Y1433D02*
X765D01*
Y1473D01*
X752Y1487D01*
X725D01*
X712Y1473D01*
Y1433D01*
Y1460D02*
X685Y1487D01*
Y1567D02*
Y1513D01*
X738Y1567D01*
X752D01*
X765Y1553D01*
Y1527D01*
X752Y1513D01*
X853Y1760D02*
Y1840D01*
X813D01*
X800Y1827D01*
Y1800D01*
X813Y1787D01*
X853D01*
X827D02*
X800Y1760D01*
X773D02*
X747D01*
X760D01*
Y1840D01*
X773Y1827D01*
M02*
