M48
;Layer_Color=9474304
;FILE_FORMAT=4:2
METRIC,LZ
;TYPE=PLATED
T1F00S00C0.30
T3F00S00C1.14
T4F00S00C2.10
;TYPE=NON_PLATED
T5F00S00C0.75
%
T01
X001675Y000725
X00317Y00076
X00328Y000755
X003479Y000786
X003721Y000753
Y000643
X003825Y000625
X004075
X003681Y000323
X003603Y000245
X003502Y000203
X003392Y000202
X003283Y000214
X003187Y000268
X003121Y000356
X00295Y000375
X003368Y000443
X003477Y000456
X003469Y000895
Y001036
Y001146
X003492Y001254
X00345Y001375
X0037
X003708Y001264
X003714Y000971
X003731Y000862
X0032Y000875
X00295
X0027
X00245
X0022
X00195
X002075Y001125
X002325
X00245Y001375
X0027
X00295
X0032
X003325Y001625
X003325Y0018
X00295
X002825
X002325Y001625
X0022Y001375
X0017
X00145
X001575Y001625
X001825
Y001125
X001575
X00145Y001875
X003224Y002161
X003825Y002125
X00395Y001875
X004075Y001625
X003825
X003589Y001524
X003325Y001125
X001274Y001236
X0012Y001375
X001182Y001576
X001282
X001082
X000982
Y001675
X001175Y001675
X00111Y001846
X000775Y0018
X00045Y001875
X000575Y002125
X00045Y001375
X000776Y001277
X00085Y001325
X000982Y001476
X00095Y000875
X00085
X000775Y001025
T03
X000254Y000127
X000508
X000762
X001016
X00127
X001524
X001778
X002032
X002286
X00254
X002794
X003048
Y002286
X002794
X00254
X002286
X002032
X001778
X001524
X00127
X001016
X000762
X000508
X000254
T04
X0003Y0004
X0041
Y002
X0003
T05
X000491Y000916
Y001494
M30
