G04*
G04 #@! TF.GenerationSoftware,Altium Limited,Altium Designer,23.0.1 (38)*
G04*
G04 Layer_Color=8421504*
%FSLAX42Y42*%
%MOMM*%
G71*
G04*
G04 #@! TF.SameCoordinates,11CD51D0-70BF-4863-A242-58D7B7C6D63D*
G04*
G04*
G04 #@! TF.FilePolarity,Positive*
G04*
G01*
G75*
%ADD15R,0.80X1.00*%
%ADD16R,0.60X0.95*%
%ADD17R,4.90X1.60*%
%ADD18R,3.81X1.50*%
G04:AMPARAMS|DCode=19|XSize=1.6mm|YSize=1.6mm|CornerRadius=0.14mm|HoleSize=0mm|Usage=FLASHONLY|Rotation=0.000|XOffset=0mm|YOffset=0mm|HoleType=Round|Shape=RoundedRectangle|*
%AMROUNDEDRECTD19*
21,1,1.60,1.31,0,0,0.0*
21,1,1.31,1.60,0,0,0.0*
1,1,0.29,0.66,-0.66*
1,1,0.29,-0.66,-0.66*
1,1,0.29,-0.66,0.66*
1,1,0.29,0.66,0.66*
%
%ADD19ROUNDEDRECTD19*%
%ADD20R,1.00X0.80*%
G04:AMPARAMS|DCode=21|XSize=2.26mm|YSize=2.42mm|CornerRadius=0.25mm|HoleSize=0mm|Usage=FLASHONLY|Rotation=0.000|XOffset=0mm|YOffset=0mm|HoleType=Round|Shape=RoundedRectangle|*
%AMROUNDEDRECTD21*
21,1,2.26,1.92,0,0,0.0*
21,1,1.76,2.42,0,0,0.0*
1,1,0.50,0.88,-0.96*
1,1,0.50,-0.88,-0.96*
1,1,0.50,-0.88,0.96*
1,1,0.50,0.88,0.96*
%
%ADD21ROUNDEDRECTD21*%
%ADD22R,6.90X6.80*%
%ADD23R,1.90X0.95*%
%ADD24R,2.72X1.67*%
%ADD25R,0.60X1.00*%
D15*
X5192Y900D02*
D03*
X5058D02*
D03*
X1282Y1525D02*
D03*
X1418D02*
D03*
X1043Y1200D02*
D03*
X907D02*
D03*
X1783Y1125D02*
D03*
X1917D02*
D03*
Y950D02*
D03*
X1783D02*
D03*
D16*
X1275Y1675D02*
D03*
X1425D02*
D03*
D17*
X333Y696D02*
D03*
Y1204D02*
D03*
X5480Y1141D02*
D03*
Y634D02*
D03*
D18*
X302Y950D02*
D03*
X5510Y888D02*
D03*
D19*
X4875Y1100D02*
D03*
Y900D02*
D03*
Y700D02*
D03*
X2125Y750D02*
D03*
Y950D02*
D03*
Y1150D02*
D03*
Y1350D02*
D03*
Y1550D02*
D03*
Y1750D02*
D03*
Y1950D02*
D03*
D20*
X1900Y1808D02*
D03*
Y1942D02*
D03*
D21*
X1898Y2200D02*
D03*
X1402D02*
D03*
X553Y1525D02*
D03*
X1048D02*
D03*
D22*
X545Y2078D02*
D03*
D23*
X1175Y2306D02*
D03*
Y1850D02*
D03*
D24*
X1325Y948D02*
D03*
Y1202D02*
D03*
D25*
X1675Y1520D02*
D03*
X1770Y1280D02*
D03*
X1580D02*
D03*
M02*
