G04*
G04 #@! TF.GenerationSoftware,Altium Limited,Altium Designer,23.0.1 (38)*
G04*
G04 Layer_Physical_Order=2*
G04 Layer_Color=16711680*
%FSLAX42Y42*%
%MOMM*%
G71*
G04*
G04 #@! TF.SameCoordinates,11CD51D0-70BF-4863-A242-58D7B7C6D63D*
G04*
G04*
G04 #@! TF.FilePolarity,Positive*
G04*
G01*
G75*
%ADD14C,0.25*%
%ADD15R,0.80X1.00*%
%ADD16R,0.60X0.95*%
%ADD17R,4.90X1.60*%
%ADD25R,0.60X1.00*%
%ADD39C,0.50*%
%ADD41C,3.00*%
%ADD42C,0.60*%
%ADD43R,0.95X0.60*%
%ADD44O,1.45X0.60*%
G36*
X5767Y33D02*
X33D01*
X33Y2967D01*
X5767D01*
Y33D01*
D02*
G37*
%LPC*%
G36*
X5517Y2875D02*
X5513D01*
Y2713D01*
X5675D01*
Y2717D01*
X5669Y2751D01*
X5655Y2783D01*
X5636Y2812D01*
X5612Y2836D01*
X5583Y2855D01*
X5551Y2869D01*
X5517Y2875D01*
D02*
G37*
G36*
X5487D02*
X5483D01*
X5449Y2869D01*
X5417Y2855D01*
X5388Y2836D01*
X5364Y2812D01*
X5345Y2783D01*
X5331Y2751D01*
X5325Y2717D01*
Y2713D01*
X5487D01*
Y2875D01*
D02*
G37*
G36*
X317D02*
X313D01*
Y2713D01*
X475D01*
Y2717D01*
X469Y2751D01*
X455Y2783D01*
X436Y2812D01*
X412Y2836D01*
X383Y2855D01*
X351Y2869D01*
X317Y2875D01*
D02*
G37*
G36*
X287D02*
X283D01*
X249Y2869D01*
X217Y2855D01*
X188Y2836D01*
X164Y2812D01*
X145Y2783D01*
X131Y2751D01*
X125Y2717D01*
Y2713D01*
X287D01*
Y2875D01*
D02*
G37*
G36*
X5675Y2687D02*
X5513D01*
Y2525D01*
X5517D01*
X5551Y2531D01*
X5583Y2545D01*
X5612Y2564D01*
X5636Y2588D01*
X5655Y2617D01*
X5669Y2649D01*
X5675Y2683D01*
Y2687D01*
D02*
G37*
G36*
X5487D02*
X5325D01*
Y2683D01*
X5331Y2649D01*
X5345Y2617D01*
X5364Y2588D01*
X5388Y2564D01*
X5417Y2545D01*
X5449Y2531D01*
X5483Y2525D01*
X5487D01*
Y2687D01*
D02*
G37*
G36*
X475D02*
X313D01*
Y2525D01*
X317D01*
X351Y2531D01*
X383Y2545D01*
X412Y2564D01*
X436Y2588D01*
X455Y2617D01*
X469Y2649D01*
X475Y2683D01*
Y2687D01*
D02*
G37*
G36*
X287D02*
X125D01*
Y2683D01*
X131Y2649D01*
X145Y2617D01*
X164Y2588D01*
X188Y2564D01*
X217Y2545D01*
X249Y2531D01*
X283Y2525D01*
X287D01*
Y2687D01*
D02*
G37*
G36*
X2148Y1830D02*
X2088D01*
Y1788D01*
X2148D01*
Y1830D01*
D02*
G37*
G36*
X2062D02*
X2002D01*
Y1788D01*
X2062D01*
Y1830D01*
D02*
G37*
G36*
X2148Y1762D02*
X2088D01*
Y1720D01*
X2148D01*
Y1762D01*
D02*
G37*
G36*
X2062D02*
X2002D01*
Y1720D01*
X2062D01*
Y1762D01*
D02*
G37*
G36*
X1223Y1730D02*
X1163D01*
Y1688D01*
X1223D01*
Y1730D01*
D02*
G37*
G36*
X1137D02*
X1077D01*
Y1688D01*
X1137D01*
Y1730D01*
D02*
G37*
G36*
X1393Y1712D02*
X1363D01*
Y1669D01*
X1446D01*
X1445Y1678D01*
X1432Y1696D01*
X1414Y1708D01*
X1393Y1712D01*
D02*
G37*
G36*
X1337D02*
X1307D01*
X1286Y1708D01*
X1268Y1696D01*
X1255Y1678D01*
X1254Y1669D01*
X1337D01*
Y1712D01*
D02*
G37*
G36*
X1223Y1662D02*
X1163D01*
Y1620D01*
X1223D01*
Y1662D01*
D02*
G37*
G36*
X1137D02*
X1077D01*
Y1620D01*
X1137D01*
Y1662D01*
D02*
G37*
G36*
X1760Y2025D02*
X1740D01*
X1730Y2021D01*
X1600D01*
X1582Y2017D01*
X1568Y2007D01*
X1543Y1982D01*
X1533Y1968D01*
X1529Y1950D01*
Y1867D01*
X1450D01*
Y1733D01*
X1467D01*
Y1610D01*
X1469Y1597D01*
X1476Y1587D01*
X1480Y1583D01*
X1477Y1568D01*
X1470Y1566D01*
X1464Y1559D01*
X1432D01*
X1429Y1565D01*
X1412Y1576D01*
X1393Y1580D01*
X1307D01*
X1288Y1576D01*
X1271Y1565D01*
X1260Y1549D01*
X1257Y1529D01*
X1260Y1509D01*
X1271Y1493D01*
X1288Y1482D01*
X1307Y1478D01*
X1393D01*
X1412Y1482D01*
X1428Y1493D01*
X1458D01*
X1470Y1481D01*
X1488Y1473D01*
X1508D01*
X1522Y1479D01*
X1535Y1472D01*
Y1397D01*
X1446Y1308D01*
X1430D01*
X1429Y1311D01*
X1412Y1322D01*
X1393Y1326D01*
X1307D01*
X1288Y1322D01*
X1271Y1311D01*
X1270Y1308D01*
X1218D01*
Y1325D01*
X1082D01*
Y1225D01*
X1218D01*
Y1242D01*
X1270D01*
X1271Y1239D01*
X1288Y1228D01*
X1307Y1224D01*
X1393D01*
X1412Y1228D01*
X1429Y1239D01*
X1430Y1242D01*
X1460D01*
X1473Y1244D01*
X1484Y1251D01*
X1592Y1359D01*
X1599Y1370D01*
X1601Y1383D01*
Y1469D01*
X1614Y1473D01*
X1618Y1468D01*
X1629Y1456D01*
Y1300D01*
X1633Y1282D01*
X1643Y1268D01*
X1668Y1243D01*
X1682Y1233D01*
X1700Y1229D01*
X1831D01*
X1833Y1228D01*
X1849Y1225D01*
Y1204D01*
X1840Y1195D01*
X1833Y1195D01*
X1823Y1200D01*
X1822Y1200D01*
X1770D01*
Y1125D01*
Y1050D01*
X1822D01*
X1823Y1050D01*
X1833Y1055D01*
X1836Y1055D01*
X1952D01*
Y1079D01*
X2000D01*
Y1057D01*
X2100D01*
Y1193D01*
X2000D01*
Y1171D01*
X1952D01*
Y1195D01*
X1941D01*
Y1225D01*
X1957Y1228D01*
X1959Y1229D01*
X2008D01*
Y1225D01*
X2142D01*
Y1324D01*
X2151Y1326D01*
X2162Y1333D01*
X2193Y1365D01*
X2205Y1360D01*
Y1350D01*
X2305D01*
Y1490D01*
X2205D01*
Y1453D01*
X2201D01*
X2189Y1451D01*
X2178Y1444D01*
X2154Y1420D01*
X2142Y1425D01*
Y1475D01*
X2108D01*
Y1575D01*
X2142D01*
Y1675D01*
X2008D01*
Y1575D01*
X2008D01*
X2007Y1562D01*
X1975D01*
X1974Y1565D01*
X1957Y1576D01*
X1938Y1580D01*
X1852D01*
X1833Y1576D01*
X1816Y1565D01*
X1805Y1549D01*
X1802Y1529D01*
X1805Y1509D01*
X1816Y1493D01*
X1833Y1482D01*
X1852Y1478D01*
X1938D01*
X1957Y1482D01*
X1974Y1493D01*
X1975Y1496D01*
X2042D01*
Y1475D01*
X2008D01*
Y1431D01*
X1995Y1426D01*
X1987Y1431D01*
X1977Y1433D01*
X1974Y1438D01*
X1957Y1449D01*
X1938Y1453D01*
X1852D01*
X1833Y1449D01*
X1816Y1438D01*
X1814Y1434D01*
X1793D01*
X1784Y1443D01*
X1783Y1444D01*
Y1733D01*
X1800D01*
Y1867D01*
X1850D01*
Y1733D01*
X1867D01*
Y1707D01*
X1852D01*
X1833Y1703D01*
X1816Y1692D01*
X1805Y1676D01*
X1802Y1656D01*
X1805Y1636D01*
X1816Y1620D01*
X1833Y1609D01*
X1852Y1605D01*
X1938D01*
X1957Y1609D01*
X1974Y1620D01*
X1985Y1636D01*
X1988Y1656D01*
X1985Y1676D01*
X1974Y1692D01*
X1957Y1703D01*
X1938Y1707D01*
X1933D01*
Y1733D01*
X1950D01*
Y1867D01*
X1931D01*
Y1877D01*
X1929Y1890D01*
X1921Y1901D01*
X1899Y1924D01*
X1888Y1931D01*
X1875Y1933D01*
X1796D01*
X1791Y1945D01*
X1792Y1947D01*
X1800Y1965D01*
Y1985D01*
X1792Y2003D01*
X1778Y2017D01*
X1760Y2025D01*
D02*
G37*
G36*
X1446Y1643D02*
X1363D01*
Y1600D01*
X1393D01*
X1414Y1604D01*
X1432Y1616D01*
X1445Y1634D01*
X1446Y1643D01*
D02*
G37*
G36*
X1337D02*
X1254D01*
X1255Y1634D01*
X1268Y1616D01*
X1286Y1604D01*
X1307Y1600D01*
X1337D01*
Y1643D01*
D02*
G37*
G36*
X2500Y1495D02*
X2458D01*
Y1433D01*
X2500D01*
Y1495D01*
D02*
G37*
G36*
X2432D02*
X2390D01*
Y1433D01*
X2432D01*
Y1495D01*
D02*
G37*
G36*
X1218Y1575D02*
X1082D01*
Y1488D01*
X1082Y1475D01*
X1082D01*
Y1475D01*
X1082D01*
Y1375D01*
X1218D01*
Y1392D01*
X1236D01*
X1243Y1385D01*
X1254Y1378D01*
X1265Y1376D01*
X1271Y1366D01*
X1288Y1355D01*
X1307Y1351D01*
X1393D01*
X1412Y1355D01*
X1429Y1366D01*
X1440Y1382D01*
X1443Y1402D01*
X1440Y1422D01*
X1429Y1438D01*
X1412Y1449D01*
X1393Y1453D01*
X1307D01*
X1288Y1449D01*
X1279Y1443D01*
X1274Y1449D01*
X1263Y1456D01*
X1250Y1458D01*
X1226D01*
X1218Y1467D01*
Y1475D01*
X1218D01*
Y1475D01*
X1218D01*
Y1575D01*
D02*
G37*
G36*
X2500Y1407D02*
X2458D01*
Y1345D01*
X2500D01*
Y1407D01*
D02*
G37*
G36*
X2432D02*
X2390D01*
Y1345D01*
X2432D01*
Y1407D01*
D02*
G37*
G36*
X2300Y1250D02*
X2294Y1246D01*
X2285Y1250D01*
X2265D01*
X2247Y1242D01*
X2233Y1228D01*
X2225Y1210D01*
Y1197D01*
X2221Y1193D01*
X2217D01*
X2214Y1193D01*
X2150D01*
Y1057D01*
X2250D01*
Y1131D01*
X2258Y1136D01*
X2272Y1150D01*
X2285D01*
X2289Y1152D01*
X2300Y1145D01*
Y1110D01*
X2400D01*
Y1250D01*
X2300D01*
Y1250D01*
D02*
G37*
G36*
X1745Y1200D02*
X1692D01*
Y1138D01*
X1745D01*
Y1200D01*
D02*
G37*
G36*
Y1112D02*
X1692D01*
Y1050D01*
X1745D01*
Y1112D01*
D02*
G37*
G36*
X5517Y475D02*
X5513D01*
Y313D01*
X5675D01*
Y317D01*
X5669Y351D01*
X5655Y383D01*
X5636Y412D01*
X5612Y436D01*
X5583Y455D01*
X5551Y469D01*
X5517Y475D01*
D02*
G37*
G36*
X5487D02*
X5483D01*
X5449Y469D01*
X5417Y455D01*
X5388Y436D01*
X5364Y412D01*
X5345Y383D01*
X5331Y351D01*
X5325Y317D01*
Y313D01*
X5487D01*
Y475D01*
D02*
G37*
G36*
X317D02*
X313D01*
Y313D01*
X475D01*
Y317D01*
X469Y351D01*
X455Y383D01*
X436Y412D01*
X412Y436D01*
X383Y455D01*
X351Y469D01*
X317Y475D01*
D02*
G37*
G36*
X287D02*
X283D01*
X249Y469D01*
X217Y455D01*
X188Y436D01*
X164Y412D01*
X145Y383D01*
X131Y351D01*
X125Y317D01*
Y313D01*
X287D01*
Y475D01*
D02*
G37*
G36*
X5675Y287D02*
X5513D01*
Y125D01*
X5517D01*
X5551Y131D01*
X5583Y145D01*
X5612Y164D01*
X5636Y188D01*
X5655Y217D01*
X5669Y249D01*
X5675Y283D01*
Y287D01*
D02*
G37*
G36*
X5487D02*
X5325D01*
Y283D01*
X5331Y249D01*
X5345Y217D01*
X5364Y188D01*
X5388Y164D01*
X5417Y145D01*
X5449Y131D01*
X5483Y125D01*
X5487D01*
Y287D01*
D02*
G37*
G36*
X475D02*
X313D01*
Y125D01*
X317D01*
X351Y131D01*
X383Y145D01*
X412Y164D01*
X436Y188D01*
X455Y217D01*
X469Y249D01*
X475Y283D01*
Y287D01*
D02*
G37*
G36*
X287D02*
X125D01*
Y283D01*
X131Y249D01*
X145Y217D01*
X164Y188D01*
X188Y164D01*
X217Y145D01*
X249Y131D01*
X283Y125D01*
X287D01*
Y287D01*
D02*
G37*
%LPD*%
D14*
X1500Y1610D02*
Y1800D01*
Y1610D02*
X1568Y1542D01*
X1350Y1529D02*
X1353Y1526D01*
X1568Y1383D02*
Y1542D01*
X1495Y1526D02*
X1498Y1523D01*
X1353Y1526D02*
X1495D01*
X1750Y1400D02*
Y1800D01*
Y1400D02*
X1751Y1401D01*
X1894D01*
X1895Y1402D01*
X1460Y1275D02*
X1568Y1383D01*
X2217Y1160D02*
X2235D01*
X2275Y1200D01*
X2200Y1143D02*
X2217Y1160D01*
X2200Y1125D02*
Y1143D01*
X2275Y1200D02*
X2333D01*
X2350Y1180D02*
Y1183D01*
X2333Y1200D02*
X2350Y1183D01*
X2138Y1357D02*
X2201Y1420D01*
X2255D01*
X2012Y1357D02*
X2138D01*
X1975Y1400D02*
X1989Y1385D01*
X1897Y1400D02*
X1975D01*
X1989Y1379D02*
Y1385D01*
Y1379D02*
X2012Y1357D01*
X1895Y1402D02*
X1897Y1400D01*
X1898Y1800D02*
Y1877D01*
X1895Y1656D02*
X1900Y1661D01*
Y1800D01*
X1675Y1900D02*
X1875D01*
X1898Y1877D01*
X1862Y1656D02*
X1895D01*
X1650Y1800D02*
Y1875D01*
X1675Y1900D01*
X2075Y1525D02*
Y1625D01*
Y1425D02*
Y1525D01*
X1895Y1529D02*
X2071D01*
X2075Y1525D01*
X1350Y1275D02*
X1460D01*
X1150D02*
X1350D01*
X1150Y1425D02*
X1250D01*
X1150Y1425D02*
X1150Y1425D01*
X1343Y1409D02*
X1350Y1402D01*
X1266Y1409D02*
X1343D01*
X1250Y1425D02*
X1266Y1409D01*
X1150Y1425D02*
Y1525D01*
D15*
X1892Y1125D02*
D03*
X1758D02*
D03*
D16*
X1750Y1800D02*
D03*
X1900D02*
D03*
X1500D02*
D03*
X1650D02*
D03*
X2050Y1125D02*
D03*
X2200D02*
D03*
D17*
X333Y696D02*
D03*
Y1204D02*
D03*
X5480Y1141D02*
D03*
Y634D02*
D03*
D25*
X2350Y1180D02*
D03*
X2445Y1420D02*
D03*
X2255D02*
D03*
D39*
X1700Y1275D02*
X1895D01*
X1675Y1300D02*
Y1475D01*
X1650Y1500D02*
X1675Y1475D01*
Y1300D02*
X1700Y1275D01*
X1575Y1662D02*
X1650Y1587D01*
Y1500D02*
Y1587D01*
X1575Y1662D02*
Y1950D01*
X1600Y1975D02*
X1750D01*
X1575Y1950D02*
X1600Y1975D01*
X1895Y1275D02*
X2075D01*
X1892Y1125D02*
X2050D01*
X1892D02*
X1895Y1127D01*
Y1275D01*
D41*
X300Y2700D02*
D03*
X5500D02*
D03*
Y300D02*
D03*
X300D02*
D03*
D42*
X1655Y1126D02*
D03*
X1343Y1770D02*
D03*
X800Y1200D02*
D03*
X805Y1776D02*
D03*
X550Y1775D02*
D03*
X675D02*
D03*
X430Y1776D02*
D03*
X305D02*
D03*
X805Y1926D02*
D03*
X680D02*
D03*
X555D02*
D03*
X430D02*
D03*
X305D02*
D03*
X805Y2076D02*
D03*
X680D02*
D03*
X555D02*
D03*
X430D02*
D03*
X305D02*
D03*
X430Y2226D02*
D03*
X305D02*
D03*
Y2376D02*
D03*
X425Y2375D02*
D03*
X805Y2226D02*
D03*
X680D02*
D03*
X550Y2225D02*
D03*
X805Y2376D02*
D03*
X680D02*
D03*
X550Y2375D02*
D03*
X1498Y1523D02*
D03*
X1755Y1401D02*
D03*
X1750Y1975D02*
D03*
X2275Y1200D02*
D03*
D43*
X1150Y1425D02*
D03*
Y1275D02*
D03*
Y1675D02*
D03*
Y1525D02*
D03*
X2075Y1425D02*
D03*
Y1275D02*
D03*
Y1625D02*
D03*
Y1775D02*
D03*
D44*
X1895Y1656D02*
D03*
Y1529D02*
D03*
Y1402D02*
D03*
Y1275D02*
D03*
X1350Y1656D02*
D03*
Y1529D02*
D03*
Y1402D02*
D03*
Y1275D02*
D03*
M02*
