G04*
G04 #@! TF.GenerationSoftware,Altium Limited,Altium Designer,23.0.1 (38)*
G04*
G04 Layer_Color=16711935*
%FSLAX42Y42*%
%MOMM*%
G71*
G04*
G04 #@! TF.SameCoordinates,2CC6F4A4-4150-49AC-9B95-2B2767F0A118*
G04*
G04*
G04 #@! TF.FilePolarity,Negative*
G04*
G01*
G75*
%ADD39R,1.80X5.10*%
%ADD53C,1.40*%
%ADD54R,1.80X1.80*%
%ADD55C,1.80*%
%ADD56C,2.40*%
%ADD57O,2.40X2.45*%
%ADD58C,2.00*%
G04:AMPARAMS|DCode=59|XSize=1.8mm|YSize=2mm|CornerRadius=0.5mm|HoleSize=0mm|Usage=FLASHONLY|Rotation=180.000|XOffset=0mm|YOffset=0mm|HoleType=Round|Shape=RoundedRectangle|*
%AMROUNDEDRECTD59*
21,1,1.80,1.00,0,0,180.0*
21,1,0.80,2.00,0,0,180.0*
1,1,1.00,-0.40,0.50*
1,1,1.00,0.40,0.50*
1,1,1.00,0.40,-0.50*
1,1,1.00,-0.40,-0.50*
%
%ADD59ROUNDEDRECTD59*%
%ADD60R,1.60X1.60*%
%ADD61C,1.60*%
%ADD62R,1.70X1.70*%
%ADD63R,1.91X1.91*%
%ADD64C,1.91*%
%ADD65C,1.79*%
%ADD66R,1.79X1.79*%
%ADD67C,0.89*%
%ADD68O,1.20X2.00*%
%ADD69R,1.91X1.91*%
%ADD70C,3.40*%
D39*
X721Y4792D02*
D03*
X1229D02*
D03*
X2371D02*
D03*
X2879D02*
D03*
D53*
X975Y4700D02*
D03*
D54*
X400Y1127D02*
D03*
X3200D02*
D03*
D55*
X400Y873D02*
D03*
X3200D02*
D03*
D56*
X3100Y4175D02*
D03*
D57*
Y3475D02*
D03*
D58*
X3350Y4075D02*
D03*
Y3575D02*
D03*
D59*
X3350Y3160D02*
D03*
Y2340D02*
D03*
D60*
Y2550D02*
D03*
D61*
Y2750D02*
D03*
Y2950D02*
D03*
D62*
X2625Y4700D02*
D03*
D63*
X1150Y4100D02*
D03*
D64*
X1404D02*
D03*
X1658D02*
D03*
X1912D02*
D03*
X200Y3886D02*
D03*
Y3632D02*
D03*
Y3378D02*
D03*
Y3124D02*
D03*
Y2870D02*
D03*
Y2616D02*
D03*
Y2362D02*
D03*
Y2108D02*
D03*
X454Y3886D02*
D03*
Y3632D02*
D03*
Y3378D02*
D03*
Y3124D02*
D03*
Y2870D02*
D03*
Y2616D02*
D03*
Y2362D02*
D03*
X200Y1854D02*
D03*
X454Y2108D02*
D03*
Y1870D02*
D03*
Y1600D02*
D03*
D65*
X3200Y2004D02*
D03*
D66*
Y1750D02*
D03*
D67*
X861Y491D02*
D03*
X1439D02*
D03*
D68*
X710Y545D02*
D03*
Y125D02*
D03*
X1590Y545D02*
D03*
Y125D02*
D03*
D69*
X200Y1600D02*
D03*
D70*
X300Y4950D02*
D03*
X3300D02*
D03*
Y300D02*
D03*
X300D02*
D03*
M02*
