G04*
G04 #@! TF.GenerationSoftware,Altium Limited,Altium Designer,23.0.1 (38)*
G04*
G04 Layer_Color=65535*
%FSLAX42Y42*%
%MOMM*%
G71*
G04*
G04 #@! TF.SameCoordinates,2CC6F4A4-4150-49AC-9B95-2B2767F0A118*
G04*
G04*
G04 #@! TF.FilePolarity,Positive*
G04*
G01*
G75*
%ADD10C,0.15*%
%ADD11C,0.25*%
%ADD12C,0.25*%
%ADD13C,0.15*%
%ADD14C,0.20*%
%ADD15C,0.12*%
%ADD16C,0.15*%
D10*
X2442Y2090D02*
G03*
X2442Y2090I-57J0D01*
G01*
X686Y3789D02*
X825D01*
X686Y2011D02*
X825D01*
D11*
X288Y1134D02*
G03*
X283Y870I112J-134D01*
G01*
X512Y866D02*
G03*
X517Y1130I-112J134D01*
G01*
X3088Y1134D02*
G03*
X3083Y870I112J-134D01*
G01*
X3312Y866D02*
G03*
X3317Y1130I-112J134D01*
G01*
X1795Y1127D02*
Y1635D01*
X2455Y1127D02*
Y1635D01*
X1795Y1127D02*
X2455D01*
X1795Y1635D02*
X2455D01*
X454Y1336D02*
X325D01*
X389Y1400D02*
Y1271D01*
X3529Y1136D02*
X3400D01*
X3464Y1200D02*
Y1071D01*
D12*
X1082Y835D02*
G03*
X1082Y835I-12J0D01*
G01*
D13*
X686Y2011D02*
Y3789D01*
X2325D02*
X2464D01*
Y2011D02*
Y3789D01*
X2325Y2011D02*
X2464D01*
D14*
X3045Y1390D02*
Y1450D01*
X2745Y1390D02*
Y1450D01*
X3045D01*
X2745Y1390D02*
X3045D01*
X3250Y3455D02*
X3600D01*
X3625Y3950D02*
X3760D01*
Y3700D02*
Y3950D01*
X3625Y3700D02*
X3760D01*
X3250Y4195D02*
X3600D01*
X3240Y3455D02*
Y4195D01*
X3610Y3455D02*
Y4195D01*
X3110Y2210D02*
X3585D01*
X3110D02*
Y3290D01*
X3585Y3290D01*
Y2210D02*
Y3290D01*
X625Y5242D02*
X1325D01*
X1089Y5078D02*
X1325D01*
X1220Y5529D02*
X1241Y5567D01*
X1246D02*
X1284Y5588D01*
Y5602D01*
X1247Y5623D02*
X1284Y5602D01*
X1247Y5623D02*
X1284Y5644D01*
Y5658D01*
X1247Y5679D02*
X1284Y5658D01*
X1247Y5679D02*
X1284Y5700D01*
Y5714D01*
X1247Y5735D02*
X1284Y5714D01*
X1247Y5735D02*
X1284Y5756D01*
Y5770D01*
X1247Y5791D02*
X1284Y5770D01*
X1247Y5791D02*
X1284Y5812D01*
Y5826D01*
X1247Y5847D02*
X1284Y5826D01*
X1247Y5847D02*
X1284Y5868D01*
Y5882D01*
X1247Y5903D02*
X1284Y5882D01*
X1247Y5903D02*
X1284Y5924D01*
Y5938D01*
X1247Y5959D02*
X1284Y5938D01*
X709Y5959D02*
X1247D01*
X666Y5938D02*
X709Y5959D01*
X666Y5924D02*
Y5938D01*
Y5924D02*
X703Y5903D01*
X666Y5882D02*
X703Y5903D01*
X666Y5868D02*
Y5882D01*
Y5868D02*
X703Y5847D01*
X666Y5826D02*
X703Y5847D01*
X666Y5812D02*
Y5826D01*
Y5812D02*
X703Y5791D01*
X666Y5770D02*
X703Y5791D01*
X666Y5756D02*
Y5770D01*
Y5756D02*
X703Y5735D01*
X666Y5714D02*
X703Y5735D01*
X666Y5700D02*
Y5714D01*
Y5700D02*
X703Y5679D01*
X666Y5658D02*
X703Y5679D01*
X666Y5644D02*
Y5658D01*
Y5644D02*
X703Y5623D01*
X666Y5602D02*
X703Y5623D01*
X666Y5588D02*
Y5602D01*
Y5588D02*
X703Y5567D01*
X1246D01*
X709D02*
X730Y5529D01*
X730D02*
X1220D01*
Y5242D02*
Y5529D01*
X1241Y5959D02*
Y6031D01*
X709D02*
X1241D01*
X709Y5959D02*
Y6031D01*
X730Y5242D02*
Y5529D01*
X666Y5644D02*
X1284Y5588D01*
X666Y5658D02*
X1284Y5602D01*
X703Y5679D02*
X1247Y5623D01*
X703D02*
X1246Y5567D01*
X666Y5588D02*
X1241Y5567D01*
X666Y5602D02*
X1246Y5567D01*
X666Y5700D02*
X1284Y5644D01*
X666Y5714D02*
X1284Y5658D01*
X703Y5735D02*
X1247Y5679D01*
X666Y5756D02*
X1284Y5700D01*
X666Y5770D02*
X1284Y5714D01*
X703Y5791D02*
X1247Y5735D01*
X666Y5812D02*
X1284Y5756D01*
X666Y5826D02*
X1284Y5770D01*
X703Y5847D02*
X1247Y5791D01*
X666Y5868D02*
X1284Y5812D01*
X666Y5882D02*
X1284Y5826D01*
X703Y5903D02*
X1247Y5847D01*
X666Y5924D02*
X1284Y5868D01*
X666Y5938D02*
X1284Y5882D01*
X709Y5959D02*
X1247Y5903D01*
X709Y5959D02*
X1284Y5924D01*
X709Y5959D02*
X1284Y5938D01*
X1325Y5078D02*
Y5242D01*
X625Y5078D02*
Y5242D01*
Y5078D02*
X861D01*
X2275Y5242D02*
X2975D01*
X2739Y5078D02*
X2975D01*
X2870Y5529D02*
X2892Y5567D01*
X2896D02*
X2934Y5588D01*
Y5602D01*
X2897Y5623D02*
X2934Y5602D01*
X2897Y5623D02*
X2934Y5644D01*
Y5658D01*
X2897Y5679D02*
X2934Y5658D01*
X2897Y5679D02*
X2934Y5700D01*
Y5714D01*
X2897Y5735D02*
X2934Y5714D01*
X2897Y5735D02*
X2934Y5756D01*
Y5770D01*
X2897Y5791D02*
X2934Y5770D01*
X2897Y5791D02*
X2934Y5812D01*
Y5826D01*
X2897Y5847D02*
X2934Y5826D01*
X2897Y5847D02*
X2934Y5868D01*
Y5882D01*
X2897Y5903D02*
X2934Y5882D01*
X2897Y5903D02*
X2934Y5924D01*
Y5938D01*
X2897Y5959D02*
X2934Y5938D01*
X2358Y5959D02*
X2897D01*
X2316Y5938D02*
X2358Y5959D01*
X2316Y5924D02*
Y5938D01*
Y5924D02*
X2353Y5903D01*
X2316Y5882D02*
X2353Y5903D01*
X2316Y5868D02*
Y5882D01*
Y5868D02*
X2353Y5847D01*
X2316Y5826D02*
X2353Y5847D01*
X2316Y5812D02*
Y5826D01*
Y5812D02*
X2353Y5791D01*
X2316Y5770D02*
X2353Y5791D01*
X2316Y5756D02*
Y5770D01*
Y5756D02*
X2353Y5735D01*
X2316Y5714D02*
X2353Y5735D01*
X2316Y5700D02*
Y5714D01*
Y5700D02*
X2353Y5679D01*
X2316Y5658D02*
X2353Y5679D01*
X2316Y5644D02*
Y5658D01*
Y5644D02*
X2353Y5623D01*
X2316Y5602D02*
X2353Y5623D01*
X2316Y5588D02*
Y5602D01*
Y5588D02*
X2353Y5567D01*
X2896D01*
X2358D02*
X2380Y5529D01*
X2380D02*
X2870D01*
Y5242D02*
Y5529D01*
X2892Y5959D02*
Y6031D01*
X2358D02*
X2892D01*
X2358Y5959D02*
Y6031D01*
X2380Y5242D02*
Y5529D01*
X2316Y5644D02*
X2934Y5588D01*
X2316Y5658D02*
X2934Y5602D01*
X2353Y5679D02*
X2897Y5623D01*
X2353D02*
X2896Y5567D01*
X2316Y5588D02*
X2892Y5567D01*
X2316Y5602D02*
X2896Y5567D01*
X2316Y5700D02*
X2934Y5644D01*
X2316Y5714D02*
X2934Y5658D01*
X2353Y5735D02*
X2897Y5679D01*
X2316Y5756D02*
X2934Y5700D01*
X2316Y5770D02*
X2934Y5714D01*
X2353Y5791D02*
X2897Y5735D01*
X2316Y5812D02*
X2934Y5756D01*
X2316Y5826D02*
X2934Y5770D01*
X2353Y5847D02*
X2897Y5791D01*
X2316Y5868D02*
X2934Y5812D01*
X2316Y5882D02*
X2934Y5826D01*
X2353Y5903D02*
X2897Y5847D01*
X2316Y5924D02*
X2934Y5868D01*
X2316Y5938D02*
X2934Y5882D01*
X2358Y5959D02*
X2897Y5903D01*
X2358Y5959D02*
X2934Y5924D01*
X2358Y5959D02*
X2934Y5938D01*
X2975Y5078D02*
Y5242D01*
X2275Y5078D02*
Y5242D01*
Y5078D02*
X2511D01*
X1938Y4395D02*
Y4405D01*
X1862Y4395D02*
Y4405D01*
X1712Y4395D02*
Y4405D01*
X1638Y4395D02*
Y4405D01*
X662Y1195D02*
Y1205D01*
X738Y1195D02*
Y1205D01*
X912Y1545D02*
Y1555D01*
X988Y1545D02*
Y1555D01*
X1562Y1220D02*
Y1230D01*
X1638Y1220D02*
Y1230D01*
X3195Y1562D02*
X3205D01*
X3195Y1488D02*
X3205D01*
X3195Y1262D02*
X3205D01*
X3195Y1338D02*
X3205D01*
X1600Y645D02*
Y735D01*
X700Y645D02*
Y735D01*
X1600D01*
X700Y-134D02*
X1600D01*
X700Y215D02*
Y445D01*
X1600Y215D02*
Y445D01*
X700Y-134D02*
Y35D01*
X1600Y-134D02*
Y35D01*
D15*
X2030Y3973D02*
Y4227D01*
X1046Y3973D02*
Y4227D01*
X2030D01*
X1046Y3973D02*
X2030D01*
X3327Y1623D02*
Y2131D01*
X3073D02*
X3327D01*
X3073Y1623D02*
Y2131D01*
Y1623D02*
X3327D01*
X2900Y521D02*
X2946D01*
Y979D01*
X2654D02*
X2700D01*
X2654Y521D02*
Y979D01*
Y521D02*
X2700D01*
X2900Y979D02*
X2946D01*
X2354Y651D02*
Y696D01*
X1896D02*
X2354D01*
X1896Y404D02*
Y449D01*
Y404D02*
X2354D01*
Y449D01*
X1896Y651D02*
Y696D01*
X317Y750D02*
Y650D01*
X367D01*
X383Y667D01*
Y733D01*
X367Y750D01*
X317D01*
X467Y650D02*
Y750D01*
X417Y700D01*
X483D01*
X2817Y1225D02*
Y1142D01*
X2833Y1125D01*
X2867D01*
X2883Y1142D01*
Y1225D01*
X2983Y1125D02*
X2917D01*
X2983Y1192D01*
Y1208D01*
X2967Y1225D01*
X2933D01*
X2917Y1208D01*
X2367Y4333D02*
X2350Y4317D01*
Y4283D01*
X2367Y4267D01*
X2433D01*
X2450Y4283D01*
Y4317D01*
X2433Y4333D01*
X2367Y4367D02*
X2350Y4383D01*
Y4417D01*
X2367Y4433D01*
X2383D01*
X2400Y4417D01*
X2417Y4433D01*
X2433D01*
X2450Y4417D01*
Y4383D01*
X2433Y4367D01*
X2417D01*
X2400Y4383D01*
X2383Y4367D01*
X2367D01*
X2400Y4383D02*
Y4417D01*
X2192Y4333D02*
X2175Y4317D01*
Y4283D01*
X2192Y4267D01*
X2258D01*
X2275Y4283D01*
Y4317D01*
X2258Y4333D01*
X2175Y4433D02*
X2192Y4400D01*
X2225Y4367D01*
X2258D01*
X2275Y4383D01*
Y4417D01*
X2258Y4433D01*
X2242D01*
X2225Y4417D01*
Y4367D01*
X3083Y3883D02*
X3067Y3900D01*
X3033D01*
X3017Y3883D01*
Y3867D01*
X3033Y3850D01*
X3067D01*
X3083Y3833D01*
Y3817D01*
X3067Y3800D01*
X3033D01*
X3017Y3817D01*
X3183Y3800D02*
X3117D01*
X3183Y3867D01*
Y3883D01*
X3167Y3900D01*
X3133D01*
X3117Y3883D01*
X3000Y2858D02*
X2983Y2875D01*
X2950D01*
X2933Y2858D01*
Y2842D01*
X2950Y2825D01*
X2983D01*
X3000Y2808D01*
Y2792D01*
X2983Y2775D01*
X2950D01*
X2933Y2792D01*
X3033Y2775D02*
X3067D01*
X3050D01*
Y2875D01*
X3033Y2858D01*
X1067Y4383D02*
X1050Y4367D01*
Y4333D01*
X1067Y4317D01*
X1133D01*
X1150Y4333D01*
Y4367D01*
X1133Y4383D01*
Y4417D02*
X1150Y4433D01*
Y4467D01*
X1133Y4483D01*
X1067D01*
X1050Y4467D01*
Y4433D01*
X1067Y4417D01*
X1083D01*
X1100Y4433D01*
Y4483D01*
X2792Y4358D02*
X2775Y4342D01*
Y4308D01*
X2792Y4292D01*
X2858D01*
X2875Y4308D01*
Y4342D01*
X2858Y4358D01*
X2792Y4392D02*
X2775Y4408D01*
Y4442D01*
X2792Y4458D01*
X2808D01*
X2825Y4442D01*
Y4425D01*
Y4442D01*
X2842Y4458D01*
X2858D01*
X2875Y4442D01*
Y4408D01*
X2858Y4392D01*
X1950Y4542D02*
X1850D01*
Y4592D01*
X1867Y4608D01*
X1900D01*
X1917Y4592D01*
Y4542D01*
Y4575D02*
X1950Y4608D01*
Y4708D02*
Y4642D01*
X1883Y4708D01*
X1867D01*
X1850Y4692D01*
Y4658D01*
X1867Y4642D01*
X1725Y4542D02*
X1625D01*
Y4592D01*
X1642Y4608D01*
X1675D01*
X1692Y4592D01*
Y4542D01*
Y4575D02*
X1725Y4608D01*
Y4692D02*
X1625D01*
X1675Y4642D01*
Y4708D01*
X1308Y4275D02*
Y4375D01*
X1342Y4342D01*
X1375Y4375D01*
Y4275D01*
X1408D02*
X1442D01*
X1425D01*
Y4375D01*
X1408Y4358D01*
X1442Y1850D02*
Y1767D01*
X1458Y1750D01*
X1492D01*
X1508Y1767D01*
Y1850D01*
X1542Y1833D02*
X1558Y1850D01*
X1592D01*
X1608Y1833D01*
Y1817D01*
X1592Y1800D01*
X1575D01*
X1592D01*
X1608Y1783D01*
Y1767D01*
X1592Y1750D01*
X1558D01*
X1542Y1767D01*
X1108Y1833D02*
X1092Y1850D01*
X1058D01*
X1042Y1833D01*
Y1767D01*
X1058Y1750D01*
X1092D01*
X1108Y1767D01*
X1208Y1750D02*
X1142D01*
X1208Y1817D01*
Y1833D01*
X1192Y1850D01*
X1158D01*
X1142Y1833D01*
X875Y1117D02*
X775D01*
Y1167D01*
X792Y1183D01*
X825D01*
X842Y1167D01*
Y1117D01*
Y1150D02*
X875Y1183D01*
X792Y1217D02*
X775Y1233D01*
Y1267D01*
X792Y1283D01*
X808D01*
X825Y1267D01*
Y1250D01*
Y1267D01*
X842Y1283D01*
X858D01*
X875Y1267D01*
Y1233D01*
X858Y1217D01*
X867Y1025D02*
Y942D01*
X883Y925D01*
X917D01*
X933Y942D01*
Y1025D01*
X1017Y925D02*
Y1025D01*
X967Y975D01*
X1033D01*
X1125Y1483D02*
X1025D01*
Y1533D01*
X1042Y1550D01*
X1075D01*
X1092Y1533D01*
Y1483D01*
Y1517D02*
X1125Y1550D01*
Y1583D02*
Y1617D01*
Y1600D01*
X1025D01*
X1042Y1583D01*
X1650Y1367D02*
X1550D01*
Y1417D01*
X1567Y1433D01*
X1600D01*
X1617Y1417D01*
Y1367D01*
Y1400D02*
X1650Y1433D01*
X1550Y1467D02*
Y1533D01*
X1567D01*
X1633Y1467D01*
X1650D01*
X1592Y983D02*
X1575Y967D01*
Y933D01*
X1592Y917D01*
X1658D01*
X1675Y933D01*
Y967D01*
X1658Y983D01*
X1575Y1083D02*
Y1017D01*
X1625D01*
X1608Y1050D01*
Y1067D01*
X1625Y1083D01*
X1658D01*
X1675Y1067D01*
Y1033D01*
X1658Y1017D01*
X2533Y1058D02*
X2517Y1075D01*
X2483D01*
X2467Y1058D01*
Y992D01*
X2483Y975D01*
X2517D01*
X2533Y992D01*
X2617Y975D02*
Y1075D01*
X2567Y1025D01*
X2633D01*
X1783Y883D02*
X1767Y900D01*
X1733D01*
X1717Y883D01*
Y817D01*
X1733Y800D01*
X1767D01*
X1783Y817D01*
X1817Y900D02*
X1883D01*
Y883D01*
X1817Y817D01*
Y800D01*
X1758Y1825D02*
Y1742D01*
X1775Y1725D01*
X1808D01*
X1825Y1742D01*
Y1825D01*
X1858Y1725D02*
X1892D01*
X1875D01*
Y1825D01*
X1858Y1808D01*
X2592Y1625D02*
X2575Y1608D01*
Y1575D01*
X2592Y1558D01*
X2658D01*
X2675Y1575D01*
Y1608D01*
X2658Y1625D01*
X2675Y1658D02*
Y1692D01*
Y1675D01*
X2575D01*
X2592Y1658D01*
X2942Y1742D02*
X2925Y1725D01*
Y1692D01*
X2942Y1675D01*
X3008D01*
X3025Y1692D01*
Y1725D01*
X3008Y1742D01*
X3025Y1775D02*
Y1808D01*
Y1792D01*
X2925D01*
X2942Y1775D01*
Y1858D02*
X2925Y1875D01*
Y1908D01*
X2942Y1925D01*
X3008D01*
X3025Y1908D01*
Y1875D01*
X3008Y1858D01*
X2942D01*
X3375Y1883D02*
Y1850D01*
Y1867D01*
X3458D01*
X3475Y1850D01*
Y1833D01*
X3458Y1817D01*
X3475Y1917D02*
X3375D01*
Y1967D01*
X3392Y1983D01*
X3425D01*
X3442Y1967D01*
Y1917D01*
X3475Y2067D02*
X3375D01*
X3425Y2017D01*
Y2083D01*
X3367Y1475D02*
Y1575D01*
X3417D01*
X3433Y1558D01*
Y1525D01*
X3417Y1508D01*
X3367D01*
X3400D02*
X3433Y1475D01*
X3533Y1575D02*
X3467D01*
Y1525D01*
X3500Y1542D01*
X3517D01*
X3533Y1525D01*
Y1492D01*
X3517Y1475D01*
X3483D01*
X3467Y1492D01*
X3392Y1300D02*
Y1400D01*
X3442D01*
X3458Y1383D01*
Y1350D01*
X3442Y1333D01*
X3392D01*
X3425D02*
X3458Y1300D01*
X3558Y1400D02*
X3525Y1383D01*
X3492Y1350D01*
Y1317D01*
X3508Y1300D01*
X3542D01*
X3558Y1317D01*
Y1333D01*
X3542Y1350D01*
X3492D01*
X3117Y750D02*
Y650D01*
X3167D01*
X3183Y667D01*
Y733D01*
X3167Y750D01*
X3117D01*
X3217Y733D02*
X3233Y750D01*
X3267D01*
X3283Y733D01*
Y717D01*
X3267Y700D01*
X3250D01*
X3267D01*
X3283Y683D01*
Y667D01*
X3267Y650D01*
X3233D01*
X3217Y667D01*
X2717Y350D02*
Y250D01*
X2767D01*
X2783Y267D01*
Y333D01*
X2767Y350D01*
X2717D01*
X2883Y250D02*
X2817D01*
X2883Y317D01*
Y333D01*
X2867Y350D01*
X2833D01*
X2817Y333D01*
X2058Y350D02*
Y250D01*
X2108D01*
X2125Y267D01*
Y333D01*
X2108Y350D01*
X2058D01*
X2158Y250D02*
X2192D01*
X2175D01*
Y350D01*
X2158Y333D01*
X1850Y200D02*
X1817D01*
X1833D01*
Y117D01*
X1817Y100D01*
X1800D01*
X1783Y117D01*
X1883Y100D02*
Y200D01*
X1933D01*
X1950Y183D01*
Y150D01*
X1933Y133D01*
X1883D01*
X1983Y100D02*
X2017D01*
X2000D01*
Y200D01*
X1983Y183D01*
D16*
X1065Y1235D02*
X1087D01*
X1065Y915D02*
Y1235D01*
Y915D02*
X1087D01*
X1363Y1235D02*
X1385D01*
Y915D02*
Y1235D01*
X1363Y915D02*
X1385D01*
M02*
