G04*
G04 #@! TF.GenerationSoftware,Altium Limited,Altium Designer,23.0.1 (38)*
G04*
G04 Layer_Color=32896*
%FSLAX42Y42*%
%MOMM*%
G71*
G04*
G04 #@! TF.SameCoordinates,2CC6F4A4-4150-49AC-9B95-2B2767F0A118*
G04*
G04*
G04 #@! TF.FilePolarity,Positive*
G04*
G01*
G75*
%ADD15C,0.12*%
D15*
X90Y1496D02*
Y3990D01*
X560D01*
X90Y1496D02*
X560D01*
Y3990D01*
X2805Y2712D02*
X2838Y2745D01*
Y2779D01*
X2805Y2812D01*
X2688Y2779D02*
X2738D01*
X2755Y2762D01*
Y2729D01*
X2738Y2712D01*
X2688D01*
X2655D02*
X2621Y2745D01*
Y2779D01*
X2655Y2812D01*
X2405Y2795D02*
X2421Y2812D01*
X2455D01*
X2471Y2795D01*
Y2729D01*
X2455Y2712D01*
X2421D01*
X2405Y2729D01*
Y2762D01*
X2438D01*
X2371Y2812D02*
Y2712D01*
X2322D01*
X2305Y2729D01*
Y2745D01*
X2322Y2762D01*
X2371D01*
X2322D01*
X2305Y2779D01*
Y2795D01*
X2322Y2812D01*
X2371D01*
X2272D02*
Y2712D01*
X2205D01*
X2005D02*
X2072D01*
X2005Y2779D01*
Y2795D01*
X2022Y2812D01*
X2055D01*
X2072Y2795D01*
X1972D02*
X1955Y2812D01*
X1922D01*
X1905Y2795D01*
Y2729D01*
X1922Y2712D01*
X1955D01*
X1972Y2729D01*
Y2795D01*
X1805Y2712D02*
X1872D01*
X1805Y2779D01*
Y2795D01*
X1822Y2812D01*
X1855D01*
X1872Y2795D01*
X1705Y2812D02*
X1772D01*
Y2762D01*
X1738Y2779D01*
X1722D01*
X1705Y2762D01*
Y2729D01*
X1722Y2712D01*
X1755D01*
X1772Y2729D01*
X2838Y2979D02*
X2805Y2912D01*
X2771Y2979D01*
X2688Y2912D02*
X2721D01*
X2738Y2929D01*
Y2962D01*
X2721Y2979D01*
X2688D01*
X2671Y2962D01*
Y2945D01*
X2738D01*
X2638Y2979D02*
Y2912D01*
Y2945D01*
X2621Y2962D01*
X2605Y2979D01*
X2588D01*
X2538Y2912D02*
Y2929D01*
X2521D01*
Y2912D01*
X2538D01*
X2355D02*
X2322D01*
X2338D01*
Y3012D01*
X2355Y2995D01*
X2272Y2912D02*
Y2929D01*
X2255D01*
Y2912D01*
X2272D01*
X2188Y2995D02*
X2172Y3012D01*
X2138D01*
X2122Y2995D01*
Y2929D01*
X2138Y2912D01*
X2172D01*
X2188Y2929D01*
Y2995D01*
X2813Y3187D02*
Y3087D01*
Y3137D01*
X2746D01*
Y3187D01*
Y3087D01*
X2713Y3187D02*
X2646D01*
X2680D01*
Y3087D01*
X2546Y3187D02*
X2580Y3170D01*
X2613Y3137D01*
Y3104D01*
X2596Y3087D01*
X2563D01*
X2546Y3104D01*
Y3120D01*
X2563Y3137D01*
X2613D01*
X2446Y3087D02*
X2513D01*
X2446Y3154D01*
Y3170D01*
X2463Y3187D01*
X2496D01*
X2513Y3170D01*
X2313Y3087D02*
Y3187D01*
X2247Y3087D01*
Y3187D01*
X2197Y3087D02*
X2163D01*
X2147Y3104D01*
Y3137D01*
X2163Y3154D01*
X2197D01*
X2213Y3137D01*
Y3104D01*
X2197Y3087D01*
X2047Y3187D02*
Y3087D01*
X2097D01*
X2113Y3104D01*
Y3137D01*
X2097Y3154D01*
X2047D01*
X1963Y3087D02*
X1997D01*
X2013Y3104D01*
Y3137D01*
X1997Y3154D01*
X1963D01*
X1947Y3137D01*
Y3120D01*
X2013D01*
X3238Y1545D02*
X3171D01*
X3205Y1579D02*
Y1512D01*
X1238Y1662D02*
X1205D01*
X1221D01*
Y1562D01*
X1238D01*
X1205D01*
X1105Y1662D02*
X1138D01*
X1155Y1645D01*
Y1579D01*
X1138Y1562D01*
X1105D01*
X1088Y1579D01*
Y1645D01*
X1105Y1662D01*
X988Y1562D02*
X1055D01*
X988Y1629D01*
Y1645D01*
X1005Y1662D01*
X1038D01*
X1055Y1645D01*
X855Y1662D02*
X821D01*
X838D01*
Y1562D01*
X855D01*
X821D01*
X722Y1662D02*
X755D01*
X771Y1645D01*
Y1579D01*
X755Y1562D01*
X722D01*
X705Y1579D01*
Y1645D01*
X722Y1662D01*
X672Y1645D02*
X655Y1662D01*
X622D01*
X605Y1645D01*
Y1629D01*
X622Y1612D01*
X638D01*
X622D01*
X605Y1595D01*
Y1579D01*
X622Y1562D01*
X655D01*
X672Y1579D01*
X1238Y1912D02*
X1205D01*
X1221D01*
Y1812D01*
X1238D01*
X1205D01*
X1105Y1912D02*
X1138D01*
X1155Y1895D01*
Y1829D01*
X1138Y1812D01*
X1105D01*
X1088Y1829D01*
Y1895D01*
X1105Y1912D01*
X1005Y1812D02*
Y1912D01*
X1055Y1862D01*
X988D01*
X855Y1912D02*
X821D01*
X838D01*
Y1812D01*
X855D01*
X821D01*
X722Y1912D02*
X755D01*
X771Y1895D01*
Y1829D01*
X755Y1812D01*
X722D01*
X705Y1829D01*
Y1895D01*
X722Y1912D01*
X605D02*
X672D01*
Y1862D01*
X638Y1879D01*
X622D01*
X605Y1862D01*
Y1829D01*
X622Y1812D01*
X655D01*
X672Y1829D01*
X1238Y2162D02*
X1205D01*
X1221D01*
Y2062D01*
X1238D01*
X1205D01*
X1105Y2162D02*
X1138D01*
X1155Y2145D01*
Y2079D01*
X1138Y2062D01*
X1105D01*
X1088Y2079D01*
Y2145D01*
X1105Y2162D01*
X988D02*
X1021Y2145D01*
X1055Y2112D01*
Y2079D01*
X1038Y2062D01*
X1005D01*
X988Y2079D01*
Y2095D01*
X1005Y2112D01*
X1055D01*
X855Y2162D02*
X821D01*
X838D01*
Y2062D01*
X855D01*
X821D01*
X722Y2162D02*
X755D01*
X771Y2145D01*
Y2079D01*
X755Y2062D01*
X722D01*
X705Y2079D01*
Y2145D01*
X722Y2162D01*
X672D02*
X605D01*
Y2145D01*
X672Y2079D01*
Y2062D01*
X1313Y2412D02*
X1280D01*
X1296D01*
Y2312D01*
X1313D01*
X1280D01*
X1180Y2412D02*
X1213D01*
X1230Y2395D01*
Y2329D01*
X1213Y2312D01*
X1180D01*
X1163Y2329D01*
Y2395D01*
X1180Y2412D01*
X1130Y2312D02*
X1096D01*
X1113D01*
Y2412D01*
X1130Y2395D01*
X1046D02*
X1030Y2412D01*
X996D01*
X980Y2395D01*
Y2329D01*
X996Y2312D01*
X1030D01*
X1046Y2329D01*
Y2395D01*
X846Y2412D02*
X813D01*
X830D01*
Y2312D01*
X846D01*
X813D01*
X713Y2412D02*
X747D01*
X763Y2395D01*
Y2329D01*
X747Y2312D01*
X713D01*
X697Y2329D01*
Y2395D01*
X713Y2412D01*
X663Y2329D02*
X647Y2312D01*
X613D01*
X597Y2329D01*
Y2395D01*
X613Y2412D01*
X647D01*
X663Y2395D01*
Y2379D01*
X647Y2362D01*
X597D01*
X1313Y2662D02*
X1280D01*
X1296D01*
Y2562D01*
X1313D01*
X1280D01*
X1180Y2662D02*
X1213D01*
X1230Y2645D01*
Y2579D01*
X1213Y2562D01*
X1180D01*
X1163Y2579D01*
Y2645D01*
X1180Y2662D01*
X1130Y2645D02*
X1113Y2662D01*
X1080D01*
X1063Y2645D01*
Y2629D01*
X1080Y2612D01*
X1063Y2595D01*
Y2579D01*
X1080Y2562D01*
X1113D01*
X1130Y2579D01*
Y2595D01*
X1113Y2612D01*
X1130Y2629D01*
Y2645D01*
X1113Y2612D02*
X1080D01*
X930Y2662D02*
X896D01*
X913D01*
Y2562D01*
X930D01*
X896D01*
X797Y2662D02*
X830D01*
X846Y2645D01*
Y2579D01*
X830Y2562D01*
X797D01*
X780Y2579D01*
Y2645D01*
X797Y2662D01*
X747Y2562D02*
X713D01*
X730D01*
Y2662D01*
X747Y2645D01*
X663D02*
X647Y2662D01*
X613D01*
X597Y2645D01*
Y2629D01*
X613Y2612D01*
X597Y2595D01*
Y2579D01*
X613Y2562D01*
X647D01*
X663Y2579D01*
Y2595D01*
X647Y2612D01*
X663Y2629D01*
Y2645D01*
X647Y2612D02*
X613D01*
X1338Y2912D02*
X1305D01*
X1321D01*
Y2812D01*
X1338D01*
X1305D01*
X1205Y2912D02*
X1238D01*
X1255Y2895D01*
Y2829D01*
X1238Y2812D01*
X1205D01*
X1188Y2829D01*
Y2895D01*
X1205Y2912D01*
X1155Y2812D02*
X1121D01*
X1138D01*
Y2912D01*
X1155Y2895D01*
X1071Y2829D02*
X1055Y2812D01*
X1021D01*
X1005Y2829D01*
Y2895D01*
X1021Y2912D01*
X1055D01*
X1071Y2895D01*
Y2879D01*
X1055Y2862D01*
X1005D01*
X871Y2812D02*
Y2912D01*
X822D01*
X805Y2895D01*
Y2862D01*
X822Y2845D01*
X871D01*
X838D02*
X805Y2812D01*
X772Y2912D02*
X705Y2812D01*
Y2912D02*
X772Y2812D01*
X672Y2912D02*
Y2812D01*
X622D01*
X605Y2829D01*
Y2895D01*
X622Y2912D01*
X672D01*
X1263Y3187D02*
X1196D01*
X1230D01*
Y3087D01*
X1163Y3187D02*
X1096Y3087D01*
Y3187D02*
X1163Y3087D01*
X1063Y3187D02*
Y3087D01*
X1013D01*
X996Y3104D01*
Y3170D01*
X1013Y3187D01*
X1063D01*
X796Y3170D02*
X813Y3187D01*
X846D01*
X863Y3170D01*
Y3154D01*
X846Y3137D01*
X813D01*
X796Y3120D01*
Y3104D01*
X813Y3087D01*
X846D01*
X863Y3104D01*
X697Y3170D02*
X713Y3187D01*
X747D01*
X763Y3170D01*
Y3104D01*
X747Y3087D01*
X713D01*
X697Y3104D01*
X663Y3187D02*
Y3087D01*
X597D01*
X1096Y3420D02*
X1113Y3437D01*
X1146D01*
X1163Y3420D01*
Y3404D01*
X1146Y3387D01*
X1113D01*
X1096Y3370D01*
Y3354D01*
X1113Y3337D01*
X1146D01*
X1163Y3354D01*
X1063Y3437D02*
Y3337D01*
X1013D01*
X996Y3354D01*
Y3420D01*
X1013Y3437D01*
X1063D01*
X963Y3337D02*
Y3404D01*
X930Y3437D01*
X896Y3404D01*
Y3337D01*
Y3387D01*
X963D01*
X696Y3437D02*
X763D01*
Y3337D01*
X696D01*
X763Y3387D02*
X730D01*
X663Y3337D02*
Y3437D01*
X597Y3337D01*
Y3437D01*
X888Y3687D02*
Y3620D01*
X855Y3587D01*
X821Y3620D01*
Y3687D01*
X721Y3670D02*
X738Y3687D01*
X771D01*
X788Y3670D01*
Y3604D01*
X771Y3587D01*
X738D01*
X721Y3604D01*
X621Y3670D02*
X638Y3687D01*
X671D01*
X688Y3670D01*
Y3604D01*
X671Y3587D01*
X638D01*
X621Y3604D01*
X821Y3920D02*
X838Y3937D01*
X871D01*
X888Y3920D01*
Y3854D01*
X871Y3837D01*
X838D01*
X821Y3854D01*
Y3887D01*
X855D01*
X788Y3837D02*
Y3937D01*
X721Y3837D01*
Y3937D01*
X688D02*
Y3837D01*
X638D01*
X621Y3854D01*
Y3920D01*
X638Y3937D01*
X688D01*
X284Y4175D02*
X318D01*
X301D01*
Y4092D01*
X318Y4075D01*
X334D01*
X351Y4092D01*
X251Y4075D02*
Y4175D01*
X201D01*
X184Y4158D01*
Y4125D01*
X201Y4108D01*
X251D01*
X84Y4175D02*
X151D01*
Y4125D01*
X118Y4142D01*
X101D01*
X84Y4125D01*
Y4092D01*
X101Y4075D01*
X134D01*
X151Y4092D01*
M02*
