G04*
G04 #@! TF.GenerationSoftware,Altium Limited,Altium Designer,23.0.1 (38)*
G04*
G04 Layer_Physical_Order=1*
G04 Layer_Color=255*
%FSLAX42Y42*%
%MOMM*%
G71*
G04*
G04 #@! TF.SameCoordinates,2CC6F4A4-4150-49AC-9B95-2B2767F0A118*
G04*
G04*
G04 #@! TF.FilePolarity,Positive*
G04*
G01*
G75*
%ADD11C,0.25*%
%ADD12C,0.25*%
%ADD17R,1.00X2.00*%
%ADD18R,0.60X1.00*%
%ADD19R,1.45X1.00*%
%ADD20R,1.00X0.80*%
%ADD21R,1.60X4.90*%
%ADD22R,1.50X3.81*%
%ADD23R,0.95X0.60*%
%ADD24R,0.80X1.00*%
G04:AMPARAMS|DCode=25|XSize=1.27mm|YSize=0.31mm|CornerRadius=0.08mm|HoleSize=0mm|Usage=FLASHONLY|Rotation=90.000|XOffset=0mm|YOffset=0mm|HoleType=Round|Shape=RoundedRectangle|*
%AMROUNDEDRECTD25*
21,1,1.27,0.15,0,0,90.0*
21,1,1.11,0.31,0,0,90.0*
1,1,0.16,0.07,0.55*
1,1,0.16,0.07,-0.55*
1,1,0.16,-0.07,-0.55*
1,1,0.16,-0.07,0.55*
%
%ADD25ROUNDEDRECTD25*%
%ADD26R,1.00X1.45*%
%ADD27R,1.27X1.27*%
%ADD28R,3.30X1.52*%
%ADD29R,0.60X0.95*%
G04:AMPARAMS|DCode=30|XSize=2.27mm|YSize=1.65mm|CornerRadius=0.25mm|HoleSize=0mm|Usage=FLASHONLY|Rotation=270.000|XOffset=0mm|YOffset=0mm|HoleType=Round|Shape=RoundedRectangle|*
%AMROUNDEDRECTD30*
21,1,2.27,1.16,0,0,270.0*
21,1,1.78,1.65,0,0,270.0*
1,1,0.50,-0.58,-0.89*
1,1,0.50,-0.58,0.89*
1,1,0.50,0.58,0.89*
1,1,0.50,0.58,-0.89*
%
%ADD30ROUNDEDRECTD30*%
G04:AMPARAMS|DCode=31|XSize=2.27mm|YSize=1.65mm|CornerRadius=0.25mm|HoleSize=0mm|Usage=FLASHONLY|Rotation=0.000|XOffset=0mm|YOffset=0mm|HoleType=Round|Shape=RoundedRectangle|*
%AMROUNDEDRECTD31*
21,1,2.27,1.16,0,0,0.0*
21,1,1.78,1.65,0,0,0.0*
1,1,0.50,0.89,-0.58*
1,1,0.50,-0.89,-0.58*
1,1,0.50,-0.89,0.58*
1,1,0.50,0.89,0.58*
%
%ADD31ROUNDEDRECTD31*%
G04:AMPARAMS|DCode=32|XSize=1.8mm|YSize=1.5mm|CornerRadius=0.15mm|HoleSize=0mm|Usage=FLASHONLY|Rotation=0.000|XOffset=0mm|YOffset=0mm|HoleType=Round|Shape=RoundedRectangle|*
%AMROUNDEDRECTD32*
21,1,1.80,1.20,0,0,0.0*
21,1,1.50,1.50,0,0,0.0*
1,1,0.30,0.75,-0.60*
1,1,0.30,-0.75,-0.60*
1,1,0.30,-0.75,0.60*
1,1,0.30,0.75,0.60*
%
%ADD32ROUNDEDRECTD32*%
G04:AMPARAMS|DCode=33|XSize=1.8mm|YSize=1.2mm|CornerRadius=0.12mm|HoleSize=0mm|Usage=FLASHONLY|Rotation=180.000|XOffset=0mm|YOffset=0mm|HoleType=Round|Shape=RoundedRectangle|*
%AMROUNDEDRECTD33*
21,1,1.80,0.96,0,0,180.0*
21,1,1.56,1.20,0,0,180.0*
1,1,0.24,-0.78,0.48*
1,1,0.24,0.78,0.48*
1,1,0.24,0.78,-0.48*
1,1,0.24,-0.78,-0.48*
%
%ADD33ROUNDEDRECTD33*%
G04:AMPARAMS|DCode=34|XSize=0.3mm|YSize=1.45mm|CornerRadius=0.05mm|HoleSize=0mm|Usage=FLASHONLY|Rotation=180.000|XOffset=0mm|YOffset=0mm|HoleType=Round|Shape=RoundedRectangle|*
%AMROUNDEDRECTD34*
21,1,0.30,1.36,0,0,180.0*
21,1,0.21,1.45,0,0,180.0*
1,1,0.09,-0.11,0.68*
1,1,0.09,0.11,0.68*
1,1,0.09,0.11,-0.68*
1,1,0.09,-0.11,-0.68*
%
%ADD34ROUNDEDRECTD34*%
%ADD53C,1.40*%
%ADD55C,1.80*%
%ADD60R,1.60X1.60*%
%ADD61C,1.60*%
%ADD71C,0.80*%
%ADD72C,0.50*%
%ADD73R,0.22X0.03*%
%ADD74R,1.00X2.25*%
%ADD75R,1.00X2.75*%
%ADD76C,1.20*%
%ADD77C,2.20*%
%ADD78O,2.20X2.25*%
G04:AMPARAMS|DCode=79|XSize=1.6mm|YSize=1.8mm|CornerRadius=0.4mm|HoleSize=0mm|Usage=FLASHONLY|Rotation=180.000|XOffset=0mm|YOffset=0mm|HoleType=Round|Shape=RoundedRectangle|*
%AMROUNDEDRECTD79*
21,1,1.60,1.00,0,0,180.0*
21,1,0.80,1.80,0,0,180.0*
1,1,0.80,-0.40,0.50*
1,1,0.80,0.40,0.50*
1,1,0.80,0.40,-0.50*
1,1,0.80,-0.40,-0.50*
%
%ADD79ROUNDEDRECTD79*%
%ADD80R,1.40X1.40*%
%ADD81R,1.50X1.50*%
%ADD82R,1.71X1.71*%
%ADD83C,1.71*%
%ADD84C,1.59*%
%ADD85R,1.59X1.59*%
%ADD86C,0.75*%
%ADD87O,1.00X1.80*%
%ADD88R,1.71X1.71*%
%ADD89C,3.20*%
%ADD90C,0.60*%
G36*
X3572Y28D02*
X1736D01*
X1736Y41D01*
X1751Y44D01*
X1763Y52D01*
X1771Y64D01*
X1774Y79D01*
Y114D01*
X1658D01*
Y127D01*
X1645D01*
Y217D01*
X1644Y219D01*
X1628Y231D01*
X1610Y238D01*
X1603Y239D01*
Y125D01*
X1590D01*
Y112D01*
X1514D01*
Y85D01*
X1517Y65D01*
X1524Y47D01*
X1529Y41D01*
X1523Y28D01*
X777D01*
X771Y41D01*
X776Y47D01*
X783Y65D01*
X786Y85D01*
Y112D01*
X710D01*
Y125D01*
X697D01*
Y239D01*
X690Y238D01*
X672Y231D01*
X656Y219D01*
X655Y217D01*
Y127D01*
X642D01*
Y114D01*
X526D01*
Y79D01*
X529Y64D01*
X537Y52D01*
X549Y44D01*
X564Y41D01*
X564Y28D01*
X28D01*
X28Y5222D01*
X3572D01*
X3572Y28D01*
D02*
G37*
%LPC*%
G36*
X3318Y5135D02*
X3313D01*
Y4963D01*
X3485D01*
Y4968D01*
X3478Y5004D01*
X3464Y5038D01*
X3444Y5068D01*
X3418Y5094D01*
X3388Y5114D01*
X3354Y5128D01*
X3318Y5135D01*
D02*
G37*
G36*
X3287D02*
X3282D01*
X3246Y5128D01*
X3212Y5114D01*
X3182Y5094D01*
X3156Y5068D01*
X3136Y5038D01*
X3122Y5004D01*
X3115Y4968D01*
Y4963D01*
X3287D01*
Y5135D01*
D02*
G37*
G36*
X318D02*
X313D01*
Y4963D01*
X485D01*
Y4968D01*
X478Y5004D01*
X464Y5038D01*
X444Y5068D01*
X418Y5094D01*
X388Y5114D01*
X354Y5128D01*
X318Y5135D01*
D02*
G37*
G36*
X287D02*
X282D01*
X246Y5128D01*
X212Y5114D01*
X182Y5094D01*
X156Y5068D01*
X136Y5038D01*
X122Y5004D01*
X115Y4968D01*
Y4963D01*
X287D01*
Y5135D01*
D02*
G37*
G36*
X3485Y4937D02*
X3313D01*
Y4765D01*
X3318D01*
X3354Y4772D01*
X3388Y4786D01*
X3418Y4806D01*
X3444Y4832D01*
X3464Y4862D01*
X3478Y4896D01*
X3485Y4932D01*
Y4937D01*
D02*
G37*
G36*
X3287D02*
X3115D01*
Y4932D01*
X3122Y4896D01*
X3136Y4862D01*
X3156Y4832D01*
X3182Y4806D01*
X3212Y4786D01*
X3246Y4772D01*
X3282Y4765D01*
X3287D01*
Y4937D01*
D02*
G37*
G36*
X485D02*
X313D01*
Y4765D01*
X318D01*
X354Y4772D01*
X388Y4786D01*
X418Y4806D01*
X444Y4832D01*
X464Y4862D01*
X478Y4896D01*
X485Y4932D01*
Y4937D01*
D02*
G37*
G36*
X287D02*
X115D01*
Y4932D01*
X122Y4896D01*
X136Y4862D01*
X156Y4832D01*
X182Y4806D01*
X212Y4786D01*
X246Y4772D01*
X282Y4765D01*
X287D01*
Y4937D01*
D02*
G37*
G36*
X2715Y5028D02*
X2535D01*
Y4610D01*
X2563D01*
X2565Y4588D01*
X2576Y4541D01*
X2595Y4496D01*
X2610Y4471D01*
Y4362D01*
Y4228D01*
X2619D01*
Y2960D01*
X2619Y2958D01*
X2616Y2906D01*
X2606Y2853D01*
X2588Y2802D01*
X2564Y2754D01*
X2551Y2734D01*
D01*
X2544Y2723D01*
X2532Y2706D01*
X2492Y2660D01*
X2446Y2620D01*
X2395Y2586D01*
X2354Y2565D01*
X2354Y2565D01*
X2343Y2563D01*
X2343Y2562D01*
X2304Y2546D01*
X2267Y2524D01*
X2234Y2496D01*
X2206Y2463D01*
X2184Y2427D01*
X2167Y2387D01*
X2157Y2345D01*
X2155Y2316D01*
X2154Y2310D01*
Y2136D01*
X2096D01*
Y2011D01*
X2070D01*
Y2136D01*
X2008D01*
Y2126D01*
X1984D01*
Y2269D01*
X1982Y2280D01*
X1976Y2289D01*
X1570Y2695D01*
X1561Y2701D01*
X1559Y2701D01*
X1555Y2715D01*
X1976Y3136D01*
X1982Y3145D01*
X1984Y3156D01*
Y3674D01*
X2008D01*
Y3664D01*
X2070D01*
Y3789D01*
X2096D01*
Y3664D01*
X2158D01*
Y3674D01*
X2275D01*
Y3904D01*
X2251D01*
Y3919D01*
X2253Y3924D01*
Y3942D01*
X2251Y3948D01*
Y3978D01*
X2290D01*
Y4004D01*
X2312D01*
Y3955D01*
X2488D01*
Y4085D01*
X2312D01*
Y4061D01*
X2290D01*
Y4088D01*
X2160D01*
Y4061D01*
X2036D01*
X2025Y4058D01*
X2016Y4052D01*
X2014Y4050D01*
X2004Y4058D01*
X2006Y4061D01*
X2012Y4087D01*
Y4113D01*
X2006Y4139D01*
X1992Y4162D01*
X1974Y4180D01*
X1951Y4194D01*
X1940Y4197D01*
Y4280D01*
X1962D01*
Y4370D01*
X1838D01*
Y4280D01*
X1884D01*
Y4197D01*
X1873Y4194D01*
X1850Y4180D01*
X1832Y4162D01*
X1818Y4139D01*
X1811Y4113D01*
Y4087D01*
X1818Y4061D01*
X1832Y4038D01*
X1850Y4020D01*
X1873Y4006D01*
X1899Y3999D01*
X1925D01*
X1951Y4006D01*
X1954Y4008D01*
X1962Y3998D01*
X1917Y3953D01*
X1591D01*
X1492Y4052D01*
X1498Y4061D01*
X1505Y4087D01*
Y4113D01*
X1498Y4139D01*
X1484Y4162D01*
X1466Y4180D01*
X1443Y4194D01*
X1432Y4197D01*
Y4367D01*
X1512Y4447D01*
X1612D01*
Y4430D01*
X1738D01*
Y4447D01*
X1838D01*
Y4430D01*
X1962D01*
Y4520D01*
X1838D01*
Y4503D01*
X1738D01*
Y4520D01*
X1612D01*
Y4503D01*
X1500D01*
X1489Y4501D01*
X1480Y4495D01*
X1384Y4399D01*
X1378Y4390D01*
X1376Y4379D01*
Y4197D01*
X1365Y4194D01*
X1342Y4180D01*
X1324Y4162D01*
X1310Y4139D01*
X1303Y4113D01*
Y4087D01*
X1310Y4061D01*
X1324Y4038D01*
X1342Y4020D01*
X1365Y4006D01*
X1391Y3999D01*
X1417D01*
X1443Y4006D01*
X1452Y4012D01*
X1548Y3917D01*
X1542Y3904D01*
X1142D01*
Y3914D01*
X1080D01*
Y3789D01*
Y3664D01*
X1142D01*
Y3674D01*
X1172D01*
Y3661D01*
X1162Y3650D01*
X1155Y3634D01*
Y3616D01*
X1162Y3600D01*
X1172Y3589D01*
Y3187D01*
X1137Y3152D01*
X551D01*
X548Y3163D01*
X534Y3186D01*
X516Y3204D01*
X507Y3209D01*
X511Y3222D01*
X600D01*
X611Y3224D01*
X620Y3230D01*
X670Y3280D01*
X684D01*
X700Y3287D01*
X713Y3300D01*
X720Y3316D01*
Y3334D01*
X713Y3350D01*
X700Y3363D01*
X685Y3370D01*
X684Y3371D01*
X679Y3383D01*
X683Y3388D01*
X692D01*
X709Y3395D01*
X721Y3408D01*
X728Y3424D01*
Y3442D01*
X721Y3459D01*
X721Y3459D01*
X726Y3472D01*
X964D01*
X975Y3462D01*
X991Y3455D01*
X1009D01*
X1025Y3462D01*
X1038Y3475D01*
X1045Y3491D01*
Y3509D01*
X1038Y3525D01*
X1025Y3538D01*
X1009Y3545D01*
X991D01*
X975Y3538D01*
X964Y3528D01*
X500D01*
X497Y3541D01*
X516Y3552D01*
X534Y3570D01*
X548Y3593D01*
X555Y3619D01*
Y3645D01*
X548Y3671D01*
X534Y3694D01*
X516Y3712D01*
X493Y3726D01*
X467Y3733D01*
X441D01*
X415Y3726D01*
X392Y3712D01*
X374Y3694D01*
X360Y3671D01*
X354Y3645D01*
Y3619D01*
X360Y3593D01*
X374Y3570D01*
X392Y3552D01*
X411Y3541D01*
X408Y3528D01*
X322D01*
X311Y3526D01*
X302Y3520D01*
X248Y3466D01*
X239Y3472D01*
X213Y3478D01*
X187D01*
X161Y3472D01*
X138Y3458D01*
X120Y3440D01*
X106Y3417D01*
X100Y3391D01*
Y3365D01*
X106Y3339D01*
X120Y3316D01*
X138Y3298D01*
X161Y3284D01*
X187Y3278D01*
X213D01*
X239Y3284D01*
X262Y3298D01*
X280Y3316D01*
X294Y3339D01*
X301Y3365D01*
Y3391D01*
X294Y3417D01*
X288Y3426D01*
X334Y3472D01*
X390D01*
X394Y3459D01*
X392Y3458D01*
X374Y3440D01*
X360Y3417D01*
X354Y3391D01*
Y3365D01*
X360Y3339D01*
X374Y3316D01*
X392Y3298D01*
X404Y3291D01*
X401Y3278D01*
X326D01*
X315Y3276D01*
X306Y3270D01*
X248Y3212D01*
X239Y3218D01*
X213Y3224D01*
X187D01*
X161Y3218D01*
X138Y3204D01*
X120Y3186D01*
X106Y3163D01*
X100Y3137D01*
Y3111D01*
X106Y3085D01*
X120Y3062D01*
X138Y3044D01*
X161Y3030D01*
X187Y3024D01*
X213D01*
X239Y3030D01*
X262Y3044D01*
X280Y3062D01*
X294Y3085D01*
X301Y3111D01*
Y3137D01*
X294Y3163D01*
X288Y3172D01*
X338Y3222D01*
X397D01*
X401Y3209D01*
X392Y3204D01*
X374Y3186D01*
X360Y3163D01*
X354Y3137D01*
Y3111D01*
X360Y3085D01*
X374Y3062D01*
X392Y3044D01*
X397Y3041D01*
X394Y3028D01*
X335D01*
X325Y3026D01*
X316Y3020D01*
X252Y2956D01*
X239Y2964D01*
X213Y2970D01*
X187D01*
X161Y2964D01*
X138Y2950D01*
X120Y2932D01*
X106Y2909D01*
X100Y2883D01*
Y2857D01*
X106Y2831D01*
X120Y2808D01*
X138Y2790D01*
X161Y2776D01*
X187Y2769D01*
X213D01*
X239Y2776D01*
X262Y2790D01*
X280Y2808D01*
X294Y2831D01*
X301Y2857D01*
Y2883D01*
X294Y2909D01*
X290Y2915D01*
X347Y2972D01*
X404D01*
X408Y2959D01*
X392Y2950D01*
X374Y2932D01*
X360Y2909D01*
X354Y2883D01*
Y2857D01*
X360Y2831D01*
X374Y2808D01*
X391Y2791D01*
X390Y2780D01*
X389Y2778D01*
X334D01*
X323Y2776D01*
X314Y2770D01*
X248Y2704D01*
X239Y2710D01*
X213Y2717D01*
X187D01*
X161Y2710D01*
X138Y2696D01*
X120Y2678D01*
X106Y2655D01*
X100Y2629D01*
Y2603D01*
X106Y2577D01*
X120Y2554D01*
X138Y2536D01*
X161Y2522D01*
X187Y2516D01*
X213D01*
X239Y2522D01*
X262Y2536D01*
X280Y2554D01*
X294Y2577D01*
X301Y2603D01*
Y2629D01*
X294Y2655D01*
X288Y2664D01*
X346Y2722D01*
X412D01*
X415Y2710D01*
X392Y2696D01*
X374Y2678D01*
X360Y2655D01*
X354Y2629D01*
Y2603D01*
X360Y2577D01*
X374Y2554D01*
X392Y2536D01*
X415Y2522D01*
X441Y2516D01*
X440Y2503D01*
X275D01*
X264Y2501D01*
X255Y2495D01*
X221Y2460D01*
X213Y2462D01*
X187D01*
X161Y2456D01*
X138Y2442D01*
X120Y2424D01*
X106Y2401D01*
X100Y2375D01*
Y2349D01*
X106Y2323D01*
X120Y2300D01*
X138Y2282D01*
X161Y2268D01*
X187Y2261D01*
X213D01*
X239Y2268D01*
X262Y2282D01*
X280Y2300D01*
X294Y2323D01*
X301Y2349D01*
Y2375D01*
X294Y2401D01*
X280Y2424D01*
X272Y2432D01*
X287Y2447D01*
X379D01*
X384Y2434D01*
X374Y2424D01*
X360Y2401D01*
X354Y2375D01*
Y2349D01*
X360Y2323D01*
X374Y2300D01*
X392Y2282D01*
X415Y2268D01*
X425Y2266D01*
X423Y2253D01*
X317D01*
X306Y2251D01*
X297Y2245D01*
X248Y2196D01*
X239Y2202D01*
X213Y2208D01*
X187D01*
X161Y2202D01*
X138Y2188D01*
X120Y2170D01*
X106Y2147D01*
X100Y2121D01*
Y2095D01*
X106Y2069D01*
X120Y2046D01*
X138Y2028D01*
X161Y2014D01*
X187Y2008D01*
X213D01*
X239Y2014D01*
X262Y2028D01*
X280Y2046D01*
X294Y2069D01*
X301Y2095D01*
Y2121D01*
X294Y2147D01*
X288Y2156D01*
X329Y2197D01*
X383D01*
X388Y2184D01*
X374Y2170D01*
X360Y2147D01*
X354Y2121D01*
Y2095D01*
X360Y2069D01*
X374Y2046D01*
X392Y2028D01*
X399Y2024D01*
X396Y2011D01*
X329D01*
X318Y2009D01*
X309Y2003D01*
X248Y1942D01*
X239Y1948D01*
X213Y1955D01*
X187D01*
X161Y1948D01*
X138Y1934D01*
X120Y1916D01*
X106Y1893D01*
X100Y1867D01*
Y1841D01*
X106Y1815D01*
X120Y1792D01*
X138Y1774D01*
X161Y1760D01*
X186Y1754D01*
X188Y1750D01*
X191Y1741D01*
X180Y1730D01*
X174Y1721D01*
X172Y1710D01*
Y1700D01*
X100D01*
Y1499D01*
X301D01*
Y1697D01*
X396D01*
X399Y1684D01*
X392Y1680D01*
X374Y1662D01*
X360Y1639D01*
X354Y1613D01*
Y1587D01*
X360Y1561D01*
X374Y1538D01*
X392Y1520D01*
X415Y1506D01*
X441Y1499D01*
X467D01*
X493Y1506D01*
X516Y1520D01*
X534Y1538D01*
X539Y1547D01*
X672D01*
Y1320D01*
X638D01*
Y1230D01*
X762D01*
Y1320D01*
X728D01*
Y1590D01*
Y1650D01*
X728Y1650D01*
Y1991D01*
X862Y2126D01*
X875Y2120D01*
X875Y2116D01*
Y1896D01*
X914D01*
Y1865D01*
X888D01*
Y1735D01*
X914D01*
Y1670D01*
X888D01*
Y1580D01*
X1012D01*
Y1670D01*
X971D01*
Y1735D01*
X998D01*
Y1865D01*
X971D01*
Y1896D01*
X1381D01*
X1387Y1883D01*
X1384Y1875D01*
Y1375D01*
X1389Y1364D01*
X1400Y1359D01*
X1793D01*
X1834Y1318D01*
Y1191D01*
X1662D01*
Y1195D01*
X1540D01*
Y1198D01*
X1410D01*
Y1191D01*
X1351D01*
X1348Y1203D01*
X1349Y1204D01*
X1354Y1212D01*
X1356Y1221D01*
Y1332D01*
X1354Y1341D01*
X1349Y1349D01*
X1341Y1354D01*
X1332Y1355D01*
X1318D01*
X1309Y1354D01*
X1301Y1349D01*
X1299D01*
X1291Y1354D01*
X1282Y1355D01*
X1268D01*
X1266Y1355D01*
X1253Y1364D01*
Y1479D01*
X1254Y1480D01*
X1259D01*
X1275Y1487D01*
X1288Y1500D01*
X1295Y1516D01*
Y1534D01*
X1288Y1550D01*
X1275Y1563D01*
X1259Y1570D01*
X1241D01*
X1225Y1563D01*
X1212Y1551D01*
X1212Y1551D01*
X1199Y1564D01*
X1183Y1571D01*
X1165D01*
X1148Y1564D01*
X1135Y1551D01*
X1129Y1535D01*
Y1517D01*
X1135Y1500D01*
X1147Y1489D01*
Y1364D01*
X1134Y1355D01*
X1132Y1355D01*
X1118D01*
X1109Y1354D01*
X1101Y1349D01*
X1096Y1341D01*
X1094Y1332D01*
Y1221D01*
X1096Y1212D01*
X1094Y1209D01*
X1079Y1207D01*
X990Y1295D01*
X988Y1300D01*
X978Y1311D01*
Y1430D01*
X1012D01*
Y1520D01*
X888D01*
Y1430D01*
X922D01*
Y1311D01*
X912Y1300D01*
X905Y1284D01*
Y1266D01*
X912Y1250D01*
X925Y1237D01*
X940Y1231D01*
X1049Y1121D01*
X1049Y1121D01*
X1062Y1112D01*
X1078Y1109D01*
X1410D01*
Y1088D01*
X1540D01*
Y1105D01*
X1662D01*
Y1109D01*
X1808D01*
Y1038D01*
X1896D01*
Y1012D01*
X1808D01*
Y936D01*
X1895D01*
Y863D01*
X1970D01*
X2045D01*
Y934D01*
X2046Y940D01*
X2054Y942D01*
X2065Y933D01*
Y762D01*
X2195D01*
Y938D01*
X2203Y947D01*
X2203D01*
Y1077D01*
X2214Y1084D01*
X2275D01*
Y947D01*
X2275D01*
X2280Y938D01*
Y762D01*
X2410D01*
Y935D01*
X2420Y944D01*
X2430Y942D01*
Y863D01*
X2492D01*
Y948D01*
X2432D01*
Y1103D01*
X2394D01*
Y1912D01*
X3255Y2772D01*
X3266Y2766D01*
X3265Y2761D01*
Y2739D01*
X3268Y2726D01*
X2446Y1904D01*
X2437Y1891D01*
X2434Y1875D01*
X2434Y1875D01*
Y1225D01*
X2434Y1225D01*
X2437Y1209D01*
X2446Y1196D01*
X2559Y1083D01*
Y948D01*
X2518D01*
Y850D01*
Y752D01*
X2559D01*
Y591D01*
X2471D01*
Y608D01*
X2468Y623D01*
X2459Y636D01*
X2446Y645D01*
X2430Y648D01*
X2253D01*
X2237Y645D01*
X2224Y636D01*
X2215Y623D01*
X2212Y608D01*
Y492D01*
X2215Y477D01*
X2224Y464D01*
X2237Y455D01*
X2253Y452D01*
X2430D01*
X2446Y455D01*
X2459Y464D01*
X2468Y477D01*
X2471Y492D01*
Y509D01*
X2702D01*
Y445D01*
X2705Y429D01*
X2714Y416D01*
X2727Y407D01*
X2742Y404D01*
X2858D01*
X2873Y407D01*
X2886Y416D01*
X2895Y429D01*
X2898Y445D01*
Y622D01*
X2895Y638D01*
X2886Y651D01*
X2873Y660D01*
X2858Y663D01*
X2742D01*
X2727Y660D01*
X2714Y651D01*
X2705Y638D01*
X2702Y622D01*
Y591D01*
X2641D01*
Y1100D01*
X2638Y1116D01*
X2636Y1118D01*
X2636Y1118D01*
X2641Y1133D01*
X2650Y1137D01*
X2663Y1150D01*
X2670Y1166D01*
Y1184D01*
X2666Y1194D01*
Y1230D01*
X2712D01*
Y1254D01*
X2755D01*
Y1235D01*
X2772D01*
Y1150D01*
X2774Y1139D01*
X2780Y1130D01*
X2802Y1108D01*
X2801Y1103D01*
X2797Y1096D01*
X2742D01*
X2727Y1093D01*
X2714Y1084D01*
X2705Y1071D01*
X2702Y1055D01*
Y878D01*
X2705Y862D01*
X2714Y849D01*
X2727Y840D01*
X2742Y837D01*
X2767D01*
Y777D01*
X2763Y767D01*
Y749D01*
X2770Y733D01*
X2783Y720D01*
X2799Y713D01*
X2817D01*
X2834Y720D01*
X2846Y733D01*
X2853Y749D01*
Y767D01*
X2849Y777D01*
Y837D01*
X2858D01*
X2873Y840D01*
X2886Y849D01*
X2895Y862D01*
X2898Y878D01*
Y1055D01*
X2895Y1071D01*
X2886Y1084D01*
X2883Y1086D01*
X2887Y1099D01*
X3105D01*
Y1032D01*
X3295D01*
Y1214D01*
X3295Y1222D01*
X3306Y1227D01*
X3322D01*
Y937D01*
X3306Y921D01*
X3282D01*
X3276Y931D01*
X3258Y949D01*
X3237Y962D01*
X3213Y968D01*
X3187D01*
X3163Y962D01*
X3142Y949D01*
X3124Y931D01*
X3111Y910D01*
X3105Y886D01*
Y860D01*
X3111Y836D01*
X3124Y815D01*
X3142Y797D01*
X3163Y784D01*
X3187Y778D01*
X3213D01*
X3237Y784D01*
X3258Y797D01*
X3276Y815D01*
X3289Y836D01*
X3295Y860D01*
Y864D01*
X3317D01*
X3328Y867D01*
X3337Y873D01*
X3370Y905D01*
X3376Y914D01*
X3378Y925D01*
Y1500D01*
X3376Y1511D01*
X3370Y1520D01*
X3345Y1545D01*
X3336Y1551D01*
X3325Y1553D01*
X3320D01*
Y1588D01*
X3230D01*
Y1462D01*
X3320D01*
X3322Y1451D01*
Y1373D01*
X3288D01*
Y1300D01*
X3275D01*
Y1287D01*
X3220D01*
Y1235D01*
X3220Y1227D01*
X3209Y1222D01*
X3105D01*
Y1155D01*
X2835D01*
X2828Y1162D01*
Y1235D01*
X2845D01*
Y1365D01*
X2755D01*
Y1336D01*
X2712D01*
Y1360D01*
X2538D01*
X2538Y1239D01*
Y1238D01*
Y1238D01*
X2538Y1238D01*
X2536Y1238D01*
X2525Y1233D01*
X2516Y1242D01*
Y1376D01*
X2527Y1380D01*
X2528Y1380D01*
X2612D01*
Y1455D01*
Y1530D01*
X2528D01*
X2527Y1530D01*
X2516Y1534D01*
Y1858D01*
X3253Y2596D01*
X3265Y2591D01*
Y2465D01*
X3435D01*
Y2635D01*
X3309D01*
X3304Y2647D01*
X3326Y2668D01*
X3339Y2665D01*
X3361D01*
X3383Y2671D01*
X3402Y2682D01*
X3418Y2698D01*
X3429Y2717D01*
X3435Y2739D01*
Y2761D01*
X3429Y2783D01*
X3418Y2802D01*
X3402Y2818D01*
X3383Y2829D01*
X3361Y2835D01*
X3339D01*
X3334Y2834D01*
X3328Y2845D01*
X3348Y2865D01*
X3361D01*
X3383Y2871D01*
X3402Y2882D01*
X3418Y2898D01*
X3429Y2917D01*
X3435Y2939D01*
Y2961D01*
X3429Y2983D01*
X3418Y3002D01*
X3402Y3018D01*
X3383Y3029D01*
X3361Y3035D01*
X3339D01*
X3317Y3029D01*
X3298Y3018D01*
X3282Y3002D01*
X3271Y2983D01*
X3265Y2961D01*
Y2939D01*
X3271Y2917D01*
X3276Y2908D01*
X2325Y1957D01*
X2316Y1944D01*
X2313Y1929D01*
X2313Y1929D01*
Y1891D01*
X2286D01*
X2275Y1896D01*
Y2126D01*
X2266D01*
Y2310D01*
X2268Y2334D01*
X2278Y2364D01*
X2293Y2393D01*
X2313Y2417D01*
X2338Y2437D01*
X2366Y2452D01*
X2388Y2459D01*
X2389Y2459D01*
X2389Y2459D01*
X2390Y2460D01*
X2390Y2460D01*
X2399Y2463D01*
X2399D01*
X2400Y2464D01*
X2400Y2464D01*
X2403Y2465D01*
X2451Y2489D01*
X2514Y2531D01*
X2571Y2581D01*
X2621Y2638D01*
X2644Y2672D01*
X2644Y2672D01*
X2644Y2672D01*
X2661Y2698D01*
X2691Y2760D01*
X2713Y2825D01*
X2727Y2892D01*
X2731Y2960D01*
X2731D01*
Y4228D01*
X2740D01*
Y4362D01*
Y4472D01*
X2731D01*
X2731Y4478D01*
X2717Y4511D01*
X2710Y4521D01*
X2710Y4521D01*
X2707Y4524D01*
X2703Y4531D01*
X2688Y4560D01*
X2676Y4598D01*
X2676Y4601D01*
X2685Y4610D01*
X2715D01*
Y4617D01*
Y5028D01*
D02*
G37*
G36*
X2498Y4255D02*
X2413D01*
Y4193D01*
X2498D01*
Y4255D01*
D02*
G37*
G36*
X2212Y4233D02*
X2150D01*
Y4180D01*
X2212D01*
Y4233D01*
D02*
G37*
G36*
X1261Y4211D02*
X1163D01*
Y4113D01*
X1261D01*
Y4211D01*
D02*
G37*
G36*
X1137D02*
X1039D01*
Y4113D01*
X1137D01*
Y4211D01*
D02*
G37*
G36*
X2498Y4167D02*
X2413D01*
Y4105D01*
X2498D01*
Y4167D01*
D02*
G37*
G36*
X2212Y4155D02*
X2150D01*
Y4102D01*
X2212D01*
Y4155D01*
D02*
G37*
G36*
X2387Y4255D02*
X2302D01*
Y4245D01*
X2300Y4233D01*
X2289Y4233D01*
X2238D01*
Y4167D01*
Y4102D01*
X2290D01*
X2300Y4102D01*
X2312Y4105D01*
X2387D01*
Y4180D01*
Y4255D01*
D02*
G37*
G36*
X3116Y4300D02*
X3084D01*
X3052Y4291D01*
X3023Y4275D01*
X3000Y4252D01*
X2984Y4223D01*
X2975Y4191D01*
Y4159D01*
X2984Y4127D01*
X3000Y4098D01*
X3023Y4075D01*
X3052Y4059D01*
X3084Y4050D01*
X3116D01*
X3148Y4059D01*
X3177Y4075D01*
X3200Y4098D01*
X3216Y4127D01*
X3225Y4159D01*
Y4191D01*
X3216Y4223D01*
X3200Y4252D01*
X3177Y4275D01*
X3148Y4291D01*
X3116Y4300D01*
D02*
G37*
G36*
X1738Y4370D02*
X1612D01*
Y4280D01*
X1630D01*
Y4197D01*
X1619Y4194D01*
X1596Y4180D01*
X1578Y4162D01*
X1564Y4139D01*
X1557Y4113D01*
Y4087D01*
X1564Y4061D01*
X1578Y4038D01*
X1596Y4020D01*
X1619Y4006D01*
X1645Y3999D01*
X1671D01*
X1697Y4006D01*
X1720Y4020D01*
X1738Y4038D01*
X1752Y4061D01*
X1758Y4087D01*
Y4113D01*
X1752Y4139D01*
X1738Y4162D01*
X1720Y4180D01*
X1697Y4194D01*
X1686Y4197D01*
Y4280D01*
X1738D01*
Y4370D01*
D02*
G37*
G36*
X1261Y4087D02*
X1163D01*
Y3989D01*
X1261D01*
Y4087D01*
D02*
G37*
G36*
X1137D02*
X1039D01*
Y3989D01*
X1137D01*
Y4087D01*
D02*
G37*
G36*
X3364Y4180D02*
X3336D01*
X3309Y4173D01*
X3286Y4159D01*
X3266Y4139D01*
X3252Y4116D01*
X3245Y4089D01*
Y4061D01*
X3252Y4034D01*
X3266Y4011D01*
X3286Y3991D01*
X3309Y3977D01*
X3336Y3970D01*
X3364D01*
X3391Y3977D01*
X3414Y3991D01*
X3434Y4011D01*
X3448Y4034D01*
X3455Y4061D01*
Y4089D01*
X3448Y4116D01*
X3434Y4139D01*
X3414Y4159D01*
X3391Y4173D01*
X3364Y4180D01*
D02*
G37*
G36*
X469Y3997D02*
X467D01*
Y3899D01*
X565D01*
Y3901D01*
X557Y3929D01*
X543Y3954D01*
X522Y3975D01*
X497Y3989D01*
X469Y3997D01*
D02*
G37*
G36*
X215D02*
X213D01*
Y3899D01*
X311D01*
Y3901D01*
X303Y3929D01*
X289Y3954D01*
X268Y3975D01*
X243Y3989D01*
X215Y3997D01*
D02*
G37*
G36*
X441D02*
X439D01*
X411Y3989D01*
X386Y3975D01*
X365Y3954D01*
X351Y3929D01*
X343Y3901D01*
Y3899D01*
X441D01*
Y3997D01*
D02*
G37*
G36*
X187D02*
X185D01*
X157Y3989D01*
X132Y3975D01*
X111Y3954D01*
X97Y3929D01*
X89Y3901D01*
Y3899D01*
X187D01*
Y3997D01*
D02*
G37*
G36*
X565Y3873D02*
X467D01*
Y3775D01*
X469D01*
X497Y3783D01*
X522Y3797D01*
X543Y3818D01*
X557Y3843D01*
X565Y3871D01*
Y3873D01*
D02*
G37*
G36*
X441D02*
X343D01*
Y3871D01*
X351Y3843D01*
X365Y3818D01*
X386Y3797D01*
X411Y3783D01*
X439Y3775D01*
X441D01*
Y3873D01*
D02*
G37*
G36*
X311D02*
X213D01*
Y3775D01*
X215D01*
X243Y3783D01*
X268Y3797D01*
X289Y3818D01*
X303Y3843D01*
X311Y3871D01*
Y3873D01*
D02*
G37*
G36*
X187D02*
X89D01*
Y3871D01*
X97Y3843D01*
X111Y3818D01*
X132Y3797D01*
X157Y3783D01*
X185Y3775D01*
X187D01*
Y3873D01*
D02*
G37*
G36*
X1065Y5028D02*
X885D01*
Y4617D01*
X894D01*
Y4530D01*
X885D01*
Y4420D01*
Y4335D01*
X884Y4330D01*
Y3904D01*
X875D01*
Y3674D01*
X992D01*
Y3664D01*
X1054D01*
Y3789D01*
Y3914D01*
X996D01*
Y4285D01*
X1015D01*
Y4420D01*
Y4530D01*
X1006D01*
Y4617D01*
X1065D01*
Y5028D01*
D02*
G37*
G36*
X3365Y3690D02*
X3363D01*
Y3588D01*
X3465D01*
Y3590D01*
X3458Y3620D01*
X3442Y3646D01*
X3421Y3667D01*
X3395Y3683D01*
X3365Y3690D01*
D02*
G37*
G36*
X3337D02*
X3335D01*
X3305Y3683D01*
X3279Y3667D01*
X3258Y3646D01*
X3242Y3620D01*
X3235Y3590D01*
Y3588D01*
X3337D01*
Y3690D01*
D02*
G37*
G36*
X213Y3733D02*
X187D01*
X161Y3726D01*
X138Y3712D01*
X120Y3694D01*
X106Y3671D01*
X100Y3645D01*
Y3619D01*
X106Y3593D01*
X120Y3570D01*
X138Y3552D01*
X161Y3538D01*
X187Y3531D01*
X213D01*
X239Y3538D01*
X262Y3552D01*
X280Y3570D01*
X294Y3593D01*
X301Y3619D01*
Y3645D01*
X294Y3671D01*
X280Y3694D01*
X262Y3712D01*
X239Y3726D01*
X213Y3733D01*
D02*
G37*
G36*
X3465Y3562D02*
X3363D01*
Y3460D01*
X3365D01*
X3395Y3467D01*
X3421Y3483D01*
X3442Y3504D01*
X3458Y3530D01*
X3465Y3560D01*
Y3562D01*
D02*
G37*
G36*
X3337D02*
X3235D01*
Y3560D01*
X3242Y3530D01*
X3258Y3504D01*
X3279Y3483D01*
X3305Y3467D01*
X3335Y3460D01*
X3337D01*
Y3562D01*
D02*
G37*
G36*
X3100Y3604D02*
X3067Y3599D01*
X3037Y3587D01*
X3011Y3567D01*
X2991Y3541D01*
X2978Y3510D01*
X2974Y3478D01*
Y3472D01*
X2978Y3440D01*
X2991Y3409D01*
X3011Y3383D01*
X3037Y3363D01*
X3067Y3351D01*
X3100Y3346D01*
X3133Y3351D01*
X3163Y3363D01*
X3189Y3383D01*
X3209Y3409D01*
X3222Y3440D01*
X3226Y3472D01*
Y3478D01*
X3222Y3510D01*
X3209Y3541D01*
X3189Y3567D01*
X3163Y3587D01*
X3133Y3599D01*
X3100Y3604D01*
D02*
G37*
G36*
X3390Y3266D02*
X3310D01*
X3289Y3262D01*
X3270Y3250D01*
X3258Y3231D01*
X3254Y3210D01*
Y3110D01*
X3258Y3089D01*
X3270Y3070D01*
X3289Y3058D01*
X3310Y3054D01*
X3390D01*
X3411Y3058D01*
X3430Y3070D01*
X3442Y3089D01*
X3446Y3110D01*
Y3210D01*
X3442Y3231D01*
X3430Y3250D01*
X3411Y3262D01*
X3390Y3266D01*
D02*
G37*
G36*
Y2446D02*
X3310D01*
X3289Y2442D01*
X3270Y2430D01*
X3258Y2411D01*
X3254Y2390D01*
Y2290D01*
X3258Y2269D01*
X3270Y2250D01*
X3289Y2238D01*
X3310Y2234D01*
X3390D01*
X3411Y2238D01*
X3430Y2250D01*
X3442Y2269D01*
X3446Y2290D01*
Y2390D01*
X3442Y2411D01*
X3430Y2430D01*
X3411Y2442D01*
X3390Y2446D01*
D02*
G37*
G36*
X3214Y2109D02*
X3213D01*
Y2017D01*
X3305D01*
Y2018D01*
X3298Y2044D01*
X3284Y2068D01*
X3264Y2088D01*
X3240Y2102D01*
X3214Y2109D01*
D02*
G37*
G36*
X3187D02*
X3186D01*
X3160Y2102D01*
X3136Y2088D01*
X3116Y2068D01*
X3102Y2044D01*
X3095Y2018D01*
Y2017D01*
X3187D01*
Y2109D01*
D02*
G37*
G36*
X3305Y1991D02*
X3213D01*
Y1899D01*
X3214D01*
X3240Y1906D01*
X3264Y1920D01*
X3284Y1940D01*
X3298Y1964D01*
X3305Y1990D01*
Y1991D01*
D02*
G37*
G36*
X3187D02*
X3095D01*
Y1990D01*
X3102Y1964D01*
X3116Y1940D01*
X3136Y1920D01*
X3160Y1906D01*
X3186Y1899D01*
X3187D01*
Y1991D01*
D02*
G37*
G36*
X2898Y1955D02*
X2813D01*
Y1893D01*
X2898D01*
Y1955D01*
D02*
G37*
G36*
X2787D02*
X2702D01*
Y1893D01*
X2787D01*
Y1955D01*
D02*
G37*
G36*
X873Y1875D02*
X820D01*
Y1813D01*
X873D01*
Y1875D01*
D02*
G37*
G36*
X795D02*
X742D01*
Y1813D01*
X795D01*
Y1875D01*
D02*
G37*
G36*
X2898Y1867D02*
X2813D01*
Y1805D01*
X2898D01*
Y1867D01*
D02*
G37*
G36*
X2787D02*
X2702D01*
Y1805D01*
X2787D01*
Y1867D01*
D02*
G37*
G36*
X873Y1787D02*
X820D01*
Y1725D01*
X873D01*
Y1787D01*
D02*
G37*
G36*
X795D02*
X742D01*
Y1725D01*
X795D01*
Y1787D01*
D02*
G37*
G36*
X3294Y1844D02*
X3106D01*
Y1656D01*
X3294D01*
Y1844D01*
D02*
G37*
G36*
X2638Y1530D02*
Y1468D01*
X2723D01*
Y1530D01*
X2638D01*
D02*
G37*
G36*
X2888Y1785D02*
X2712D01*
Y1655D01*
X2759D01*
Y1605D01*
X2755D01*
Y1475D01*
X2840D01*
Y1465D01*
X2882D01*
Y1540D01*
Y1615D01*
X2851D01*
X2846Y1627D01*
X2841Y1633D01*
Y1655D01*
X2888D01*
Y1785D01*
D02*
G37*
G36*
X2950Y1615D02*
X2908D01*
Y1540D01*
Y1465D01*
X2950D01*
Y1475D01*
X3035D01*
Y1497D01*
X3080D01*
Y1462D01*
X3170D01*
Y1588D01*
X3080D01*
Y1553D01*
X3035D01*
Y1605D01*
X2950D01*
Y1615D01*
D02*
G37*
G36*
X2723Y1442D02*
X2638D01*
Y1380D01*
X2723D01*
Y1442D01*
D02*
G37*
G36*
X1662Y1345D02*
X1538D01*
Y1328D01*
X1511D01*
X1500Y1338D01*
X1484Y1345D01*
X1466D01*
X1450Y1338D01*
X1437Y1325D01*
X1430Y1309D01*
Y1291D01*
X1437Y1275D01*
X1450Y1262D01*
X1466Y1255D01*
X1484D01*
X1500Y1262D01*
X1511Y1272D01*
X1538D01*
Y1255D01*
X1662D01*
Y1345D01*
D02*
G37*
G36*
X3262Y1373D02*
X3220D01*
Y1313D01*
X3262D01*
Y1373D01*
D02*
G37*
G36*
X3035Y1365D02*
X2945D01*
Y1235D01*
X3035D01*
Y1272D01*
X3080D01*
Y1238D01*
X3170D01*
Y1362D01*
X3080D01*
Y1328D01*
X3035D01*
Y1365D01*
D02*
G37*
G36*
X495Y1222D02*
X305D01*
Y1032D01*
X495D01*
Y1097D01*
X638D01*
Y1080D01*
X762D01*
Y1170D01*
X638D01*
Y1153D01*
X495D01*
Y1222D01*
D02*
G37*
G36*
X1550Y1073D02*
X1488D01*
Y1020D01*
X1550D01*
Y1073D01*
D02*
G37*
G36*
X1462D02*
X1400D01*
Y1020D01*
X1462D01*
Y1073D01*
D02*
G37*
G36*
X1550Y995D02*
X1488D01*
Y942D01*
X1550D01*
Y995D01*
D02*
G37*
G36*
X1462D02*
X1400D01*
Y942D01*
X1462D01*
Y995D01*
D02*
G37*
G36*
X414Y978D02*
X413D01*
Y886D01*
X505D01*
Y887D01*
X498Y914D01*
X484Y938D01*
X465Y957D01*
X441Y971D01*
X414Y978D01*
D02*
G37*
G36*
X387D02*
X386D01*
X359Y971D01*
X335Y957D01*
X316Y938D01*
X302Y914D01*
X295Y887D01*
Y886D01*
X387D01*
Y978D01*
D02*
G37*
G36*
X505Y860D02*
X413D01*
Y768D01*
X414D01*
X441Y775D01*
X465Y789D01*
X484Y808D01*
X498Y832D01*
X505Y859D01*
Y860D01*
D02*
G37*
G36*
X387D02*
X295D01*
Y859D01*
X302Y832D01*
X316Y808D01*
X335Y789D01*
X359Y775D01*
X386Y768D01*
X387D01*
Y860D01*
D02*
G37*
G36*
X2492Y837D02*
X2430D01*
Y752D01*
X2492D01*
Y837D01*
D02*
G37*
G36*
X2045D02*
X1983D01*
Y752D01*
X2045D01*
Y837D01*
D02*
G37*
G36*
X1160Y1003D02*
X1090D01*
X1079Y1001D01*
X1070Y995D01*
X1055Y980D01*
X1049Y971D01*
X1047Y960D01*
Y733D01*
X1035Y723D01*
X1015D01*
X1007Y721D01*
X1000Y717D01*
X1000D01*
X993Y721D01*
X985Y723D01*
X965D01*
X955Y732D01*
X953Y740D01*
X958Y745D01*
X965Y761D01*
Y779D01*
X958Y795D01*
X945Y808D01*
X929Y815D01*
X911D01*
X895Y808D01*
X882Y795D01*
X875Y779D01*
Y761D01*
X875Y760D01*
X870Y755D01*
X864Y746D01*
X862Y735D01*
X858Y732D01*
X853Y733D01*
Y635D01*
X827D01*
Y733D01*
X825Y733D01*
X823Y733D01*
Y635D01*
X797D01*
Y733D01*
X788Y731D01*
X778Y725D01*
X771Y715D01*
X769Y703D01*
Y651D01*
X756Y645D01*
X748Y651D01*
X730Y658D01*
X723Y659D01*
Y545D01*
Y431D01*
X730Y432D01*
X748Y439D01*
X764Y451D01*
X776Y467D01*
X783Y485D01*
X786Y505D01*
Y526D01*
X799Y537D01*
X799Y537D01*
X815D01*
X820Y524D01*
X817Y521D01*
X809Y501D01*
Y481D01*
X817Y461D01*
X832Y446D01*
X851Y439D01*
X872D01*
X891Y446D01*
X906Y461D01*
X914Y481D01*
Y501D01*
X906Y521D01*
X892Y534D01*
X893Y539D01*
X896Y547D01*
X901D01*
X905Y548D01*
X910Y547D01*
X931D01*
X938Y549D01*
X945Y553D01*
X950D01*
X957Y549D01*
X965Y547D01*
X985D01*
X993Y549D01*
X1000Y553D01*
X1000D01*
X1007Y549D01*
X1015Y547D01*
X1035D01*
X1043Y549D01*
X1050Y553D01*
X1050D01*
X1057Y549D01*
X1065Y547D01*
X1085D01*
X1097Y537D01*
Y515D01*
X1099Y504D01*
X1105Y495D01*
X1120Y480D01*
X1129Y474D01*
X1140Y472D01*
X1210D01*
X1221Y474D01*
X1230Y480D01*
X1245Y495D01*
X1251Y504D01*
X1253Y515D01*
Y537D01*
X1265Y547D01*
X1285D01*
X1293Y549D01*
X1300Y553D01*
X1300D01*
X1307Y549D01*
X1315Y547D01*
X1335D01*
X1343Y549D01*
X1350Y553D01*
X1355D01*
X1362Y549D01*
X1369Y547D01*
X1390D01*
X1395Y548D01*
X1399Y547D01*
X1404D01*
X1407Y539D01*
X1408Y534D01*
X1394Y521D01*
X1386Y501D01*
Y481D01*
X1394Y461D01*
X1409Y446D01*
X1428Y439D01*
X1449D01*
X1468Y446D01*
X1483Y461D01*
X1491Y481D01*
Y501D01*
X1483Y521D01*
X1480Y524D01*
X1485Y537D01*
X1501D01*
X1501Y537D01*
X1514Y526D01*
Y505D01*
X1517Y485D01*
X1524Y467D01*
X1536Y451D01*
X1552Y439D01*
X1570Y432D01*
X1577Y431D01*
Y545D01*
Y659D01*
X1570Y658D01*
X1552Y651D01*
X1544Y645D01*
X1531Y651D01*
Y703D01*
X1529Y715D01*
X1522Y725D01*
X1512Y731D01*
X1503Y733D01*
Y635D01*
X1477D01*
Y733D01*
X1475Y733D01*
X1470Y733D01*
X1467D01*
X1461Y746D01*
X1462Y748D01*
X1794D01*
X1858Y685D01*
X1862Y675D01*
X1868Y669D01*
Y648D01*
X1820D01*
X1804Y645D01*
X1791Y636D01*
X1783Y624D01*
X1780Y623D01*
X1769Y623D01*
X1762Y634D01*
X1749Y643D01*
X1733Y646D01*
X1671D01*
Y545D01*
Y444D01*
X1733D01*
X1749Y447D01*
X1762Y456D01*
X1771Y469D01*
X1771Y471D01*
X1785Y473D01*
X1791Y464D01*
X1804Y455D01*
X1820Y452D01*
X1997D01*
X2013Y455D01*
X2026Y464D01*
X2035Y477D01*
X2038Y492D01*
Y608D01*
X2035Y623D01*
X2026Y636D01*
X2013Y645D01*
X1997Y648D01*
X1949D01*
Y689D01*
X1949Y689D01*
X1946Y704D01*
X1945Y706D01*
Y709D01*
X1938Y725D01*
X1925Y738D01*
X1922Y739D01*
X1925Y752D01*
X1957D01*
Y837D01*
X1895D01*
Y780D01*
X1883Y775D01*
X1840Y818D01*
X1826Y827D01*
X1811Y830D01*
X1811Y830D01*
X1435D01*
X1419Y827D01*
X1406Y818D01*
X1406Y818D01*
X1401Y813D01*
X1395D01*
X1389Y815D01*
X1371D01*
X1368Y814D01*
X1365Y815D01*
X1356Y822D01*
Y929D01*
X1354Y938D01*
X1349Y946D01*
X1341Y951D01*
X1332Y952D01*
X1318D01*
X1309Y951D01*
X1301Y946D01*
X1299D01*
X1291Y951D01*
X1282Y952D01*
X1268D01*
X1259Y951D01*
X1258Y951D01*
X1257Y953D01*
X1245Y960D01*
X1238Y962D01*
Y873D01*
X1212D01*
Y962D01*
X1204Y961D01*
X1201Y971D01*
X1195Y980D01*
X1180Y995D01*
X1171Y1001D01*
X1160Y1003D01*
D02*
G37*
G36*
X629Y646D02*
X567D01*
X551Y643D01*
X538Y634D01*
X529Y621D01*
X526Y605D01*
Y558D01*
X629D01*
Y646D01*
D02*
G37*
G36*
Y532D02*
X526D01*
Y485D01*
X529Y469D01*
X538Y456D01*
X551Y447D01*
X567Y444D01*
X629D01*
Y532D01*
D02*
G37*
G36*
X1603Y659D02*
Y545D01*
Y431D01*
X1610Y432D01*
X1628Y439D01*
X1634Y444D01*
X1645D01*
Y545D01*
Y646D01*
X1634D01*
X1628Y651D01*
X1610Y658D01*
X1603Y659D01*
D02*
G37*
G36*
X697D02*
X690Y658D01*
X672Y651D01*
X666Y646D01*
X655D01*
Y545D01*
Y444D01*
X666D01*
X672Y439D01*
X690Y432D01*
X697Y431D01*
Y545D01*
Y659D01*
D02*
G37*
G36*
X3318Y485D02*
X3313D01*
Y313D01*
X3485D01*
Y318D01*
X3478Y354D01*
X3464Y388D01*
X3444Y418D01*
X3418Y444D01*
X3388Y464D01*
X3354Y478D01*
X3318Y485D01*
D02*
G37*
G36*
X3287D02*
X3282D01*
X3246Y478D01*
X3212Y464D01*
X3182Y444D01*
X3156Y418D01*
X3136Y388D01*
X3122Y354D01*
X3115Y318D01*
Y313D01*
X3287D01*
Y485D01*
D02*
G37*
G36*
X318D02*
X313D01*
Y313D01*
X485D01*
Y318D01*
X478Y354D01*
X464Y388D01*
X444Y418D01*
X418Y444D01*
X388Y464D01*
X354Y478D01*
X318Y485D01*
D02*
G37*
G36*
X287D02*
X282D01*
X246Y478D01*
X212Y464D01*
X182Y444D01*
X156Y418D01*
X136Y388D01*
X122Y354D01*
X115Y318D01*
Y313D01*
X287D01*
Y485D01*
D02*
G37*
G36*
X1736Y213D02*
X1671D01*
Y140D01*
X1774D01*
Y175D01*
X1771Y190D01*
X1763Y202D01*
X1751Y210D01*
X1736Y213D01*
D02*
G37*
G36*
X629D02*
X564D01*
X549Y210D01*
X537Y202D01*
X529Y190D01*
X526Y175D01*
Y140D01*
X629D01*
Y213D01*
D02*
G37*
G36*
X1577Y239D02*
X1570Y238D01*
X1552Y231D01*
X1536Y219D01*
X1524Y203D01*
X1517Y185D01*
X1514Y165D01*
Y138D01*
X1577D01*
Y239D01*
D02*
G37*
G36*
X723D02*
Y138D01*
X786D01*
Y165D01*
X783Y185D01*
X776Y203D01*
X764Y219D01*
X748Y231D01*
X730Y238D01*
X723Y239D01*
D02*
G37*
G36*
X3485Y287D02*
X3313D01*
Y115D01*
X3318D01*
X3354Y122D01*
X3388Y136D01*
X3418Y156D01*
X3444Y182D01*
X3464Y212D01*
X3478Y246D01*
X3485Y282D01*
Y287D01*
D02*
G37*
G36*
X3287D02*
X3115D01*
Y282D01*
X3122Y246D01*
X3136Y212D01*
X3156Y182D01*
X3182Y156D01*
X3212Y136D01*
X3246Y122D01*
X3282Y115D01*
X3287D01*
Y287D01*
D02*
G37*
G36*
X485D02*
X313D01*
Y115D01*
X318D01*
X354Y122D01*
X388Y136D01*
X418Y156D01*
X444Y182D01*
X464Y212D01*
X478Y246D01*
X485Y282D01*
Y287D01*
D02*
G37*
G36*
X287D02*
X115D01*
Y282D01*
X122Y246D01*
X136Y212D01*
X156Y182D01*
X182Y156D01*
X212Y136D01*
X246Y122D01*
X282Y115D01*
X287D01*
Y287D01*
D02*
G37*
%LPD*%
G36*
X2313Y1838D02*
X2138D01*
Y1736D01*
Y1635D01*
X2313D01*
Y1103D01*
X2275D01*
Y1100D01*
X2214D01*
Y1114D01*
X2036D01*
Y1100D01*
X1975D01*
Y1103D01*
X1850D01*
Y1325D01*
X1800Y1375D01*
X1400D01*
Y1875D01*
X2313D01*
Y1838D01*
D02*
G37*
%LPC*%
G36*
X2112D02*
X1934D01*
Y1749D01*
X2112D01*
Y1838D01*
D02*
G37*
G36*
Y1724D02*
X1934D01*
Y1635D01*
X2112D01*
Y1724D01*
D02*
G37*
%LPD*%
D11*
X2597Y4638D02*
X2625Y4700D01*
X2597Y4637D02*
Y4638D01*
D12*
X1929Y3925D02*
X2036Y4033D01*
X1404Y4100D02*
X1579Y3925D01*
X1929D01*
X1829Y3104D02*
Y3632D01*
X1831Y3634D01*
X1829D02*
Y3789D01*
X2800Y966D02*
X2808Y958D01*
X1475Y1300D02*
X1600D01*
X1067Y2011D02*
Y2142D01*
X1275Y2350D01*
X1343D01*
X650Y2009D02*
X1116Y2475D01*
X1225Y1277D02*
Y1491D01*
X1425Y2425D02*
X1475Y2375D01*
X700Y2003D02*
X1122Y2425D01*
X1375Y2200D02*
X1425D01*
X1122Y2425D02*
X1425D01*
X1116Y2475D02*
X1450D01*
X1425Y2200D02*
X1475Y2250D01*
X1450Y2475D02*
X1525Y2400D01*
X1325Y2275D02*
X1400D01*
X1225Y1491D02*
X1250Y1516D01*
Y1525D01*
X1321Y2146D02*
X1375Y2200D01*
X1194Y2144D02*
X1325Y2275D01*
X1174Y1526D02*
X1175Y1524D01*
Y1277D02*
Y1524D01*
X1194Y2011D02*
Y2144D01*
X2804Y1598D02*
X2808Y1602D01*
X2800Y1540D02*
X2804Y1544D01*
Y1598D01*
X952Y1277D02*
X953Y1275D01*
X950D02*
Y1475D01*
X2225Y4033D02*
X2388D01*
X2210D02*
X2225D01*
X950Y1275D02*
X952Y1277D01*
X1128Y1165D02*
Y1273D01*
X1123Y1275D02*
X1125Y1277D01*
X322Y3500D02*
X1000D01*
X1149Y3124D02*
X1200Y3175D01*
X454Y3124D02*
X1149D01*
X1200Y3175D02*
Y3625D01*
Y3783D01*
X335Y3000D02*
X1250D01*
X1325Y3075D02*
Y3575D01*
X1250Y3000D02*
X1325Y3075D01*
X205Y2870D02*
X335Y3000D01*
X950Y2875D02*
X1425D01*
X1575Y3025D02*
Y3789D01*
X1425Y2875D02*
X1575Y3025D01*
X1448Y2998D02*
Y3789D01*
X542Y2925D02*
X1375D01*
X1448Y2998D01*
X454Y2870D02*
X487D01*
X542Y2925D01*
X825Y2750D02*
X950Y2875D01*
X334Y2750D02*
X825D01*
X975Y2825D02*
X1475D01*
X472Y2634D02*
X784D01*
X975Y2825D01*
X275Y2475D02*
X700D01*
X1025Y2725D02*
X1525D01*
X474Y2382D02*
X682D01*
X1025Y2725D01*
X1000Y2775D02*
X1500D01*
X700Y2475D02*
X1000Y2775D01*
X1500D02*
X1829Y3104D01*
X1475Y2825D02*
X1702Y3052D01*
X1525Y2725D02*
X1956Y3156D01*
X1550Y2675D02*
X1956Y2269D01*
X600Y2225D02*
X1050Y2675D01*
X1550D01*
X1321Y3579D02*
X1325Y3575D01*
X1321Y3579D02*
Y3789D01*
X1702Y3052D02*
Y3789D01*
X1956Y3156D02*
Y3789D01*
X317Y2225D02*
X600D01*
X562Y2112D02*
X1075Y2625D01*
X454Y2108D02*
X458Y2112D01*
X562D01*
X1075Y2625D02*
X1525D01*
X329Y1983D02*
X504D01*
X454Y1870D02*
X1109Y2525D01*
X700Y1650D02*
Y2003D01*
X504Y1983D02*
X1096Y2575D01*
X1500D01*
X650Y1775D02*
Y2009D01*
X1109Y2525D02*
X1475D01*
X3350Y2925D02*
Y2950D01*
X2036Y4033D02*
X2210D01*
X628Y3378D02*
X675Y3425D01*
X454Y3378D02*
X628D01*
X175Y3125D02*
X201D01*
X600Y3250D02*
X675Y3325D01*
X326Y3250D02*
X600D01*
X201Y3125D02*
X326Y3250D01*
X176Y3124D02*
X200D01*
X175Y3125D02*
X176Y3124D01*
X200Y3378D02*
X322Y3500D01*
X3350Y4075D02*
X3350Y4075D01*
X402Y1125D02*
X700D01*
X400Y1127D02*
X402Y1125D01*
X700Y1275D02*
Y1590D01*
X685Y1575D02*
X700Y1590D01*
Y1650D01*
X700Y1650D01*
X479Y1575D02*
X685D01*
X454Y1600D02*
X479Y1575D01*
X1125Y1277D02*
X1128Y1273D01*
X943Y1800D02*
Y2008D01*
Y1650D02*
Y1800D01*
X1194Y3789D02*
X1200Y3783D01*
X940Y2165D02*
X950Y2175D01*
X940Y2011D02*
Y2165D01*
X200Y2870D02*
X205D01*
X200Y2616D02*
X334Y2750D01*
X454Y2616D02*
X472Y2634D01*
X200Y2400D02*
X275Y2475D01*
X200Y2362D02*
Y2400D01*
X454Y2362D02*
X474Y2382D01*
X200Y2108D02*
X317Y2225D01*
X200Y1854D02*
X329Y1983D01*
X200Y1600D02*
Y1710D01*
X215Y1725D01*
X600D01*
X650Y1775D01*
X1404Y4100D02*
Y4379D01*
X1500Y4475D01*
X1675D01*
X1900D01*
Y4475D01*
Y4325D02*
X1912Y4313D01*
Y4100D02*
Y4313D01*
X1658Y4100D02*
Y4308D01*
X1675Y4325D01*
X1525Y2625D02*
X1829Y2321D01*
X1500Y2575D02*
X1702Y2373D01*
X1829Y2011D02*
Y2321D01*
X1956Y2011D02*
Y2269D01*
X1475Y2525D02*
X1575Y2425D01*
X1702Y2011D02*
Y2373D01*
X1575Y2011D02*
Y2425D01*
X1525Y2225D02*
Y2400D01*
X1448Y2148D02*
X1525Y2225D01*
X1448Y2011D02*
Y2148D01*
X1475Y2250D02*
Y2375D01*
X1321Y2011D02*
Y2146D01*
X2783Y550D02*
X2800Y534D01*
Y1150D02*
Y1300D01*
X2823Y1127D02*
X3200D01*
X2800Y1150D02*
X2823Y1127D01*
X2795Y1295D02*
X2800Y1300D01*
X3317Y893D02*
X3350Y925D01*
X3200Y873D02*
X3219Y893D01*
X3317D01*
X3350Y925D02*
Y1500D01*
X3325Y1525D02*
X3350Y1500D01*
X3275Y1525D02*
X3325D01*
X3005D02*
X3125D01*
X2990Y1540D02*
X3005Y1525D01*
X2990Y1300D02*
X3125D01*
X2388Y4033D02*
X2400Y4020D01*
X950Y4798D02*
X975Y4823D01*
X940Y4330D02*
X950Y4340D01*
X940Y2011D02*
X943Y2008D01*
X1275Y1150D02*
Y1277D01*
X1468Y1150D02*
X1475Y1143D01*
X2125Y1025D02*
X2130Y1020D01*
X2345Y1016D02*
X2354Y1025D01*
X2800Y964D02*
Y966D01*
X905Y750D02*
X925D01*
X1410Y635D02*
Y740D01*
X1400Y750D02*
X1410Y740D01*
X1380Y635D02*
Y745D01*
X920D02*
X925Y750D01*
X920Y635D02*
Y745D01*
X890Y635D02*
Y735D01*
X905Y750D01*
X918Y579D02*
X920Y581D01*
Y635D01*
X810D02*
X840D01*
X1460D02*
X1490D01*
X1380D02*
X1410D01*
X1075D02*
Y960D01*
X1090Y975D02*
X1160D01*
X1075Y960D02*
X1090Y975D01*
X1175Y873D02*
X1175Y873D01*
X1160Y975D02*
X1175Y960D01*
Y873D02*
Y960D01*
X1210Y500D02*
X1225Y515D01*
X1125D02*
X1140Y500D01*
X1225Y515D02*
Y635D01*
X1125Y515D02*
Y635D01*
X1140Y500D02*
X1210D01*
X1125Y635D02*
X1125Y635D01*
X1175Y635D02*
X1175Y635D01*
Y873D01*
X1125Y635D02*
Y873D01*
X1125Y635D02*
X1125Y635D01*
D17*
X2210Y3789D02*
D03*
X2083D02*
D03*
X1956D02*
D03*
X1829D02*
D03*
X1702D02*
D03*
X1575D02*
D03*
X1448D02*
D03*
X1321D02*
D03*
X1194D02*
D03*
X1067D02*
D03*
X940D02*
D03*
X2210Y2011D02*
D03*
X2083D02*
D03*
X1956D02*
D03*
X1829D02*
D03*
X1702D02*
D03*
X1575D02*
D03*
X1448D02*
D03*
X1321D02*
D03*
X1194D02*
D03*
X1067D02*
D03*
X940D02*
D03*
D18*
X2990Y1540D02*
D03*
X2895D02*
D03*
X2800D02*
D03*
Y1300D02*
D03*
X2990D02*
D03*
D19*
X2400Y4020D02*
D03*
Y4180D02*
D03*
X2625Y1455D02*
D03*
Y1295D02*
D03*
X2800Y1880D02*
D03*
Y1720D02*
D03*
D20*
X2225Y4033D02*
D03*
Y4167D02*
D03*
X950Y4475D02*
D03*
Y4340D02*
D03*
X2675Y4283D02*
D03*
Y4417D02*
D03*
X1475Y1143D02*
D03*
Y1007D02*
D03*
D21*
X721Y4792D02*
D03*
X1229D02*
D03*
X2371D02*
D03*
X2879D02*
D03*
D22*
X975Y4823D02*
D03*
X2625D02*
D03*
D23*
X1900Y4475D02*
D03*
Y4325D02*
D03*
X1675Y4475D02*
D03*
Y4325D02*
D03*
X700Y1125D02*
D03*
Y1275D02*
D03*
X950Y1475D02*
D03*
Y1625D02*
D03*
X1600Y1150D02*
D03*
Y1300D02*
D03*
D24*
X943Y1800D02*
D03*
X807D02*
D03*
D25*
X1125Y1277D02*
D03*
X1175D02*
D03*
X1225D02*
D03*
X1275D02*
D03*
X1325D02*
D03*
Y873D02*
D03*
X1275D02*
D03*
X1225D02*
D03*
X1175D02*
D03*
X1125D02*
D03*
D26*
X2345Y850D02*
D03*
X2505D02*
D03*
X2130D02*
D03*
X1970D02*
D03*
D27*
X2125Y1025D02*
D03*
X2354D02*
D03*
X1896D02*
D03*
D28*
X2125Y1736D02*
D03*
D29*
X3125Y1525D02*
D03*
X3275D02*
D03*
X3275Y1300D02*
D03*
X3125D02*
D03*
D30*
X2800Y534D02*
D03*
Y966D02*
D03*
D31*
X2342Y550D02*
D03*
X1908D02*
D03*
D32*
X1658Y545D02*
D03*
X642D02*
D03*
D33*
Y127D02*
D03*
X1658D02*
D03*
D34*
X840Y635D02*
D03*
X890D02*
D03*
X1025D02*
D03*
X1125D02*
D03*
X1175D02*
D03*
X1275D02*
D03*
X1410D02*
D03*
X1490D02*
D03*
X1460D02*
D03*
X1380D02*
D03*
X1325D02*
D03*
X1225D02*
D03*
X1075D02*
D03*
X975D02*
D03*
X920D02*
D03*
X810D02*
D03*
D53*
X3350Y2750D02*
D03*
Y2950D02*
D03*
D55*
X3350Y4075D02*
D03*
Y3575D02*
D03*
D60*
X400Y1127D02*
D03*
X3200D02*
D03*
D61*
X400Y873D02*
D03*
X3200D02*
D03*
D71*
X2377Y2514D02*
G03*
X2598Y2703I-216J476D01*
G01*
X2377Y2514D02*
G03*
X2210Y2310I51J-212D01*
G01*
X2619Y4665D02*
G03*
X2664Y4489I254J-28D01*
G01*
X2679Y4442D02*
G03*
X2664Y4489I-80J0D01*
G01*
X2598Y2703D02*
G03*
X2675Y2960I-391J258D01*
G01*
X2210Y2011D02*
Y2310D01*
X2619Y4665D02*
X2625Y4700D01*
X2679Y4417D02*
Y4442D01*
X2675Y4417D02*
X2679Y4417D01*
X2675Y2960D02*
Y4275D01*
X950Y4475D02*
Y4798D01*
X940Y3789D02*
Y4330D01*
D72*
X2800Y1602D02*
Y1720D01*
X2808Y758D02*
Y958D01*
X1900Y697D02*
X1908Y689D01*
Y550D02*
Y689D01*
X1811Y789D02*
X1900Y700D01*
X1418Y772D02*
X1435Y789D01*
X1380Y770D02*
X1382Y772D01*
X1900Y697D02*
Y700D01*
X1435Y789D02*
X1811D01*
X1382Y772D02*
X1418D01*
X2210Y3789D02*
Y4033D01*
X2125Y1150D02*
Y1736D01*
X953Y1275D02*
X1078Y1150D01*
X1675D02*
X2125D01*
X1482D02*
X1675D01*
X1078D02*
X1275D01*
X2354Y1929D02*
X3350Y2925D01*
X2354Y1025D02*
Y1929D01*
X2475Y1225D02*
Y1875D01*
X3350Y2750D01*
X2625Y1175D02*
Y1295D01*
X2600Y550D02*
X2783D01*
X2342D02*
X2600D01*
X2475Y1225D02*
X2600Y1100D01*
Y550D02*
Y1100D01*
X2625Y1295D02*
X2795D01*
X1275Y1150D02*
X1468D01*
X1475Y1143D02*
X1482Y1150D01*
X2125Y1025D02*
Y1150D01*
X2130Y850D02*
Y1020D01*
X2345Y850D02*
Y1016D01*
D73*
X1914Y1848D02*
D03*
D74*
X2075Y2038D02*
D03*
D75*
X1075Y3788D02*
D03*
X2075D02*
D03*
D76*
X975Y4700D02*
D03*
D77*
X3100Y4175D02*
D03*
D78*
Y3475D02*
D03*
D79*
X3350Y3160D02*
D03*
Y2340D02*
D03*
D80*
Y2550D02*
D03*
D81*
X2625Y4700D02*
D03*
D82*
X1150Y4100D02*
D03*
D83*
X1404D02*
D03*
X1658D02*
D03*
X1912D02*
D03*
X200Y3886D02*
D03*
Y3632D02*
D03*
Y3378D02*
D03*
Y3124D02*
D03*
Y2870D02*
D03*
Y2616D02*
D03*
Y2362D02*
D03*
Y2108D02*
D03*
X454Y3886D02*
D03*
Y3632D02*
D03*
Y3378D02*
D03*
Y3124D02*
D03*
Y2870D02*
D03*
Y2616D02*
D03*
Y2362D02*
D03*
X200Y1854D02*
D03*
X454Y2108D02*
D03*
Y1870D02*
D03*
Y1600D02*
D03*
D84*
X3200Y2004D02*
D03*
D85*
Y1750D02*
D03*
D86*
X861Y491D02*
D03*
X1439D02*
D03*
D87*
X710Y545D02*
D03*
Y125D02*
D03*
X1590Y545D02*
D03*
Y125D02*
D03*
D88*
X200Y1600D02*
D03*
D89*
X300Y4950D02*
D03*
X3300D02*
D03*
Y300D02*
D03*
X300D02*
D03*
D90*
X2455Y2418D02*
D03*
X2447Y2709D02*
D03*
X2133Y1283D02*
D03*
Y1383D02*
D03*
Y1483D02*
D03*
X3475Y4375D02*
D03*
Y3875D02*
D03*
Y3375D02*
D03*
Y2875D02*
D03*
Y1875D02*
D03*
Y1375D02*
D03*
Y875D02*
D03*
X3350Y4625D02*
D03*
X3225Y4375D02*
D03*
Y3375D02*
D03*
X3350Y2125D02*
D03*
Y1625D02*
D03*
Y625D02*
D03*
X3100Y5125D02*
D03*
Y4625D02*
D03*
X2975Y4375D02*
D03*
Y3875D02*
D03*
X3100Y3125D02*
D03*
Y2125D02*
D03*
Y1625D02*
D03*
X2975Y875D02*
D03*
X3100Y625D02*
D03*
X2975Y375D02*
D03*
X2850Y5125D02*
D03*
Y2625D02*
D03*
Y2125D02*
D03*
X2725Y375D02*
D03*
X2475Y3375D02*
D03*
X2600Y1625D02*
D03*
X2475Y375D02*
D03*
X2350Y5125D02*
D03*
X2225Y4875D02*
D03*
Y4375D02*
D03*
X2350Y3625D02*
D03*
X2225Y3375D02*
D03*
X2350Y3125D02*
D03*
X2225Y2875D02*
D03*
Y375D02*
D03*
X2100Y5125D02*
D03*
X1975Y4875D02*
D03*
X2100Y4625D02*
D03*
Y4125D02*
D03*
Y3625D02*
D03*
Y3125D02*
D03*
X1975Y2875D02*
D03*
X2100Y2625D02*
D03*
X1975Y2375D02*
D03*
X2100Y625D02*
D03*
X1975Y375D02*
D03*
X1850Y5125D02*
D03*
X1725Y4875D02*
D03*
X1850Y4625D02*
D03*
X1725Y875D02*
D03*
Y375D02*
D03*
X1600Y5125D02*
D03*
X1475Y4875D02*
D03*
X1600Y4625D02*
D03*
X1475Y875D02*
D03*
Y375D02*
D03*
X1350Y5125D02*
D03*
X1225Y4375D02*
D03*
X1350Y1625D02*
D03*
X1225Y375D02*
D03*
X1100Y3625D02*
D03*
Y1625D02*
D03*
X975Y875D02*
D03*
Y375D02*
D03*
X725Y4375D02*
D03*
Y3875D02*
D03*
X850Y1625D02*
D03*
Y1125D02*
D03*
X725Y875D02*
D03*
Y375D02*
D03*
X600Y5125D02*
D03*
X475Y4375D02*
D03*
X600Y4125D02*
D03*
Y3625D02*
D03*
X2545Y4331D02*
D03*
X2547Y4221D02*
D03*
X2554Y4111D02*
D03*
Y4001D02*
D03*
Y3891D02*
D03*
Y3781D02*
D03*
Y3671D02*
D03*
Y3561D02*
D03*
Y3451D02*
D03*
Y3341D02*
D03*
Y3231D02*
D03*
Y3121D02*
D03*
Y3011D02*
D03*
X2548Y2901D02*
D03*
X2512Y2797D02*
D03*
X2360Y2642D02*
D03*
X2260Y2597D02*
D03*
X2174Y2527D02*
D03*
X2115Y2434D02*
D03*
X2090Y2327D02*
D03*
X2089Y2217D02*
D03*
X2331Y2261D02*
D03*
X2357Y2368D02*
D03*
X2549Y2476D02*
D03*
X2630Y2549D02*
D03*
X2698Y2636D02*
D03*
X2751Y2733D02*
D03*
X2783Y2838D02*
D03*
X2796Y2947D02*
D03*
X2796Y3057D02*
D03*
Y3167D02*
D03*
Y3277D02*
D03*
Y3387D02*
D03*
Y3497D02*
D03*
Y3607D02*
D03*
Y3717D02*
D03*
Y3827D02*
D03*
Y3937D02*
D03*
Y4047D02*
D03*
Y4157D02*
D03*
X2806Y4267D02*
D03*
X1831Y3634D02*
D03*
X2578Y5094D02*
D03*
X2519Y4509D02*
D03*
X2544Y4402D02*
D03*
X2800Y4350D02*
D03*
X2805Y4460D02*
D03*
X2721Y5091D02*
D03*
X819Y4328D02*
D03*
Y4218D02*
D03*
Y4108D02*
D03*
Y3998D02*
D03*
X809Y3888D02*
D03*
Y3778D02*
D03*
X812Y3668D02*
D03*
X1067Y4256D02*
D03*
X1081Y4366D02*
D03*
X948Y5094D02*
D03*
X841Y5069D02*
D03*
X823Y4411D02*
D03*
X1081Y4456D02*
D03*
X1094Y4565D02*
D03*
X1071Y5091D02*
D03*
X1900Y700D02*
D03*
X1475Y1300D02*
D03*
X1343Y2350D02*
D03*
X1250Y1525D02*
D03*
X1400Y2275D02*
D03*
X1174Y1526D02*
D03*
X2808Y1602D02*
D03*
X950Y1275D02*
D03*
X1000Y3500D02*
D03*
X1325Y3575D02*
D03*
X683Y3433D02*
D03*
X675Y3325D02*
D03*
X2625Y1175D02*
D03*
X2808Y758D02*
D03*
X2133Y1583D02*
D03*
X2208Y3933D02*
D03*
X1200Y3625D02*
D03*
X959Y2169D02*
D03*
X920Y770D02*
D03*
X1380D02*
D03*
M02*
