M48
;Layer_Color=9474304
;FILE_FORMAT=4:2
METRIC,LZ
;TYPE=PLATED
T1F00S00C0.30
T2F00S00C0.80
T4F00S00C0.90
T5F00S00C1.00
T7F00S00C1.06
T8F00S00C1.14
T9F00S00C1.40
T10F00S00C2.60
;TYPE=NON_PLATED
T11F00S00C0.75
%
T01
X000725Y000375
X000975
X001225
X001475
X001725
X001975
X002225
X002475
X002725
X002975
X0031Y000625
X00335
X003475Y000875
X002975
X002808Y000758
X0021Y000625
X0019Y0007
X001725Y000875
X001475
X00138Y00077
X00092
X000975Y000875
X000725
X00085Y001125
X00095Y001275
X00085Y001625
X0011
X001174Y001526
X00125Y001525
X00135Y001625
X001475Y0013
X002133Y001283
Y001383
Y001483
Y001583
X0026Y001625
X002808Y001602
X0031Y001625
X00335
X003475Y001875
X00335Y002125
X0031
X00285
Y002625
X002698Y002636
X002751Y002733
X002783Y002838
X002796Y002947
X002796Y003057
Y003167
Y003277
Y003387
Y003497
Y003607
Y003717
Y003827
Y003937
Y004047
Y004157
X002806Y004267
X0028Y00435
X002805Y00446
X002975Y004375
X003225
X003475
X00335Y004625
X0031
X002519Y004509
X002544Y004402
X002545Y004331
X002547Y004221
X002554Y004111
Y004001
Y003891
Y003781
Y003671
Y003561
Y003451
Y003341
Y003231
Y003121
Y003011
X002548Y002901
X002512Y002797
X002447Y002709
X00236Y002642
X00226Y002597
X002174Y002527
X002115Y002434
X00209Y002327
X002089Y002217
X001975Y002375
X0021Y002625
X002225Y002875
X001975
X0021Y003125
X00235
X002475Y003375
X002225
X00235Y003625
X0021
X001831Y003634
X001325Y003575
X0012Y003625
X0011Y003625
X001Y0035
X000812Y003668
X000809Y003778
Y003888
X000725Y003875
X000819Y003998
Y004108
Y004218
Y004328
X000823Y004411
X000725Y004375
X000475
X0006Y004125
Y003625
X000683Y003433
X000675Y003325
X001067Y004256
X001081Y004366
Y004456
X001094Y004565
X001225Y004375
X0016Y004625
X00185
X0021
X002225Y004875
X001975
X001725
X001475
X002225Y004375
X0021Y004125
X002208Y003933
X002975Y003875
X003475
Y003375
X003225
X0031Y003125
X003475Y002875
X00263Y002549
X002549Y002476
X002455Y002418
X002357Y002368
X002331Y002261
X0014Y002275
X001343Y00235
X000959Y002169
X002625Y001175
X003475Y001375
X0031Y005125
X00285
X002721Y005091
X002578Y005094
X00235Y005125
X0021
X00185
X0016
X00135
X001071Y005091
X000948Y005094
X000841Y005069
X0006Y005125
T02
X000975Y0047
X00335Y00295
Y00275
Y00255
T04
X0004Y001127
X0032
X002625Y0047
T05
X0032Y000873
X0004
X00335Y003575
Y004075
T07
X0032Y00175
Y002004
T08
X0002Y0016
Y001854
Y002108
Y002362
Y002616
Y00287
Y003124
Y003378
Y003632
Y003886
X000454
Y003632
Y003378
Y003124
Y00287
Y002616
Y002362
Y002108
Y00187
Y0016
X00115Y0041
X001404
X001658
X001912
T09
X0031Y003475
Y004175
T10
X0033Y0003
X0003
Y00495
X0033
T11
X000861Y000491
X001439
M30
